<?xml version="1.0" encoding="UTF-8" standalone="no"?>
<svg
   xmlns:dc="http://purl.org/dc/elements/1.1/"
   xmlns:cc="http://creativecommons.org/ns#"
   xmlns:rdf="http://www.w3.org/1999/02/22-rdf-syntax-ns#"
   xmlns:svg="http://www.w3.org/2000/svg"
   xmlns="http://www.w3.org/2000/svg"
   xmlns:sodipodi="http://sodipodi.sourceforge.net/DTD/sodipodi-0.dtd"
   xmlns:inkscape="http://www.inkscape.org/namespaces/inkscape"
   style="font-size:12px;font-style:normal;font-weight:normal;fill:#000000;fill-opacity:1;stroke:#000000;stroke-width:1;stroke-linecap:square;stroke-linejoin:miter;stroke-miterlimit:10;stroke-dasharray:none;stroke-dashoffset:0;stroke-opacity:1;font-family:Dialog"
   width="557.24219"
   height="390"
   id="svg2"
   sodipodi:version="0.32"
   inkscape:version="0.46"
   sodipodi:docname="Tenant settings.svg"
   inkscape:output_extension="org.inkscape.output.svg.inkscape"
   version="1.0">
  <metadata
     id="metadata224">
    <rdf:RDF>
      <cc:Work
         rdf:about="">
        <dc:format>image/svg+xml</dc:format>
        <dc:type
           rdf:resource="http://purl.org/dc/dcmitype/StillImage" />
      </cc:Work>
    </rdf:RDF>
  </metadata>
  <sodipodi:namedview
     inkscape:window-height="851"
     inkscape:window-width="1440"
     inkscape:pageshadow="2"
     inkscape:pageopacity="0.0"
     guidetolerance="10.0"
     gridtolerance="10.0"
     objecttolerance="10.0"
     borderopacity="1.0"
     bordercolor="#666666"
     pagecolor="#ffffff"
     id="base"
     showgrid="false"
     inkscape:zoom="0.93150685"
     inkscape:cx="292"
     inkscape:cy="232"
     inkscape:window-x="-4"
     inkscape:window-y="-4"
     inkscape:current-layer="g5" />
<!--Generated by the Batik Graphics2D SVG Generator-->  <defs
     id="genericDefs">
    <inkscape:perspective
       sodipodi:type="inkscape:persp3d"
       inkscape:vp_x="0 : 232 : 1"
       inkscape:vp_y="0 : 1000 : 0"
       inkscape:vp_z="584 : 232 : 1"
       inkscape:persp3d-origin="292 : 154.66667 : 1"
       id="perspective226" />
  </defs>
  <g
     id="g5"
     transform="translate(-22.257812,-69.5)">
    <defs
       id="defs1">
      <clipPath
         clipPathUnits="userSpaceOnUse"
         id="clipPath1">
        <path
           d="M -3,-3 L 277,-3 L 277,47 L -3,47 L -3,-3 z"
           id="path9" />
      </clipPath>
      <clipPath
         clipPathUnits="userSpaceOnUse"
         id="clipPath2">
        <path
           d="M 0,0 L 0,40 L 270,40 L 270,0 L 0,0 z"
           id="path12" />
      </clipPath>
      <clipPath
         clipPathUnits="userSpaceOnUse"
         id="clipPath3">
        <path
           d="M -3,-3 L 457,-3 L 457,397 L -3,397 L -3,-3 z"
           id="path15" />
      </clipPath>
      <clipPath
         clipPathUnits="userSpaceOnUse"
         id="clipPath4">
        <path
           d="M -3,-3 L 397,-3 L 397,317 L -3,317 L -3,-3 z"
           id="path18" />
      </clipPath>
      <clipPath
         clipPathUnits="userSpaceOnUse"
         id="clipPath5">
        <path
           d="M -3,-3 L 117,-3 L 117,47 L -3,47 L -3,-3 z"
           id="path21" />
      </clipPath>
      <clipPath
         clipPathUnits="userSpaceOnUse"
         id="clipPath6">
        <path
           d="M -3,-3 L 137,-3 L 137,47 L -3,47 L -3,-3 z"
           id="path24" />
      </clipPath>
      <clipPath
         clipPathUnits="userSpaceOnUse"
         id="clipPath7">
        <path
           d="M -3,-3 L 157,-3 L 157,47 L -3,47 L -3,-3 z"
           id="path27" />
      </clipPath>
      <clipPath
         clipPathUnits="userSpaceOnUse"
         id="clipPath8">
        <path
           d="M -3,-3 L 37,-3 L 37,67 L -3,67 L -3,-3 z"
           id="path30" />
      </clipPath>
      <clipPath
         clipPathUnits="userSpaceOnUse"
         id="clipPath9">
        <path
           d="M 0,0 L 86,0 L 86,15 L 0,15 L 0,0 z"
           id="path33" />
      </clipPath>
      <clipPath
         clipPathUnits="userSpaceOnUse"
         id="clipPath10">
        <path
           d="M 0,0 L 110,0 L 110,40 L 0,40 L 0,0 z"
           id="path36" />
      </clipPath>
      <clipPath
         clipPathUnits="userSpaceOnUse"
         id="clipPath11">
        <path
           d="M 0,0 L 150,0 L 150,40 L 0,40 L 0,0 z"
           id="path39" />
      </clipPath>
      <clipPath
         clipPathUnits="userSpaceOnUse"
         id="clipPath12">
        <path
           d="M 0,0 L 130,0 L 130,40 L 0,40 L 0,0 z"
           id="path42" />
      </clipPath>
      <clipPath
         clipPathUnits="userSpaceOnUse"
         id="clipPath13">
        <path
           d="M 0,0 L 390,0 L 390,21 L 0,21 L 0,0 z"
           id="path45" />
      </clipPath>
      <clipPath
         clipPathUnits="userSpaceOnUse"
         id="clipPath14">
        <path
           d="M 0,0 L 450,0 L 450,21 L 0,21 L 0,0 z"
           id="path48" />
      </clipPath>
      <clipPath
         clipPathUnits="userSpaceOnUse"
         id="clipPath15">
        <path
           d="M 0,0 L 104,0 L 104,259 L 0,259 L 0,0 z"
           id="path51" />
      </clipPath>
      <clipPath
         clipPathUnits="userSpaceOnUse"
         id="clipPath16">
        <path
           d="M 0,0 L 143,0 L 143,193 L 0,193 L 0,0 z"
           id="path54" />
      </clipPath>
      <clipPath
         clipPathUnits="userSpaceOnUse"
         id="clipPath17">
        <path
           d="M 0,0 L 104,0 L 104,269 L 0,269 L 0,0 z"
           id="path57" />
      </clipPath>
      <clipPath
         clipPathUnits="userSpaceOnUse"
         id="clipPath18">
        <path
           d="M 0,0 L 316,0 L 316,104 L 0,104 L 0,0 z"
           id="path60" />
      </clipPath>
      <clipPath
         clipPathUnits="userSpaceOnUse"
         id="clipPath19">
        <path
           d="M 0,0 L 202,0 L 202,280 L 0,280 L 0,0 z"
           id="path63" />
      </clipPath>
      <clipPath
         clipPathUnits="userSpaceOnUse"
         id="clipPath20">
        <path
           d="M 0,0 L 398,0 L 398,276 L 0,276 L 0,0 z"
           id="path66" />
      </clipPath>
      <clipPath
         clipPathUnits="userSpaceOnUse"
         id="clipPath21">
        <path
           d="M 0,0 L 453,0 L 453,204 L 0,204 L 0,0 z"
           id="path69" />
      </clipPath>
    </defs>
    <g
       style="font-size:11px;stroke-linecap:butt;stroke-linejoin:round;stroke-miterlimit:0;font-family:sans-serif"
       id="g79" />
    <g
       transform="translate(130,70)"
       style="font-size:16px;font-weight:bold;fill:#ffffff;stroke:#ffffff;font-family:sans-serif"
       id="g83">
      <rect
         x="0"
         y="0"
         width="449"
         style="stroke:none"
         height="389"
         id="rect85" />
    </g>
    <g
       transform="translate(130,70)"
       style="font-size:16px;font-weight:bold;stroke-linecap:butt;stroke-linejoin:round;stroke-miterlimit:0;font-family:sans-serif"
       id="g87">
      <rect
         x="0"
         y="0"
         width="449"
         style="fill:none"
         height="389"
         id="rect89" />
    </g>
    <g
       transform="translate(160,120)"
       style="font-size:16px;font-weight:bold;fill:#ffffff;stroke:#ffffff;font-family:sans-serif"
       id="g91">
      <rect
         x="0"
         y="0"
         width="389"
         style="stroke:none"
         height="309"
         id="rect93" />
    </g>
    <g
       transform="translate(160,120)"
       style="font-size:16px;font-weight:bold;stroke-linecap:butt;stroke-linejoin:round;stroke-miterlimit:0;font-family:sans-serif"
       id="g95">
      <rect
         x="0"
         y="0"
         width="389"
         style="fill:none"
         height="309"
         id="rect97" />
    </g>
    <g
       transform="translate(380,360)"
       style="font-size:11px;fill:#ffffff;stroke:#ffffff;font-family:sans-serif"
       id="g99">
      <ellipse
         style="stroke:none"
         rx="55"
         cx="55"
         ry="20"
         cy="20"
         id="ellipse101"
         sodipodi:cx="55"
         sodipodi:cy="20"
         sodipodi:rx="55"
         sodipodi:ry="20" />
    </g>
    <g
       transform="translate(380,360)"
       style="font-size:11px;stroke-linecap:butt;stroke-linejoin:round;stroke-miterlimit:0;font-family:sans-serif"
       id="g103">
      <ellipse
         style="fill:none"
         rx="55"
         cx="55"
         ry="20"
         cy="20"
         id="ellipse105"
         sodipodi:cx="55"
         sodipodi:cy="20"
         sodipodi:rx="55"
         sodipodi:ry="20" />
    </g>
    <g
       transform="translate(310,170)"
       style="font-size:11px;fill:#ffffff;stroke:#ffffff;font-family:sans-serif"
       id="g107">
      <ellipse
         style="stroke:none"
         rx="65"
         cx="65"
         ry="20"
         cy="20"
         id="ellipse109"
         sodipodi:cx="65"
         sodipodi:cy="20"
         sodipodi:rx="65"
         sodipodi:ry="20" />
    </g>
    <g
       transform="translate(310,170)"
       style="font-size:11px;stroke-linecap:butt;stroke-linejoin:round;stroke-miterlimit:0;font-family:sans-serif"
       id="g111">
      <ellipse
         style="fill:none"
         rx="65"
         cx="65"
         ry="20"
         cy="20"
         id="ellipse113"
         sodipodi:cx="65"
         sodipodi:cy="20"
         sodipodi:rx="65"
         sodipodi:ry="20" />
    </g>
    <g
       transform="translate(190,360)"
       style="font-size:11px;fill:#ffffff;stroke:#ffffff;font-family:sans-serif"
       id="g115">
      <ellipse
         style="stroke:none"
         rx="75"
         cx="75"
         ry="20"
         cy="20"
         id="ellipse117"
         sodipodi:cx="75"
         sodipodi:cy="20"
         sodipodi:rx="75"
         sodipodi:ry="20" />
    </g>
    <g
       transform="translate(190,360)"
       style="font-size:11px;stroke-linecap:butt;stroke-linejoin:round;stroke-miterlimit:0;font-family:sans-serif"
       id="g119">
      <ellipse
         style="fill:none"
         rx="75"
         cx="75"
         ry="20"
         cy="20"
         id="ellipse121"
         sodipodi:cx="75"
         sodipodi:cy="20"
         sodipodi:rx="75"
         sodipodi:ry="20" />
    </g>
    <g
       transform="translate(430,290)"
       style="font-size:11px;fill:#ffffff;stroke:#ffffff;font-family:sans-serif"
       id="g123">
      <ellipse
         style="stroke:none"
         rx="55"
         cx="55"
         ry="20"
         cy="20"
         id="ellipse125"
         sodipodi:cx="55"
         sodipodi:cy="20"
         sodipodi:rx="55"
         sodipodi:ry="20" />
    </g>
    <g
       transform="translate(430,290)"
       style="font-size:11px;stroke-linecap:butt;stroke-linejoin:round;stroke-miterlimit:0;font-family:sans-serif"
       id="g127">
      <ellipse
         style="fill:none"
         rx="55"
         cx="55"
         ry="20"
         cy="20"
         id="ellipse129"
         sodipodi:cx="55"
         sodipodi:cy="20"
         sodipodi:rx="55"
         sodipodi:ry="20" />
    </g>
    <g
       transform="translate(40,120)"
       style="font-size:11px;fill:#ffffff;stroke:#ffffff;font-family:sans-serif"
       id="g131">
      <circle
         style="stroke:none"
         r="7.5"
         cx="14.5"
         cy="7.5"
         id="circle133"
         sodipodi:cx="14.5"
         sodipodi:cy="7.5"
         sodipodi:rx="7.5"
         sodipodi:ry="7.5" />
    </g>
    <g
       transform="translate(40,120)"
       style="font-size:11px;stroke-linecap:butt;stroke-linejoin:round;stroke-miterlimit:0;font-family:sans-serif"
       id="g135">
      <circle
         style="fill:none"
         r="7.5"
         cx="14.5"
         cy="7.5"
         id="circle137"
         sodipodi:cx="14.5"
         sodipodi:cy="7.5"
         sodipodi:rx="7.5"
         sodipodi:ry="7.5" />
      <line
         x1="15"
         x2="15"
         y1="15"
         style="fill:none"
         y2="40"
         id="line139" />
      <line
         x1="0"
         x2="30"
         y1="24"
         style="fill:none"
         y2="24"
         id="line141" />
      <line
         x1="15"
         x2="0"
         y1="40"
         style="fill:none"
         y2="60"
         id="line143" />
      <line
         x1="15"
         x2="30"
         y1="40"
         style="fill:none"
         y2="60"
         id="line145" />
    </g>
    <g
       style="font-size:11px;font-family:sans-serif"
       transform="translate(12,180)"
       id="g147">
      <text
         x="10"
         y="12"
         style="stroke:none"
         xml:space="preserve"
         id="text149">Tenant Admin</text>
    </g>
    <g
       style="font-size:11px;font-family:sans-serif"
       transform="translate(430,290)"
       id="g151">
      <text
         x="5"
         y="24"
         style="stroke:none"
         xml:space="preserve"
         id="text153">Upload custom CSS</text>
    </g>
    <g
       style="font-size:11px;font-family:sans-serif"
       transform="translate(190,360)"
       id="g155">
      <text
         x="7"
         y="24"
         style="stroke:none"
         xml:space="preserve"
         id="text157">Define simple color scheme</text>
    </g>
    <g
       style="font-size:11px;font-family:sans-serif"
       transform="translate(310,170)"
       id="g159">
      <text
         x="8"
         y="24"
         style="stroke:none"
         xml:space="preserve"
         id="text161">Change tenant settings</text>
    </g>
    <g
       style="font-size:11px;font-family:sans-serif"
       transform="translate(380,360)"
       id="g163">
      <text
         x="7"
         y="24"
         style="stroke:none"
         xml:space="preserve"
         id="text165">Change tenant logo</text>
    </g>
    <g
       transform="translate(160,120)"
       style="font-size:16px;font-weight:bold;font-family:sans-serif"
       id="g167">
      <text
         x="136"
         y="17"
         style="stroke:none"
         xml:space="preserve"
         id="text169">Tenant settings</text>
    </g>
    <g
       transform="translate(130,70)"
       style="font-size:16px;font-weight:bold;font-family:sans-serif"
       id="g171">
      <text
         x="197"
         y="17"
         style="stroke:none"
         xml:space="preserve"
         id="text173">DecidR</text>
    </g>
    <g
       transform="translate(360,157)"
       style="font-size:11px;stroke-linecap:butt;stroke-linejoin:round;font-family:sans-serif"
       id="g175">
      <line
         x1="50"
         x2="50"
         y1="50"
         style="fill:none"
         y2="205"
         id="line177" />
      <polygon
         style="fill:#ffffff;stroke:none"
         points="50,50 44,62 56,62 50,50 "
         id="polygon179" />
      <polygon
         style="fill:none"
         points="50,50 44,62 56,62 50,50 "
         id="polygon181" />
    </g>
    <g
       transform="translate(381,151)"
       style="font-size:11px;stroke-linecap:butt;stroke-linejoin:round;font-family:sans-serif"
       id="g183">
      <line
         x1="50"
         x2="89"
         y1="50"
         style="fill:none"
         y2="89"
         id="line185" />
      <line
         x1="89"
         x2="89"
         y1="89"
         style="fill:none"
         y2="139"
         id="line187" />
      <polygon
         style="fill:#ffffff;stroke:none"
         points="50,50 53,62 62,53 50,50 "
         id="polygon189" />
      <polygon
         style="fill:none"
         points="50,50 53,62 62,53 50,50 "
         id="polygon191" />
    </g>
    <g
       transform="translate(270,151)"
       style="font-size:11px;stroke-linecap:butt;stroke-linejoin:round;font-family:sans-serif"
       id="g193">
      <line
         x1="50"
         x2="50"
         y1="50"
         style="fill:none"
         y2="215"
         id="line195" />
      <polygon
         style="fill:#ffffff;stroke:none"
         points="50,50 44,62 56,62 50,50 "
         id="polygon197" />
      <polygon
         style="fill:none"
         points="50,50 44,62 56,62 50,50 "
         id="polygon199" />
    </g>
    <g
       transform="translate(48,140)"
       style="font-size:11px;stroke-linecap:butt;stroke-linejoin:round;font-family:sans-serif"
       id="g201">
      <line
         x1="50"
         x2="262"
         y1="50"
         style="fill:none"
         y2="50"
         id="line203" />
    </g>
    <g
       transform="translate(48,145)"
       style="font-size:11px;stroke-linecap:butt;stroke-linejoin:round;font-family:sans-serif"
       id="g205">
      <line
         x1="148"
         x2="50"
         y1="226"
         style="fill:none"
         y2="50"
         id="line207" />
    </g>
    <g
       transform="translate(48,145)"
       style="font-size:11px;stroke-linecap:butt;stroke-linejoin:round;font-family:sans-serif"
       id="g209">
      <line
         x1="344"
         x2="50"
         y1="222"
         style="fill:none"
         y2="50"
         id="line211" />
    </g>
    <g
       transform="translate(48,145)"
       style="font-size:11px;stroke-linecap:butt;stroke-linejoin:round;font-family:sans-serif"
       id="g213">
      <line
         x1="399"
         x2="50"
         y1="150"
         style="fill:none"
         y2="50"
         id="line215" />
    </g>
    <g
       style="font-size:8px;fill:#787878;stroke:#787878"
       id="g217" />
  </g>
</svg>
