<?xml version="1.0" encoding="UTF-8" standalone="no"?>
<svg
   xmlns:dc="http://purl.org/dc/elements/1.1/"
   xmlns:cc="http://creativecommons.org/ns#"
   xmlns:rdf="http://www.w3.org/1999/02/22-rdf-syntax-ns#"
   xmlns:svg="http://www.w3.org/2000/svg"
   xmlns="http://www.w3.org/2000/svg"
   xmlns:sodipodi="http://sodipodi.sourceforge.net/DTD/sodipodi-0.dtd"
   xmlns:inkscape="http://www.inkscape.org/namespaces/inkscape"
   style="font-size:12px;font-style:normal;font-weight:normal;fill:#000000;fill-opacity:1;stroke:#000000;stroke-width:1;stroke-linecap:square;stroke-linejoin:miter;stroke-miterlimit:10;stroke-dasharray:none;stroke-dashoffset:0;stroke-opacity:1;font-family:Dialog"
   width="782.63525"
   height="450"
   id="svg2"
   sodipodi:version="0.32"
   inkscape:version="0.46"
   sodipodi:docname="Workflow participation.svg"
   inkscape:output_extension="org.inkscape.output.svg.inkscape"
   version="1.0">
  <metadata
     id="metadata346">
    <rdf:RDF>
      <cc:Work
         rdf:about="">
        <dc:format>image/svg+xml</dc:format>
        <dc:type
           rdf:resource="http://purl.org/dc/dcmitype/StillImage" />
      </cc:Work>
    </rdf:RDF>
  </metadata>
  <sodipodi:namedview
     inkscape:window-height="675"
     inkscape:window-width="718"
     inkscape:pageshadow="2"
     inkscape:pageopacity="0.0"
     guidetolerance="10.0"
     gridtolerance="10.0"
     objecttolerance="10.0"
     borderopacity="1.0"
     bordercolor="#666666"
     pagecolor="#ffffff"
     id="base"
     showgrid="false"
     inkscape:zoom="0.45254834"
     inkscape:cx="680.65007"
     inkscape:cy="351.5163"
     inkscape:window-x="372"
     inkscape:window-y="123"
     inkscape:current-layer="g5" />
<!--Generated by the Batik Graphics2D SVG Generator-->  <defs
     id="genericDefs">
    <inkscape:perspective
       sodipodi:type="inkscape:persp3d"
       inkscape:vp_x="0 : 282 : 1"
       inkscape:vp_y="0 : 1000 : 0"
       inkscape:vp_z="804 : 282 : 1"
       inkscape:persp3d-origin="402 : 188 : 1"
       id="perspective348" />
  </defs>
  <g
     id="g5"
     transform="translate(-16.864746,-109.5)">
    <defs
       id="defs1">
      <clipPath
         clipPathUnits="userSpaceOnUse"
         id="clipPath1">
        <path
           d="M -3,-3 L 277,-3 L 277,47 L -3,47 L -3,-3 z"
           id="path9" />
      </clipPath>
      <clipPath
         clipPathUnits="userSpaceOnUse"
         id="clipPath2">
        <path
           d="M 0,0 L 0,40 L 270,40 L 270,0 L 0,0 z"
           id="path12" />
      </clipPath>
      <clipPath
         clipPathUnits="userSpaceOnUse"
         id="clipPath3">
        <path
           d="M -3,-3 L 597,-3 L 597,457 L -3,457 L -3,-3 z"
           id="path15" />
      </clipPath>
      <clipPath
         clipPathUnits="userSpaceOnUse"
         id="clipPath4">
        <path
           d="M -3,-3 L 537,-3 L 537,387 L -3,387 L -3,-3 z"
           id="path18" />
      </clipPath>
      <clipPath
         clipPathUnits="userSpaceOnUse"
         id="clipPath5">
        <path
           d="M -3,-3 L 117,-3 L 117,47 L -3,47 L -3,-3 z"
           id="path21" />
      </clipPath>
      <clipPath
         clipPathUnits="userSpaceOnUse"
         id="clipPath6">
        <path
           d="M -3,-3 L 217,-3 L 217,47 L -3,47 L -3,-3 z"
           id="path24" />
      </clipPath>
      <clipPath
         clipPathUnits="userSpaceOnUse"
         id="clipPath7">
        <path
           d="M -3,-3 L 247,-3 L 247,47 L -3,47 L -3,-3 z"
           id="path27" />
      </clipPath>
      <clipPath
         clipPathUnits="userSpaceOnUse"
         id="clipPath8">
        <path
           d="M -3,-3 L 137,-3 L 137,47 L -3,47 L -3,-3 z"
           id="path30" />
      </clipPath>
      <clipPath
         clipPathUnits="userSpaceOnUse"
         id="clipPath9">
        <path
           d="M -3,-3 L 177,-3 L 177,47 L -3,47 L -3,-3 z"
           id="path33" />
      </clipPath>
      <clipPath
         clipPathUnits="userSpaceOnUse"
         id="clipPath10">
        <path
           d="M -3,-3 L 157,-3 L 157,47 L -3,47 L -3,-3 z"
           id="path36" />
      </clipPath>
      <clipPath
         clipPathUnits="userSpaceOnUse"
         id="clipPath11">
        <path
           d="M -3,-3 L 37,-3 L 37,67 L -3,67 L -3,-3 z"
           id="path39" />
      </clipPath>
      <clipPath
         clipPathUnits="userSpaceOnUse"
         id="clipPath12">
        <path
           d="M 0,0 L 108,0 L 108,15 L 0,15 L 0,0 z"
           id="path42" />
      </clipPath>
      <clipPath
         clipPathUnits="userSpaceOnUse"
         id="clipPath13">
        <path
           d="M 0,0 L 98,0 L 98,15 L 0,15 L 0,0 z"
           id="path45" />
      </clipPath>
      <clipPath
         clipPathUnits="userSpaceOnUse"
         id="clipPath14">
        <path
           d="M 0,0 L 42,0 L 42,15 L 0,15 L 0,0 z"
           id="path48" />
      </clipPath>
      <clipPath
         clipPathUnits="userSpaceOnUse"
         id="clipPath15">
        <path
           d="M 0,0 L 150,0 L 150,40 L 0,40 L 0,0 z"
           id="path51" />
      </clipPath>
      <clipPath
         clipPathUnits="userSpaceOnUse"
         id="clipPath16">
        <path
           d="M 0,0 L 170,0 L 170,40 L 0,40 L 0,0 z"
           id="path54" />
      </clipPath>
      <clipPath
         clipPathUnits="userSpaceOnUse"
         id="clipPath17">
        <path
           d="M 0,0 L 130,0 L 130,40 L 0,40 L 0,0 z"
           id="path57" />
      </clipPath>
      <clipPath
         clipPathUnits="userSpaceOnUse"
         id="clipPath18">
        <path
           d="M 0,0 L 240,0 L 240,40 L 0,40 L 0,0 z"
           id="path60" />
      </clipPath>
      <clipPath
         clipPathUnits="userSpaceOnUse"
         id="clipPath19">
        <path
           d="M 0,0 L 210,0 L 210,40 L 0,40 L 0,0 z"
           id="path63" />
      </clipPath>
      <clipPath
         clipPathUnits="userSpaceOnUse"
         id="clipPath20">
        <path
           d="M 0,0 L 110,0 L 110,40 L 0,40 L 0,0 z"
           id="path66" />
      </clipPath>
      <clipPath
         clipPathUnits="userSpaceOnUse"
         id="clipPath21">
        <path
           d="M 0,0 L 530,0 L 530,21 L 0,21 L 0,0 z"
           id="path69" />
      </clipPath>
      <clipPath
         clipPathUnits="userSpaceOnUse"
         id="clipPath22">
        <path
           d="M 0,0 L 590,0 L 590,21 L 0,21 L 0,0 z"
           id="path72" />
      </clipPath>
      <clipPath
         clipPathUnits="userSpaceOnUse"
         id="clipPath23">
        <path
           d="M 0,0 L 209,0 L 209,129 L 0,129 L 0,0 z"
           id="path75" />
      </clipPath>
      <clipPath
         clipPathUnits="userSpaceOnUse"
         id="clipPath24">
        <path
           d="M 0,0 L 199,0 L 199,129 L 0,129 L 0,0 z"
           id="path78" />
      </clipPath>
      <clipPath
         clipPathUnits="userSpaceOnUse"
         id="clipPath25">
        <path
           d="M 0,0 L 288,0 L 288,129 L 0,129 L 0,0 z"
           id="path81" />
      </clipPath>
      <clipPath
         clipPathUnits="userSpaceOnUse"
         id="clipPath26">
        <path
           d="M 0,0 L 289,0 L 289,253 L 0,253 L 0,0 z"
           id="path84" />
      </clipPath>
      <clipPath
         clipPathUnits="userSpaceOnUse"
         id="clipPath27">
        <path
           d="M 0,0 L 469,0 L 469,129 L 0,129 L 0,0 z"
           id="path87" />
      </clipPath>
      <clipPath
         clipPathUnits="userSpaceOnUse"
         id="clipPath28">
        <path
           d="M 0,0 L 283,0 L 283,344 L 0,344 L 0,0 z"
           id="path90" />
      </clipPath>
      <clipPath
         clipPathUnits="userSpaceOnUse"
         id="clipPath29">
        <path
           d="M 0,0 L 514,0 L 514,250 L 0,250 L 0,0 z"
           id="path93" />
      </clipPath>
      <clipPath
         clipPathUnits="userSpaceOnUse"
         id="clipPath30">
        <path
           d="M 0,0 L 503,0 L 503,184 L 0,184 L 0,0 z"
           id="path96" />
      </clipPath>
      <clipPath
         clipPathUnits="userSpaceOnUse"
         id="clipPath31">
        <path
           d="M 0,0 L 188,0 L 188,278 L 0,278 L 0,0 z"
           id="path99" />
      </clipPath>
      <clipPath
         clipPathUnits="userSpaceOnUse"
         id="clipPath32">
        <path
           d="M 0,0 L 129,0 L 129,233 L 0,233 L 0,0 z"
           id="path102" />
      </clipPath>
      <clipPath
         clipPathUnits="userSpaceOnUse"
         id="clipPath33">
        <path
           d="M 0,0 L 66,0 L 66,15 L 0,15 L 0,0 z"
           id="path105" />
      </clipPath>
    </defs>
    <g
       transform="translate(210,110)"
       style="font-size:16px;font-weight:bold;fill:#ffffff;stroke:#ffffff;font-family:sans-serif"
       id="g119">
      <rect
         x="0"
         y="0"
         width="589"
         style="stroke:none"
         height="449"
         id="rect121" />
    </g>
    <g
       transform="translate(210,110)"
       style="font-size:16px;font-weight:bold;stroke-linecap:butt;stroke-linejoin:round;stroke-miterlimit:0;font-family:sans-serif"
       id="g123">
      <rect
         x="0"
         y="0"
         width="589"
         style="fill:none"
         height="449"
         id="rect125" />
    </g>
    <g
       transform="translate(240,150)"
       style="font-size:16px;font-weight:bold;fill:#ffffff;stroke:#ffffff;font-family:sans-serif"
       id="g127">
      <rect
         x="0"
         y="0"
         width="529"
         style="stroke:none"
         height="379"
         id="rect129" />
    </g>
    <g
       transform="translate(240,150)"
       style="font-size:16px;font-weight:bold;stroke-linecap:butt;stroke-linejoin:round;stroke-miterlimit:0;font-family:sans-serif"
       id="g131">
      <rect
         x="0"
         y="0"
         width="529"
         style="fill:none"
         height="379"
         id="rect133" />
    </g>
    <g
       transform="translate(300,240)"
       style="font-size:11px;fill:#ffffff;stroke:#ffffff;font-family:sans-serif"
       id="g135">
      <ellipse
         style="stroke:none"
         rx="55"
         cx="55"
         ry="20"
         cy="20"
         id="ellipse137"
         sodipodi:cx="55"
         sodipodi:cy="20"
         sodipodi:rx="55"
         sodipodi:ry="20" />
    </g>
    <g
       transform="translate(300,240)"
       style="font-size:11px;stroke-linecap:butt;stroke-linejoin:round;stroke-miterlimit:0;font-family:sans-serif"
       id="g139">
      <ellipse
         style="fill:none"
         rx="55"
         cx="55"
         ry="20"
         cy="20"
         id="ellipse141"
         sodipodi:cx="55"
         sodipodi:cy="20"
         sodipodi:rx="55"
         sodipodi:ry="20" />
    </g>
    <g
       transform="translate(490,280)"
       style="font-size:11px;fill:#ffffff;stroke:#ffffff;font-family:sans-serif"
       id="g143">
      <ellipse
         style="stroke:none"
         rx="105"
         cx="105"
         ry="20"
         cy="20"
         id="ellipse145"
         sodipodi:cx="105"
         sodipodi:cy="20"
         sodipodi:rx="105"
         sodipodi:ry="20" />
    </g>
    <g
       transform="translate(490,280)"
       style="font-size:11px;stroke-linecap:butt;stroke-linejoin:round;stroke-miterlimit:0;font-family:sans-serif"
       id="g147">
      <ellipse
         style="fill:none"
         rx="105"
         cx="105"
         ry="20"
         cy="20"
         id="ellipse149"
         sodipodi:cx="105"
         sodipodi:cy="20"
         sodipodi:rx="105"
         sodipodi:ry="20" />
    </g>
    <g
       transform="translate(480,200)"
       style="font-size:11px;fill:#ffffff;stroke:#ffffff;font-family:sans-serif"
       id="g151">
      <ellipse
         style="stroke:none"
         rx="120"
         cx="120"
         ry="20"
         cy="20"
         id="ellipse153"
         sodipodi:cx="120"
         sodipodi:cy="20"
         sodipodi:rx="120"
         sodipodi:ry="20" />
    </g>
    <g
       transform="translate(480,200)"
       style="font-size:11px;stroke-linecap:butt;stroke-linejoin:round;stroke-miterlimit:0;font-family:sans-serif"
       id="g155">
      <ellipse
         style="fill:none"
         rx="120"
         cx="120"
         ry="20"
         cy="20"
         id="ellipse157"
         sodipodi:cx="120"
         sodipodi:cy="20"
         sodipodi:rx="120"
         sodipodi:ry="20" />
    </g>
    <g
       transform="translate(290,460)"
       style="font-size:11px;fill:#ffffff;stroke:#ffffff;font-family:sans-serif"
       id="g159">
      <ellipse
         style="stroke:none"
         rx="65"
         cx="65"
         ry="20"
         cy="20"
         id="ellipse161"
         sodipodi:cx="65"
         sodipodi:cy="20"
         sodipodi:rx="65"
         sodipodi:ry="20" />
    </g>
    <g
       transform="translate(290,460)"
       style="font-size:11px;stroke-linecap:butt;stroke-linejoin:round;stroke-miterlimit:0;font-family:sans-serif"
       id="g163">
      <ellipse
         style="fill:none"
         rx="65"
         cx="65"
         ry="20"
         cy="20"
         id="ellipse165"
         sodipodi:cx="65"
         sodipodi:cy="20"
         sodipodi:rx="65"
         sodipodi:ry="20" />
    </g>
    <g
       transform="translate(500,370)"
       style="font-size:11px;fill:#ffffff;stroke:#ffffff;font-family:sans-serif"
       id="g167">
      <ellipse
         style="stroke:none"
         rx="85"
         cx="85"
         ry="20"
         cy="20"
         id="ellipse169"
         sodipodi:cx="85"
         sodipodi:cy="20"
         sodipodi:rx="85"
         sodipodi:ry="20" />
    </g>
    <g
       transform="translate(500,370)"
       style="font-size:11px;stroke-linecap:butt;stroke-linejoin:round;stroke-miterlimit:0;font-family:sans-serif"
       id="g171">
      <ellipse
         style="fill:none"
         rx="85"
         cx="85"
         ry="20"
         cy="20"
         id="ellipse173"
         sodipodi:cx="85"
         sodipodi:cy="20"
         sodipodi:rx="85"
         sodipodi:ry="20" />
    </g>
    <g
       transform="translate(290,370)"
       style="font-size:11px;fill:#ffffff;stroke:#ffffff;font-family:sans-serif"
       id="g175">
      <ellipse
         style="stroke:none"
         rx="75"
         cx="75"
         ry="20"
         cy="20"
         id="ellipse177"
         sodipodi:cx="75"
         sodipodi:cy="20"
         sodipodi:rx="75"
         sodipodi:ry="20" />
    </g>
    <g
       transform="translate(290,370)"
       style="font-size:11px;stroke-linecap:butt;stroke-linejoin:round;stroke-miterlimit:0;font-family:sans-serif"
       id="g179">
      <ellipse
         style="fill:none"
         rx="75"
         cx="75"
         ry="20"
         cy="20"
         id="ellipse181"
         sodipodi:cx="75"
         sodipodi:cy="20"
         sodipodi:rx="75"
         sodipodi:ry="20" />
    </g>
    <g
       transform="translate(110,180)"
       style="font-size:11px;fill:#ffffff;stroke:#ffffff;font-family:sans-serif"
       id="g183">
      <circle
         style="stroke:none"
         r="7.5"
         cx="14.5"
         cy="7.5"
         id="circle185"
         sodipodi:cx="14.5"
         sodipodi:cy="7.5"
         sodipodi:rx="7.5"
         sodipodi:ry="7.5" />
    </g>
    <g
       transform="translate(110,180)"
       style="font-size:11px;stroke-linecap:butt;stroke-linejoin:round;stroke-miterlimit:0;font-family:sans-serif"
       id="g187">
      <circle
         style="fill:none"
         r="7.5"
         cx="14.5"
         cy="7.5"
         id="circle189"
         sodipodi:cx="14.5"
         sodipodi:cy="7.5"
         sodipodi:rx="7.5"
         sodipodi:ry="7.5" />
      <line
         x1="15"
         x2="15"
         y1="15"
         style="fill:none"
         y2="40"
         id="line191" />
      <line
         x1="0"
         x2="30"
         y1="24"
         style="fill:none"
         y2="24"
         id="line193" />
      <line
         x1="15"
         x2="0"
         y1="40"
         style="fill:none"
         y2="60"
         id="line195" />
      <line
         x1="15"
         x2="30"
         y1="40"
         style="fill:none"
         y2="60"
         id="line197" />
    </g>
    <g
       transform="translate(40,360)"
       style="font-size:11px;fill:#ffffff;stroke:#ffffff;font-family:sans-serif"
       id="g199">
      <circle
         style="stroke:none"
         r="7.5"
         cx="14.5"
         cy="7.5"
         id="circle201"
         sodipodi:cx="14.5"
         sodipodi:cy="7.5"
         sodipodi:rx="7.5"
         sodipodi:ry="7.5" />
    </g>
    <g
       transform="translate(40,360)"
       style="font-size:11px;stroke-linecap:butt;stroke-linejoin:round;stroke-miterlimit:0;font-family:sans-serif"
       id="g203">
      <circle
         style="fill:none"
         r="7.5"
         cx="14.5"
         cy="7.5"
         id="circle205"
         sodipodi:cx="14.5"
         sodipodi:cy="7.5"
         sodipodi:rx="7.5"
         sodipodi:ry="7.5" />
      <line
         x1="15"
         x2="15"
         y1="15"
         style="fill:none"
         y2="40"
         id="line207" />
      <line
         x1="0"
         x2="30"
         y1="24"
         style="fill:none"
         y2="24"
         id="line209" />
      <line
         x1="15"
         x2="0"
         y1="40"
         style="fill:none"
         y2="60"
         id="line211" />
      <line
         x1="15"
         x2="30"
         y1="40"
         style="fill:none"
         y2="60"
         id="line213" />
    </g>
    <g
       transform="translate(140,360)"
       style="font-size:11px;fill:#ffffff;stroke:#ffffff;font-family:sans-serif"
       id="g215">
      <circle
         style="stroke:none"
         r="7.5"
         cx="14.5"
         cy="7.5"
         id="circle217"
         sodipodi:cx="14.5"
         sodipodi:cy="7.5"
         sodipodi:rx="7.5"
         sodipodi:ry="7.5" />
    </g>
    <g
       transform="translate(140,360)"
       style="font-size:11px;stroke-linecap:butt;stroke-linejoin:round;stroke-miterlimit:0;font-family:sans-serif"
       id="g219">
      <circle
         style="fill:none"
         r="7.5"
         cx="14.5"
         cy="7.5"
         id="circle221"
         sodipodi:cx="14.5"
         sodipodi:cy="7.5"
         sodipodi:rx="7.5"
         sodipodi:ry="7.5" />
      <line
         x1="15"
         x2="15"
         y1="15"
         style="fill:none"
         y2="40"
         id="line223" />
      <line
         x1="0"
         x2="30"
         y1="24"
         style="fill:none"
         y2="24"
         id="line225" />
      <line
         x1="15"
         x2="0"
         y1="40"
         style="fill:none"
         y2="60"
         id="line227" />
      <line
         x1="15"
         x2="30"
         y1="40"
         style="fill:none"
         y2="60"
         id="line229" />
    </g>
    <g
       style="font-size:11px;font-family:sans-serif"
       transform="translate(101,420)"
       id="g231">
      <text
         x="9"
         y="12"
         style="stroke:none"
         xml:space="preserve"
         id="text233">Unregistered User</text>
    </g>
    <g
       style="font-size:11px;font-family:sans-serif"
       transform="translate(6,420)"
       id="g235">
      <text
         x="10"
         y="12"
         style="stroke:none"
         xml:space="preserve"
         id="text237">Registered User</text>
    </g>
    <g
       style="font-size:11px;font-family:sans-serif"
       transform="translate(104,240)"
       id="g239">
      <text
         x="9"
         y="12"
         style="stroke:none"
         xml:space="preserve"
         id="text241">User</text>
    </g>
    <g
       style="font-size:11px;font-family:sans-serif"
       transform="translate(290,370)"
       id="g243">
      <text
         x="5"
         y="24"
         style="stroke:none"
         xml:space="preserve"
         id="text245">Start working on human task</text>
    </g>
    <g
       style="font-size:11px;font-family:sans-serif"
       transform="translate(500,370)"
       id="g247">
      <text
         x="6"
         y="24"
         style="stroke:none"
         xml:space="preserve"
         id="text249">Resume working on human task</text>
    </g>
    <g
       style="font-size:11px;font-family:sans-serif"
       transform="translate(290,460)"
       id="g251">
      <text
         x="7"
         y="24"
         style="stroke:none"
         xml:space="preserve"
         id="text253">Mark work item as done</text>
    </g>
    <g
       style="font-size:11px;font-family:sans-serif"
       transform="translate(480,200)"
       id="g255">
      <text
         x="26"
         y="24"
         style="stroke:none"
         xml:space="preserve"
         id="text257">Display work items from current tenant</text>
    </g>
    <g
       style="font-size:11px;font-family:sans-serif"
       transform="translate(490,280)"
       id="g259">
      <text
         x="20"
         y="24"
         style="stroke:none"
         xml:space="preserve"
         id="text261">Display work items from all tenants</text>
    </g>
    <g
       style="font-size:11px;font-family:sans-serif"
       transform="translate(300,240)"
       id="g263">
      <text
         x="9"
         y="24"
         style="stroke:none"
         xml:space="preserve"
         id="text265">Display work items</text>
    </g>
    <g
       transform="translate(240,150)"
       style="font-size:16px;font-weight:bold;font-family:sans-serif"
       id="g267">
      <text
         x="179"
         y="17"
         style="stroke:none"
         xml:space="preserve"
         id="text269">Workflow participation</text>
    </g>
    <g
       transform="translate(210,110)"
       style="font-size:16px;font-weight:bold;font-family:sans-serif"
       id="g271">
      <text
         x="267"
         y="17"
         style="stroke:none"
         xml:space="preserve"
         id="text273">DecidR</text>
    </g>
    <g
       transform="translate(348,218)"
       style="font-size:11px;stroke-linecap:butt;stroke-linejoin:round;font-family:sans-serif"
       id="g275">
      <line
         x1="63"
         x2="143"
         y1="63"
         style="fill:none"
         y2="63"
         id="line277" />
      <polygon
         style="fill:#ffffff;stroke:none"
         points="63,63 75,69 75,57 63,63 "
         id="polygon279" />
      <polygon
         style="fill:none"
         points="63,63 75,69 75,57 63,63 "
         id="polygon281" />
    </g>
    <g
       transform="translate(348,178)"
       style="font-size:11px;stroke-linecap:butt;stroke-linejoin:round;font-family:sans-serif"
       id="g283">
      <line
         x1="63"
         x2="133"
         y1="63"
         style="fill:none"
         y2="63"
         id="line285" />
      <polygon
         style="fill:#ffffff;stroke:none"
         points="63,63 75,69 75,57 63,63 "
         id="polygon287" />
      <polygon
         style="fill:none"
         points="63,63 75,69 75,57 63,63 "
         id="polygon289" />
    </g>
    <g
       transform="translate(79,178)"
       style="font-size:11px;stroke-linecap:butt;stroke-linejoin:round;font-family:sans-serif"
       id="g291">
      <line
         x1="63"
         x2="221"
         y1="63"
         style="fill:none"
         y2="63"
         id="line293" />
    </g>
    <g
       transform="translate(79,192)"
       style="font-size:11px;stroke-linecap:butt;stroke-linejoin:round;font-family:sans-serif"
       id="g295">
      <line
         x1="63"
         x2="223"
         y1="63"
         style="fill:none"
         y2="186"
         id="line297" />
    </g>
    <g
       transform="translate(78,158)"
       style="font-size:11px;stroke-linecap:butt;stroke-linejoin:round;font-family:sans-serif"
       id="g299">
      <line
         x1="403"
         x2="63"
         y1="63"
         style="fill:none"
         y2="63"
         id="line301" />
    </g>
    <g
       transform="translate(81,192)"
       style="font-size:11px;stroke-linecap:butt;stroke-linejoin:round;font-family:sans-serif"
       id="g303">
      <line
         x1="63"
         x2="216"
         y1="63"
         style="fill:none"
         y2="278"
         id="line305" />
    </g>
    <g
       transform="translate(72,192)"
       style="font-size:11px;stroke-linecap:butt;stroke-linejoin:round;font-family:sans-serif"
       id="g307">
      <line
         x1="63"
         x2="448"
         y1="63"
         style="fill:none"
         y2="184"
         id="line309" />
    </g>
    <g
       transform="translate(68,192)"
       style="font-size:11px;stroke-linecap:butt;stroke-linejoin:round;font-family:sans-serif"
       id="g311">
      <line
         x1="436"
         x2="303"
         y1="118"
         style="fill:none"
         y2="118"
         id="line313" />
      <line
         x1="303"
         x2="63"
         y1="118"
         style="fill:none"
         y2="63"
         id="line315" />
    </g>
    <g
       transform="translate(-12,148)"
       style="font-size:11px;stroke-linecap:butt;stroke-linejoin:round;font-family:sans-serif"
       id="g317">
      <line
         x1="121"
         x2="63"
         y1="63"
         style="fill:none"
         y2="63"
         id="line319" />
      <line
         x1="63"
         x2="63"
         y1="63"
         style="fill:none"
         y2="211"
         id="line321" />
      <polygon
         style="fill:#ffffff;stroke:none"
         points="121,63 109,57 109,69 121,63 "
         id="polygon323" />
      <polygon
         style="fill:none"
         points="121,63 109,57 109,69 121,63 "
         id="polygon325" />
    </g>
    <g
       transform="translate(78,192)"
       style="font-size:11px;stroke-linecap:butt;stroke-linejoin:round;font-family:sans-serif"
       id="g327">
      <line
         x1="63"
         x2="63"
         y1="63"
         style="fill:none"
         y2="166"
         id="line329" />
      <polygon
         style="fill:#ffffff;stroke:none"
         points="63,63 57,75 69,75 63,63 "
         id="polygon331" />
      <polygon
         style="fill:none"
         points="63,63 57,75 69,75 63,63 "
         id="polygon333" />
    </g>
    <g
       transform="translate(60,290)"
       style="font-size:11px;fill:#ffffff;stroke:#ffffff;font-family:sans-serif"
       id="g335">
      <text
         x="9"
         y="12"
         style="stroke:none"
         xml:space="preserve"
         id="text337">buttsecks</text>
    </g>
  </g>
</svg>
