<?xml version="1.0" encoding="UTF-8" standalone="no"?>
<svg
   xmlns:dc="http://purl.org/dc/elements/1.1/"
   xmlns:cc="http://creativecommons.org/ns#"
   xmlns:rdf="http://www.w3.org/1999/02/22-rdf-syntax-ns#"
   xmlns:svg="http://www.w3.org/2000/svg"
   xmlns="http://www.w3.org/2000/svg"
   xmlns:sodipodi="http://sodipodi.sourceforge.net/DTD/sodipodi-0.dtd"
   xmlns:inkscape="http://www.inkscape.org/namespaces/inkscape"
   style="font-size:12px;font-style:normal;font-weight:normal;fill:#000000;fill-opacity:1;stroke:#000000;stroke-width:1;stroke-linecap:square;stroke-linejoin:miter;stroke-miterlimit:10;stroke-dasharray:none;stroke-dashoffset:0;stroke-opacity:1;font-family:Dialog"
   width="624.97754"
   height="504.81494"
   id="svg2"
   sodipodi:version="0.32"
   inkscape:version="0.46"
   sodipodi:docname="Actors overview.svg"
   inkscape:output_extension="org.inkscape.output.svg.inkscape"
   version="1.0">
  <metadata
     id="metadata236">
    <rdf:RDF>
      <cc:Work
         rdf:about="">
        <dc:format>image/svg+xml</dc:format>
        <dc:type
           rdf:resource="http://purl.org/dc/dcmitype/StillImage" />
      </cc:Work>
    </rdf:RDF>
  </metadata>
  <sodipodi:namedview
     inkscape:window-height="675"
     inkscape:window-width="718"
     inkscape:pageshadow="2"
     inkscape:pageopacity="0.0"
     guidetolerance="10.0"
     gridtolerance="10.0"
     objecttolerance="10.0"
     borderopacity="1.0"
     bordercolor="#666666"
     pagecolor="#ffffff"
     id="base"
     showgrid="false"
     inkscape:zoom="0.79765396"
     inkscape:cx="310.95469"
     inkscape:cy="258.4265"
     inkscape:window-x="22"
     inkscape:window-y="22"
     inkscape:current-layer="g5" />
<!--Generated by the Batik Graphics2D SVG Generator-->  <defs
     id="genericDefs">
    <inkscape:perspective
       sodipodi:type="inkscape:persp3d"
       inkscape:vp_x="0 : 289.5 : 1"
       inkscape:vp_y="0 : 1000 : 0"
       inkscape:vp_z="682 : 289.5 : 1"
       inkscape:persp3d-origin="341 : 193 : 1"
       id="perspective238" />
  </defs>
  <g
     id="g5"
     transform="translate(-44.494141,-69.5)">
    <defs
       id="defs1">
      <clipPath
         clipPathUnits="userSpaceOnUse"
         id="clipPath1">
        <path
           d="M -3,-3 L 37,-3 L 37,67 L -3,67 L -3,-3 z"
           id="path9" />
      </clipPath>
      <clipPath
         clipPathUnits="userSpaceOnUse"
         id="clipPath2">
        <path
           d="M -3,-3 L 277,-3 L 277,47 L -3,47 L -3,-3 z"
           id="path12" />
      </clipPath>
      <clipPath
         clipPathUnits="userSpaceOnUse"
         id="clipPath3">
        <path
           d="M 0,0 L 0,40 L 270,40 L 270,0 L 0,0 z"
           id="path15" />
      </clipPath>
      <clipPath
         clipPathUnits="userSpaceOnUse"
         id="clipPath4">
        <path
           d="M 0,0 L 43,0 L 43,16 L 0,16 L 0,0 z"
           id="path18" />
      </clipPath>
      <clipPath
         clipPathUnits="userSpaceOnUse"
         id="clipPath5">
        <path
           d="M 0,0 L 108,0 L 108,16 L 0,16 L 0,0 z"
           id="path21" />
      </clipPath>
      <clipPath
         clipPathUnits="userSpaceOnUse"
         id="clipPath6">
        <path
           d="M 0,0 L 98,0 L 98,16 L 0,16 L 0,0 z"
           id="path24" />
      </clipPath>
      <clipPath
         clipPathUnits="userSpaceOnUse"
         id="clipPath7">
        <path
           d="M 0,0 L 136,0 L 136,16 L 0,16 L 0,0 z"
           id="path27" />
      </clipPath>
      <clipPath
         clipPathUnits="userSpaceOnUse"
         id="clipPath8">
        <path
           d="M 0,0 L 120,0 L 120,16 L 0,16 L 0,0 z"
           id="path30" />
      </clipPath>
      <clipPath
         clipPathUnits="userSpaceOnUse"
         id="clipPath9">
        <path
           d="M 0,0 L 82,0 L 82,16 L 0,16 L 0,0 z"
           id="path33" />
      </clipPath>
      <clipPath
         clipPathUnits="userSpaceOnUse"
         id="clipPath10">
        <path
           d="M 0,0 L 148,0 L 148,139 L 0,139 L 0,0 z"
           id="path36" />
      </clipPath>
      <clipPath
         clipPathUnits="userSpaceOnUse"
         id="clipPath11">
        <path
           d="M 0,0 L 149,0 L 149,139 L 0,139 L 0,0 z"
           id="path39" />
      </clipPath>
      <clipPath
         clipPathUnits="userSpaceOnUse"
         id="clipPath12">
        <path
           d="M 0,0 L 142,0 L 142,139 L 0,139 L 0,0 z"
           id="path42" />
      </clipPath>
      <clipPath
         clipPathUnits="userSpaceOnUse"
         id="clipPath13">
        <path
           d="M 0,0 L 184,0 L 184,115 L 0,115 L 0,0 z"
           id="path45" />
      </clipPath>
      <clipPath
         clipPathUnits="userSpaceOnUse"
         id="clipPath14">
        <path
           d="M 0,0 L 150,0 L 150,139 L 0,139 L 0,0 z"
           id="path48" />
      </clipPath>
      <clipPath
         clipPathUnits="userSpaceOnUse"
         id="clipPath15">
        <path
           d="M 0,0 L 67,0 L 67,14 L 0,14 L 0,0 z"
           id="path51" />
      </clipPath>
    </defs>
    <g
       transform="translate(60,70)"
       style="font-size:11px;fill:#ffffff;stroke:#ffffff;font-family:sans-serif"
       id="g57">
      <circle
         style="stroke:none"
         r="7.5"
         cx="14.5"
         cy="7.5"
         id="circle59"
         sodipodi:cx="14.5"
         sodipodi:cy="7.5"
         sodipodi:rx="7.5"
         sodipodi:ry="7.5" />
    </g>
    <g
       transform="translate(60,70)"
       style="font-size:11px;stroke-linecap:butt;stroke-linejoin:round;stroke-miterlimit:0;font-family:sans-serif"
       id="g61">
      <circle
         style="fill:none"
         r="7.5"
         cx="14.5"
         cy="7.5"
         id="circle63"
         sodipodi:cx="14.5"
         sodipodi:cy="7.5"
         sodipodi:rx="7.5"
         sodipodi:ry="7.5" />
      <line
         x1="15"
         x2="15"
         y1="15"
         style="fill:none"
         y2="40"
         id="line65" />
      <line
         x1="0"
         x2="30"
         y1="24"
         style="fill:none"
         y2="24"
         id="line67" />
      <line
         x1="15"
         x2="0"
         y1="40"
         style="fill:none"
         y2="60"
         id="line69" />
      <line
         x1="15"
         x2="30"
         y1="40"
         style="fill:none"
         y2="60"
         id="line71" />
    </g>
    <g
       transform="translate(160,180)"
       style="font-size:11px;fill:#ffffff;stroke:#ffffff;font-family:sans-serif"
       id="g73">
      <circle
         style="stroke:none"
         r="7.5"
         cx="14.5"
         cy="7.5"
         id="circle75"
         sodipodi:cx="14.5"
         sodipodi:cy="7.5"
         sodipodi:rx="7.5"
         sodipodi:ry="7.5" />
    </g>
    <g
       transform="translate(160,180)"
       style="font-size:11px;stroke-linecap:butt;stroke-linejoin:round;stroke-miterlimit:0;font-family:sans-serif"
       id="g77">
      <circle
         style="fill:none"
         r="7.5"
         cx="14.5"
         cy="7.5"
         id="circle79"
         sodipodi:cx="14.5"
         sodipodi:cy="7.5"
         sodipodi:rx="7.5"
         sodipodi:ry="7.5" />
      <line
         x1="15"
         x2="15"
         y1="15"
         style="fill:none"
         y2="40"
         id="line81" />
      <line
         x1="0"
         x2="30"
         y1="24"
         style="fill:none"
         y2="24"
         id="line83" />
      <line
         x1="15"
         x2="0"
         y1="40"
         style="fill:none"
         y2="60"
         id="line85" />
      <line
         x1="15"
         x2="30"
         y1="40"
         style="fill:none"
         y2="60"
         id="line87" />
    </g>
    <g
       transform="translate(280,280)"
       style="font-size:11px;fill:#ffffff;stroke:#ffffff;font-family:sans-serif"
       id="g89">
      <circle
         style="stroke:none"
         r="7.5"
         cx="14.5"
         cy="7.5"
         id="circle91"
         sodipodi:cx="14.5"
         sodipodi:cy="7.5"
         sodipodi:rx="7.5"
         sodipodi:ry="7.5" />
    </g>
    <g
       transform="translate(280,280)"
       style="font-size:11px;stroke-linecap:butt;stroke-linejoin:round;stroke-miterlimit:0;font-family:sans-serif"
       id="g93">
      <circle
         style="fill:none"
         r="7.5"
         cx="14.5"
         cy="7.5"
         id="circle95"
         sodipodi:cx="14.5"
         sodipodi:cy="7.5"
         sodipodi:rx="7.5"
         sodipodi:ry="7.5" />
      <line
         x1="15"
         x2="15"
         y1="15"
         style="fill:none"
         y2="40"
         id="line97" />
      <line
         x1="0"
         x2="30"
         y1="24"
         style="fill:none"
         y2="24"
         id="line99" />
      <line
         x1="15"
         x2="0"
         y1="40"
         style="fill:none"
         y2="60"
         id="line101" />
      <line
         x1="15"
         x2="30"
         y1="40"
         style="fill:none"
         y2="60"
         id="line103" />
    </g>
    <g
       transform="translate(400,390)"
       style="font-size:11px;fill:#ffffff;stroke:#ffffff;font-family:sans-serif"
       id="g105">
      <circle
         style="stroke:none"
         r="7.5"
         cx="14.5"
         cy="7.5"
         id="circle107"
         sodipodi:cx="14.5"
         sodipodi:cy="7.5"
         sodipodi:rx="7.5"
         sodipodi:ry="7.5" />
    </g>
    <g
       transform="translate(400,390)"
       style="font-size:11px;stroke-linecap:butt;stroke-linejoin:round;stroke-miterlimit:0;font-family:sans-serif"
       id="g109">
      <circle
         style="fill:none"
         r="7.5"
         cx="14.5"
         cy="7.5"
         id="circle111"
         sodipodi:cx="14.5"
         sodipodi:cy="7.5"
         sodipodi:rx="7.5"
         sodipodi:ry="7.5" />
      <line
         x1="15"
         x2="15"
         y1="15"
         style="fill:none"
         y2="40"
         id="line113" />
      <line
         x1="0"
         x2="30"
         y1="24"
         style="fill:none"
         y2="24"
         id="line115" />
      <line
         x1="15"
         x2="0"
         y1="40"
         style="fill:none"
         y2="60"
         id="line117" />
      <line
         x1="15"
         x2="30"
         y1="40"
         style="fill:none"
         y2="60"
         id="line119" />
    </g>
    <g
       transform="translate(610,500)"
       style="font-size:11px;fill:#ffffff;stroke:#ffffff;font-family:sans-serif"
       id="g121">
      <circle
         style="stroke:none"
         r="7.5"
         cx="14.5"
         cy="7.5"
         id="circle123"
         sodipodi:cx="14.5"
         sodipodi:cy="7.5"
         sodipodi:rx="7.5"
         sodipodi:ry="7.5" />
    </g>
    <g
       transform="translate(610,500)"
       style="font-size:11px;stroke-linecap:butt;stroke-linejoin:round;stroke-miterlimit:0;font-family:sans-serif"
       id="g125">
      <circle
         style="fill:none"
         r="7.5"
         cx="14.5"
         cy="7.5"
         id="circle127"
         sodipodi:cx="14.5"
         sodipodi:cy="7.5"
         sodipodi:rx="7.5"
         sodipodi:ry="7.5" />
      <line
         x1="15"
         x2="15"
         y1="15"
         style="fill:none"
         y2="40"
         id="line129" />
      <line
         x1="0"
         x2="30"
         y1="24"
         style="fill:none"
         y2="24"
         id="line131" />
      <line
         x1="15"
         x2="0"
         y1="40"
         style="fill:none"
         y2="60"
         id="line133" />
      <line
         x1="15"
         x2="30"
         y1="40"
         style="fill:none"
         y2="60"
         id="line135" />
    </g>
    <g
       transform="translate(510,500)"
       style="font-size:11px;fill:#ffffff;stroke:#ffffff;font-family:sans-serif"
       id="g137">
      <circle
         style="stroke:none"
         r="7.5"
         cx="14.5"
         cy="7.5"
         id="circle139"
         sodipodi:cx="14.5"
         sodipodi:cy="7.5"
         sodipodi:rx="7.5"
         sodipodi:ry="7.5" />
    </g>
    <g
       transform="translate(510,500)"
       style="font-size:11px;stroke-linecap:butt;stroke-linejoin:round;stroke-miterlimit:0;font-family:sans-serif"
       id="g141">
      <circle
         style="fill:none"
         r="7.5"
         cx="14.5"
         cy="7.5"
         id="circle143"
         sodipodi:cx="14.5"
         sodipodi:cy="7.5"
         sodipodi:rx="7.5"
         sodipodi:ry="7.5" />
      <line
         x1="15"
         x2="15"
         y1="15"
         style="fill:none"
         y2="40"
         id="line145" />
      <line
         x1="0"
         x2="30"
         y1="24"
         style="fill:none"
         y2="24"
         id="line147" />
      <line
         x1="15"
         x2="0"
         y1="40"
         style="fill:none"
         y2="60"
         id="line149" />
      <line
         x1="15"
         x2="30"
         y1="40"
         style="fill:none"
         y2="60"
         id="line151" />
    </g>
    <g
       style="font-size:11px;fill:#ffffff;stroke:#ffffff;font-family:sans-serif"
       id="g153" />
    <g
       style="font-size:11px;font-family:sans-serif"
       transform="translate(504,560)"
       id="g161">
      <text
         x="10"
         y="12"
         style="stroke:none"
         xml:space="preserve"
         id="text163">User</text>
    </g>
    <g
       style="font-size:11px;font-family:sans-serif"
       transform="translate(571,560)"
       id="g165">
      <text
         x="9"
         y="12"
         style="stroke:none"
         xml:space="preserve"
         id="text167">Unregistered User</text>
    </g>
    <g
       style="font-size:11px;font-family:sans-serif"
       transform="translate(366,450)"
       id="g169">
      <text
         x="10"
         y="12"
         style="stroke:none"
         xml:space="preserve"
         id="text171">Registered User</text>
    </g>
    <g
       style="font-size:11px;font-family:sans-serif"
       transform="translate(227,340)"
       id="g173">
      <text
         x="28"
         y="12"
         style="stroke:none"
         xml:space="preserve"
         id="text175">Workflow Admin</text>
    </g>
    <g
       style="font-size:11px;font-family:sans-serif"
       transform="translate(115,240)"
       id="g177">
      <text
         x="27"
         y="12"
         style="stroke:none"
         xml:space="preserve"
         id="text179">Tenant Admin</text>
    </g>
    <g
       style="font-size:11px;font-family:sans-serif"
       transform="translate(34,130)"
       id="g181">
      <text
         x="10"
         y="12"
         style="stroke:none"
         xml:space="preserve"
         id="text183">Super Admin</text>
    </g>
    <g
       transform="translate(66,95)"
       style="font-size:11px;stroke-linecap:butt;stroke-linejoin:round;font-family:sans-serif"
       id="g185">
      <line
         x1="94"
         x2="50"
         y1="85"
         style="fill:none"
         y2="50"
         id="line187" />
      <polygon
         style="fill:#ffffff;stroke:none"
         points="94,85 88,72 81,82 94,85 "
         id="polygon189" />
      <polygon
         style="fill:none"
         points="94,85 88,72 81,82 94,85 "
         id="polygon191" />
    </g>
    <g
       transform="translate(185,205)"
       style="font-size:11px;stroke-linecap:butt;stroke-linejoin:round;font-family:sans-serif"
       id="g193">
      <line
         x1="95"
         x2="50"
         y1="85"
         style="fill:none"
         y2="50"
         id="line195" />
      <polygon
         style="fill:#ffffff;stroke:none"
         points="95,85 89,73 82,83 95,85 "
         id="polygon197" />
      <polygon
         style="fill:none"
         points="95,85 89,73 82,83 95,85 "
         id="polygon199" />
    </g>
    <g
       transform="translate(312,305)"
       style="font-size:11px;stroke-linecap:butt;stroke-linejoin:round;font-family:sans-serif"
       id="g201">
      <line
         x1="88"
         x2="50"
         y1="85"
         style="fill:none"
         y2="50"
         id="line203" />
      <polygon
         style="fill:#ffffff;stroke:none"
         points="88,85 83,73 75,82 88,85 "
         id="polygon205" />
      <polygon
         style="fill:none"
         points="88,85 83,73 75,82 88,85 "
         id="polygon207" />
    </g>
    <g
       transform="translate(484,484)"
       style="font-size:11px;stroke-linecap:butt;stroke-linejoin:round;font-family:sans-serif"
       id="g209">
      <line
         x1="56"
         x2="124"
         y1="56"
         style="fill:none"
         y2="56"
         id="line211" />
      <polygon
         style="fill:#ffffff;stroke:none"
         points="56,56 68,62 68,50 56,56 "
         id="polygon213" />
      <polygon
         style="fill:none"
         points="56,56 68,62 68,50 56,56 "
         id="polygon215" />
    </g>
    <g
       transform="translate(414,415)"
       style="font-size:11px;stroke-linecap:butt;stroke-linejoin:round;font-family:sans-serif"
       id="g217">
      <line
         x1="96"
         x2="50"
         y1="85"
         style="fill:none"
         y2="50"
         id="line219" />
      <polygon
         style="fill:#ffffff;stroke:none"
         points="96,85 90,73 83,83 96,85 "
         id="polygon221" />
      <polygon
         style="fill:none"
         points="96,85 90,73 83,83 96,85 "
         id="polygon223" />
    </g>
    <g
       transform="translate(539,520)"
       style="font-size:11px;fill:#ffffff;stroke:#ffffff;font-family:sans-serif"
       id="g225">
      <text
         x="10"
         y="12"
         style="stroke:none"
         xml:space="preserve"
         id="text227">buttsecks</text>
    </g>
  </g>
</svg>
