<?xml version="1.0" encoding="UTF-8" standalone="no"?>
<svg
   xmlns:dc="http://purl.org/dc/elements/1.1/"
   xmlns:cc="http://creativecommons.org/ns#"
   xmlns:rdf="http://www.w3.org/1999/02/22-rdf-syntax-ns#"
   xmlns:svg="http://www.w3.org/2000/svg"
   xmlns="http://www.w3.org/2000/svg"
   xmlns:sodipodi="http://sodipodi.sourceforge.net/DTD/sodipodi-0.dtd"
   xmlns:inkscape="http://www.inkscape.org/namespaces/inkscape"
   style="font-size:12px;font-style:normal;font-weight:normal;fill:#000000;fill-opacity:1;stroke:#000000;stroke-width:1;stroke-linecap:square;stroke-linejoin:miter;stroke-miterlimit:10;stroke-dasharray:none;stroke-dashoffset:0;stroke-opacity:1;font-family:Dialog"
   width="625.97754"
   height="504.81494"
   id="svg2"
   sodipodi:version="0.32"
   inkscape:version="0.46"
   sodipodi:docname="Actors overview.svg"
   inkscape:output_extension="org.inkscape.output.svg.inkscape"
   version="1.0">
  <metadata
     id="metadata259">
    <rdf:RDF>
      <cc:Work
         rdf:about="">
        <dc:format>image/svg+xml</dc:format>
        <dc:type
           rdf:resource="http://purl.org/dc/dcmitype/StillImage" />
      </cc:Work>
    </rdf:RDF>
  </metadata>
  <sodipodi:namedview
     inkscape:window-height="765"
     inkscape:window-width="772"
     inkscape:pageshadow="2"
     inkscape:pageopacity="0.0"
     guidetolerance="10.0"
     gridtolerance="10.0"
     objecttolerance="10.0"
     borderopacity="1.0"
     bordercolor="#666666"
     pagecolor="#ffffff"
     id="base"
     showgrid="false"
     inkscape:zoom="0.79792746"
     inkscape:cx="340.5"
     inkscape:cy="289.5"
     inkscape:window-x="499"
     inkscape:window-y="75"
     inkscape:current-layer="g5" />
<!--Generated by the Batik Graphics2D SVG Generator-->  <defs
     id="genericDefs">
    <inkscape:perspective
       sodipodi:type="inkscape:persp3d"
       inkscape:vp_x="0 : 289.5 : 1"
       inkscape:vp_y="0 : 1000 : 0"
       inkscape:vp_z="681 : 289.5 : 1"
       inkscape:persp3d-origin="340.5 : 193 : 1"
       id="perspective261" />
  </defs>
  <g
     id="g5"
     transform="translate(-44.494141,-69.5)">
    <defs
       id="defs1">
      <clipPath
         clipPathUnits="userSpaceOnUse"
         id="clipPath1">
        <path
           d="M -3,-3 L 37,-3 L 37,67 L -3,67 L -3,-3 z"
           id="path9" />
      </clipPath>
      <clipPath
         clipPathUnits="userSpaceOnUse"
         id="clipPath2">
        <path
           d="M -3,-3 L 277,-3 L 277,47 L -3,47 L -3,-3 z"
           id="path12" />
      </clipPath>
      <clipPath
         clipPathUnits="userSpaceOnUse"
         id="clipPath3">
        <path
           d="M 0,0 L 0,40 L 270,40 L 270,0 L 0,0 z"
           id="path15" />
      </clipPath>
      <clipPath
         clipPathUnits="userSpaceOnUse"
         id="clipPath4">
        <path
           d="M 0,0 L 146,0 L 146,14 L 0,14 L 0,0 z"
           id="path18" />
      </clipPath>
      <clipPath
         clipPathUnits="userSpaceOnUse"
         id="clipPath5">
        <path
           d="M 0,0 L 43,0 L 43,16 L 0,16 L 0,0 z"
           id="path21" />
      </clipPath>
      <clipPath
         clipPathUnits="userSpaceOnUse"
         id="clipPath6">
        <path
           d="M 0,0 L 107,0 L 107,16 L 0,16 L 0,0 z"
           id="path24" />
      </clipPath>
      <clipPath
         clipPathUnits="userSpaceOnUse"
         id="clipPath7">
        <path
           d="M 0,0 L 97,0 L 97,16 L 0,16 L 0,0 z"
           id="path27" />
      </clipPath>
      <clipPath
         clipPathUnits="userSpaceOnUse"
         id="clipPath8">
        <path
           d="M 0,0 L 136,0 L 136,16 L 0,16 L 0,0 z"
           id="path30" />
      </clipPath>
      <clipPath
         clipPathUnits="userSpaceOnUse"
         id="clipPath9">
        <path
           d="M 0,0 L 120,0 L 120,16 L 0,16 L 0,0 z"
           id="path33" />
      </clipPath>
      <clipPath
         clipPathUnits="userSpaceOnUse"
         id="clipPath10">
        <path
           d="M 0,0 L 82,0 L 82,16 L 0,16 L 0,0 z"
           id="path36" />
      </clipPath>
      <clipPath
         clipPathUnits="userSpaceOnUse"
         id="clipPath11">
        <path
           d="M 0,0 L 148,0 L 148,139 L 0,139 L 0,0 z"
           id="path39" />
      </clipPath>
      <clipPath
         clipPathUnits="userSpaceOnUse"
         id="clipPath12">
        <path
           d="M 0,0 L 149,0 L 149,139 L 0,139 L 0,0 z"
           id="path42" />
      </clipPath>
      <clipPath
         clipPathUnits="userSpaceOnUse"
         id="clipPath13">
        <path
           d="M 0,0 L 142,0 L 142,139 L 0,139 L 0,0 z"
           id="path45" />
      </clipPath>
      <clipPath
         clipPathUnits="userSpaceOnUse"
         id="clipPath14">
        <path
           d="M 0,0 L 184,0 L 184,115 L 0,115 L 0,0 z"
           id="path48" />
      </clipPath>
      <clipPath
         clipPathUnits="userSpaceOnUse"
         id="clipPath15">
        <path
           d="M 0,0 L 150,0 L 150,139 L 0,139 L 0,0 z"
           id="path51" />
      </clipPath>
      <clipPath
         clipPathUnits="userSpaceOnUse"
         id="clipPath16">
        <path
           d="M 0,0 L 66,0 L 66,14 L 0,14 L 0,0 z"
           id="path54" />
      </clipPath>
    </defs>
    <g
       transform="translate(60,70)"
       style="font-size:11px;fill:#ffffff;stroke:#ffffff;font-family:sans-serif"
       id="g60">
      <circle
         style="stroke:none"
         r="7.5"
         cx="14.5"
         cy="7.5"
         id="circle62"
         sodipodi:cx="14.5"
         sodipodi:cy="7.5"
         sodipodi:rx="7.5"
         sodipodi:ry="7.5" />
    </g>
    <g
       transform="translate(60,70)"
       style="font-size:11px;stroke-linecap:butt;stroke-linejoin:round;stroke-miterlimit:0;font-family:sans-serif"
       id="g64">
      <circle
         style="fill:none"
         r="7.5"
         cx="14.5"
         cy="7.5"
         id="circle66"
         sodipodi:cx="14.5"
         sodipodi:cy="7.5"
         sodipodi:rx="7.5"
         sodipodi:ry="7.5" />
      <line
         x1="15"
         x2="15"
         y1="15"
         style="fill:none"
         y2="40"
         id="line68" />
      <line
         x1="0"
         x2="30"
         y1="24"
         style="fill:none"
         y2="24"
         id="line70" />
      <line
         x1="15"
         x2="0"
         y1="40"
         style="fill:none"
         y2="60"
         id="line72" />
      <line
         x1="15"
         x2="30"
         y1="40"
         style="fill:none"
         y2="60"
         id="line74" />
    </g>
    <g
       transform="translate(160,180)"
       style="font-size:11px;fill:#ffffff;stroke:#ffffff;font-family:sans-serif"
       id="g76">
      <circle
         style="stroke:none"
         r="7.5"
         cx="14.5"
         cy="7.5"
         id="circle78"
         sodipodi:cx="14.5"
         sodipodi:cy="7.5"
         sodipodi:rx="7.5"
         sodipodi:ry="7.5" />
    </g>
    <g
       transform="translate(160,180)"
       style="font-size:11px;stroke-linecap:butt;stroke-linejoin:round;stroke-miterlimit:0;font-family:sans-serif"
       id="g80">
      <circle
         style="fill:none"
         r="7.5"
         cx="14.5"
         cy="7.5"
         id="circle82"
         sodipodi:cx="14.5"
         sodipodi:cy="7.5"
         sodipodi:rx="7.5"
         sodipodi:ry="7.5" />
      <line
         x1="15"
         x2="15"
         y1="15"
         style="fill:none"
         y2="40"
         id="line84" />
      <line
         x1="0"
         x2="30"
         y1="24"
         style="fill:none"
         y2="24"
         id="line86" />
      <line
         x1="15"
         x2="0"
         y1="40"
         style="fill:none"
         y2="60"
         id="line88" />
      <line
         x1="15"
         x2="30"
         y1="40"
         style="fill:none"
         y2="60"
         id="line90" />
    </g>
    <g
       transform="translate(280,280)"
       style="font-size:11px;fill:#ffffff;stroke:#ffffff;font-family:sans-serif"
       id="g92">
      <circle
         style="stroke:none"
         r="7.5"
         cx="14.5"
         cy="7.5"
         id="circle94"
         sodipodi:cx="14.5"
         sodipodi:cy="7.5"
         sodipodi:rx="7.5"
         sodipodi:ry="7.5" />
    </g>
    <g
       transform="translate(280,280)"
       style="font-size:11px;stroke-linecap:butt;stroke-linejoin:round;stroke-miterlimit:0;font-family:sans-serif"
       id="g96">
      <circle
         style="fill:none"
         r="7.5"
         cx="14.5"
         cy="7.5"
         id="circle98"
         sodipodi:cx="14.5"
         sodipodi:cy="7.5"
         sodipodi:rx="7.5"
         sodipodi:ry="7.5" />
      <line
         x1="15"
         x2="15"
         y1="15"
         style="fill:none"
         y2="40"
         id="line100" />
      <line
         x1="0"
         x2="30"
         y1="24"
         style="fill:none"
         y2="24"
         id="line102" />
      <line
         x1="15"
         x2="0"
         y1="40"
         style="fill:none"
         y2="60"
         id="line104" />
      <line
         x1="15"
         x2="30"
         y1="40"
         style="fill:none"
         y2="60"
         id="line106" />
    </g>
    <g
       transform="translate(400,390)"
       style="font-size:11px;fill:#ffffff;stroke:#ffffff;font-family:sans-serif"
       id="g108">
      <circle
         style="stroke:none"
         r="7.5"
         cx="14.5"
         cy="7.5"
         id="circle110"
         sodipodi:cx="14.5"
         sodipodi:cy="7.5"
         sodipodi:rx="7.5"
         sodipodi:ry="7.5" />
    </g>
    <g
       transform="translate(400,390)"
       style="font-size:11px;stroke-linecap:butt;stroke-linejoin:round;stroke-miterlimit:0;font-family:sans-serif"
       id="g112">
      <circle
         style="fill:none"
         r="7.5"
         cx="14.5"
         cy="7.5"
         id="circle114"
         sodipodi:cx="14.5"
         sodipodi:cy="7.5"
         sodipodi:rx="7.5"
         sodipodi:ry="7.5" />
      <line
         x1="15"
         x2="15"
         y1="15"
         style="fill:none"
         y2="40"
         id="line116" />
      <line
         x1="0"
         x2="30"
         y1="24"
         style="fill:none"
         y2="24"
         id="line118" />
      <line
         x1="15"
         x2="0"
         y1="40"
         style="fill:none"
         y2="60"
         id="line120" />
      <line
         x1="15"
         x2="30"
         y1="40"
         style="fill:none"
         y2="60"
         id="line122" />
    </g>
    <g
       transform="translate(610,500)"
       style="font-size:11px;fill:#ffffff;stroke:#ffffff;font-family:sans-serif"
       id="g124">
      <circle
         style="stroke:none"
         r="7.5"
         cx="14.5"
         cy="7.5"
         id="circle126"
         sodipodi:cx="14.5"
         sodipodi:cy="7.5"
         sodipodi:rx="7.5"
         sodipodi:ry="7.5" />
    </g>
    <g
       transform="translate(610,500)"
       style="font-size:11px;stroke-linecap:butt;stroke-linejoin:round;stroke-miterlimit:0;font-family:sans-serif"
       id="g128">
      <circle
         style="fill:none"
         r="7.5"
         cx="14.5"
         cy="7.5"
         id="circle130"
         sodipodi:cx="14.5"
         sodipodi:cy="7.5"
         sodipodi:rx="7.5"
         sodipodi:ry="7.5" />
      <line
         x1="15"
         x2="15"
         y1="15"
         style="fill:none"
         y2="40"
         id="line132" />
      <line
         x1="0"
         x2="30"
         y1="24"
         style="fill:none"
         y2="24"
         id="line134" />
      <line
         x1="15"
         x2="0"
         y1="40"
         style="fill:none"
         y2="60"
         id="line136" />
      <line
         x1="15"
         x2="30"
         y1="40"
         style="fill:none"
         y2="60"
         id="line138" />
    </g>
    <g
       transform="translate(510,500)"
       style="font-size:11px;fill:#ffffff;stroke:#ffffff;font-family:sans-serif"
       id="g140">
      <circle
         style="stroke:none"
         r="7.5"
         cx="14.5"
         cy="7.5"
         id="circle142"
         sodipodi:cx="14.5"
         sodipodi:cy="7.5"
         sodipodi:rx="7.5"
         sodipodi:ry="7.5" />
    </g>
    <g
       transform="translate(510,500)"
       style="font-size:11px;stroke-linecap:butt;stroke-linejoin:round;stroke-miterlimit:0;font-family:sans-serif"
       id="g144">
      <circle
         style="fill:none"
         r="7.5"
         cx="14.5"
         cy="7.5"
         id="circle146"
         sodipodi:cx="14.5"
         sodipodi:cy="7.5"
         sodipodi:rx="7.5"
         sodipodi:ry="7.5" />
      <line
         x1="15"
         x2="15"
         y1="15"
         style="fill:none"
         y2="40"
         id="line148" />
      <line
         x1="0"
         x2="30"
         y1="24"
         style="fill:none"
         y2="24"
         id="line150" />
      <line
         x1="15"
         x2="0"
         y1="40"
         style="fill:none"
         y2="60"
         id="line152" />
      <line
         x1="15"
         x2="30"
         y1="40"
         style="fill:none"
         y2="60"
         id="line154" />
    </g>
    <g
       transform="translate(490,190)"
       style="font-size:11px;fill:#ffffff;stroke:#ffffff;font-family:sans-serif"
       id="g164">
      <circle
         style="stroke:none"
         r="7.5"
         cx="14.5"
         cy="7.5"
         id="circle166"
         sodipodi:cx="14.5"
         sodipodi:cy="7.5"
         sodipodi:rx="7.5"
         sodipodi:ry="7.5" />
    </g>
    <g
       transform="translate(490,190)"
       style="font-size:11px;stroke-linecap:butt;stroke-linejoin:round;stroke-miterlimit:0;font-family:sans-serif"
       id="g168">
      <circle
         style="fill:none"
         r="7.5"
         cx="14.5"
         cy="7.5"
         id="circle170"
         sodipodi:cx="14.5"
         sodipodi:cy="7.5"
         sodipodi:rx="7.5"
         sodipodi:ry="7.5" />
      <line
         x1="15"
         x2="15"
         y1="15"
         style="fill:none"
         y2="40"
         id="line172" />
      <line
         x1="0"
         x2="30"
         y1="24"
         style="fill:none"
         y2="24"
         id="line174" />
      <line
         x1="15"
         x2="0"
         y1="40"
         style="fill:none"
         y2="60"
         id="line176" />
      <line
         x1="15"
         x2="30"
         y1="40"
         style="fill:none"
         y2="60"
         id="line178" />
    </g>
    <g
       style="font-size:11px;font-family:sans-serif"
       transform="translate(432,250)"
       id="g180">
      <text
         x="10"
         y="12"
         style="stroke:none"
         xml:space="preserve"
         id="text182">System Maintenance Task</text>
    </g>
    <g
       style="font-size:11px;font-family:sans-serif"
       transform="translate(504,560)"
       id="g184">
      <text
         x="10"
         y="12"
         style="stroke:none"
         xml:space="preserve"
         id="text186">User</text>
    </g>
    <g
       style="font-size:11px;font-family:sans-serif"
       transform="translate(572,560)"
       id="g188">
      <text
         x="9"
         y="12"
         style="stroke:none"
         xml:space="preserve"
         id="text190">Unregistered User</text>
    </g>
    <g
       style="font-size:11px;font-family:sans-serif"
       transform="translate(367,450)"
       id="g192">
      <text
         x="9"
         y="12"
         style="stroke:none"
         xml:space="preserve"
         id="text194">Registered User</text>
    </g>
    <g
       style="font-size:11px;font-family:sans-serif"
       transform="translate(227,340)"
       id="g196">
      <text
         x="28"
         y="12"
         style="stroke:none"
         xml:space="preserve"
         id="text198">Workflow Admin</text>
    </g>
    <g
       style="font-size:11px;font-family:sans-serif"
       transform="translate(115,240)"
       id="g200">
      <text
         x="27"
         y="12"
         style="stroke:none"
         xml:space="preserve"
         id="text202">Tenant Admin</text>
    </g>
    <g
       style="font-size:11px;font-family:sans-serif"
       transform="translate(34,130)"
       id="g204">
      <text
         x="10"
         y="12"
         style="stroke:none"
         xml:space="preserve"
         id="text206">Super Admin</text>
    </g>
    <g
       transform="translate(66,95)"
       style="font-size:11px;stroke-linecap:butt;stroke-linejoin:round;font-family:sans-serif"
       id="g208">
      <line
         x1="94"
         x2="50"
         y1="85"
         style="fill:none"
         y2="50"
         id="line210" />
      <polygon
         style="fill:#ffffff;stroke:none"
         points="94,85 88,72 81,82 94,85 "
         id="polygon212" />
      <polygon
         style="fill:none"
         points="94,85 88,72 81,82 94,85 "
         id="polygon214" />
    </g>
    <g
       transform="translate(185,205)"
       style="font-size:11px;stroke-linecap:butt;stroke-linejoin:round;font-family:sans-serif"
       id="g216">
      <line
         x1="95"
         x2="50"
         y1="85"
         style="fill:none"
         y2="50"
         id="line218" />
      <polygon
         style="fill:#ffffff;stroke:none"
         points="95,85 89,73 82,83 95,85 "
         id="polygon220" />
      <polygon
         style="fill:none"
         points="95,85 89,73 82,83 95,85 "
         id="polygon222" />
    </g>
    <g
       transform="translate(312,305)"
       style="font-size:11px;stroke-linecap:butt;stroke-linejoin:round;font-family:sans-serif"
       id="g224">
      <line
         x1="88"
         x2="50"
         y1="85"
         style="fill:none"
         y2="50"
         id="line226" />
      <polygon
         style="fill:#ffffff;stroke:none"
         points="88,85 83,73 75,82 88,85 "
         id="polygon228" />
      <polygon
         style="fill:none"
         points="88,85 83,73 75,82 88,85 "
         id="polygon230" />
    </g>
    <g
       transform="translate(484,484)"
       style="font-size:11px;stroke-linecap:butt;stroke-linejoin:round;font-family:sans-serif"
       id="g232">
      <line
         x1="56"
         x2="124"
         y1="56"
         style="fill:none"
         y2="56"
         id="line234" />
      <polygon
         style="fill:#ffffff;stroke:none"
         points="56,56 68,62 68,50 56,56 "
         id="polygon236" />
      <polygon
         style="fill:none"
         points="56,56 68,62 68,50 56,56 "
         id="polygon238" />
    </g>
    <g
       transform="translate(414,415)"
       style="font-size:11px;stroke-linecap:butt;stroke-linejoin:round;font-family:sans-serif"
       id="g240">
      <line
         x1="96"
         x2="50"
         y1="85"
         style="fill:none"
         y2="50"
         id="line242" />
      <polygon
         style="fill:#ffffff;stroke:none"
         points="96,85 90,73 83,83 96,85 "
         id="polygon244" />
      <polygon
         style="fill:none"
         points="96,85 90,73 83,83 96,85 "
         id="polygon246" />
    </g>
    <g
       transform="translate(538,520)"
       style="font-size:11px;fill:#ffffff;stroke:#ffffff;font-family:sans-serif"
       id="g248">
      <text
         x="9"
         y="12"
         style="stroke:none"
         xml:space="preserve"
         id="text250">buttsecks</text>
    </g>
  </g>
</svg>
