<?xml version="1.0" encoding="UTF-8" standalone="no"?>
<svg
   xmlns:dc="http://purl.org/dc/elements/1.1/"
   xmlns:cc="http://creativecommons.org/ns#"
   xmlns:rdf="http://www.w3.org/1999/02/22-rdf-syntax-ns#"
   xmlns:svg="http://www.w3.org/2000/svg"
   xmlns="http://www.w3.org/2000/svg"
   xmlns:sodipodi="http://sodipodi.sourceforge.net/DTD/sodipodi-0.dtd"
   xmlns:inkscape="http://www.inkscape.org/namespaces/inkscape"
   style="font-size:12px;font-style:normal;font-weight:normal;fill:#000000;fill-opacity:1;stroke:#000000;stroke-width:1;stroke-linecap:square;stroke-linejoin:miter;stroke-miterlimit:10;stroke-dasharray:none;stroke-dashoffset:0;stroke-opacity:1;font-family:Dialog"
   width="349.25684"
   height="332.63428"
   id="svg2"
   sodipodi:version="0.32"
   inkscape:version="0.46"
   sodipodi:docname="Actors overview.svg"
   inkscape:output_extension="org.inkscape.output.svg.inkscape"
   version="1.0">
  <metadata
     id="metadata231">
    <rdf:RDF>
      <cc:Work
         rdf:about="">
        <dc:format>image/svg+xml</dc:format>
        <dc:type
           rdf:resource="http://purl.org/dc/dcmitype/StillImage" />
      </cc:Work>
    </rdf:RDF>
  </metadata>
  <sodipodi:namedview
     inkscape:window-height="699"
     inkscape:window-width="927"
     inkscape:pageshadow="2"
     inkscape:pageopacity="0.0"
     guidetolerance="10.0"
     gridtolerance="10.0"
     objecttolerance="10.0"
     borderopacity="1.0"
     bordercolor="#666666"
     pagecolor="#ffffff"
     id="base"
     showgrid="false"
     inkscape:zoom="1.1295844"
     inkscape:cx="149.91532"
     inkscape:cy="173.9849"
     inkscape:window-x="461"
     inkscape:window-y="121"
     inkscape:current-layer="g5" />
<!--Generated by the Batik Graphics2D SVG Generator-->  <defs
     id="genericDefs">
    <inkscape:perspective
       sodipodi:type="inkscape:persp3d"
       inkscape:vp_x="0 : 204.5 : 1"
       inkscape:vp_y="0 : 1000 : 0"
       inkscape:vp_z="426 : 204.5 : 1"
       inkscape:persp3d-origin="213 : 136.33333 : 1"
       id="perspective233" />
  </defs>
  <g
     id="g5"
     transform="translate(-44.494141,-69.5)">
    <defs
       id="defs1">
      <clipPath
         clipPathUnits="userSpaceOnUse"
         id="clipPath1">
        <path
           d="M -3,-3 L 37,-3 L 37,67 L -3,67 L -3,-3 z"
           id="path9" />
      </clipPath>
      <clipPath
         clipPathUnits="userSpaceOnUse"
         id="clipPath2">
        <path
           d="M -3,-3 L 277,-3 L 277,47 L -3,47 L -3,-3 z"
           id="path12" />
      </clipPath>
      <clipPath
         clipPathUnits="userSpaceOnUse"
         id="clipPath3">
        <path
           d="M 0,0 L 0,40 L 270,40 L 270,0 L 0,0 z"
           id="path15" />
      </clipPath>
      <clipPath
         clipPathUnits="userSpaceOnUse"
         id="clipPath4">
        <path
           d="M 0,0 L 43,0 L 43,15 L 0,15 L 0,0 z"
           id="path18" />
      </clipPath>
      <clipPath
         clipPathUnits="userSpaceOnUse"
         id="clipPath5">
        <path
           d="M 0,0 L 108,0 L 108,15 L 0,15 L 0,0 z"
           id="path21" />
      </clipPath>
      <clipPath
         clipPathUnits="userSpaceOnUse"
         id="clipPath6">
        <path
           d="M 0,0 L 98,0 L 98,15 L 0,15 L 0,0 z"
           id="path24" />
      </clipPath>
      <clipPath
         clipPathUnits="userSpaceOnUse"
         id="clipPath7">
        <path
           d="M 0,0 L 134,0 L 134,15 L 0,15 L 0,0 z"
           id="path27" />
      </clipPath>
      <clipPath
         clipPathUnits="userSpaceOnUse"
         id="clipPath8">
        <path
           d="M 0,0 L 120,0 L 120,15 L 0,15 L 0,0 z"
           id="path30" />
      </clipPath>
      <clipPath
         clipPathUnits="userSpaceOnUse"
         id="clipPath9">
        <path
           d="M 0,0 L 82,0 L 82,15 L 0,15 L 0,0 z"
           id="path33" />
      </clipPath>
      <clipPath
         clipPathUnits="userSpaceOnUse"
         id="clipPath10">
        <path
           d="M 0,0 L 213,0 L 213,104 L 0,104 L 0,0 z"
           id="path36" />
      </clipPath>
      <clipPath
         clipPathUnits="userSpaceOnUse"
         id="clipPath11">
        <path
           d="M 0,0 L 214,0 L 214,104 L 0,104 L 0,0 z"
           id="path39" />
      </clipPath>
      <clipPath
         clipPathUnits="userSpaceOnUse"
         id="clipPath12">
        <path
           d="M 0,0 L 174,0 L 174,139 L 0,139 L 0,0 z"
           id="path42" />
      </clipPath>
      <clipPath
         clipPathUnits="userSpaceOnUse"
         id="clipPath13">
        <path
           d="M 0,0 L 104,0 L 104,178 L 0,178 L 0,0 z"
           id="path45" />
      </clipPath>
      <clipPath
         clipPathUnits="userSpaceOnUse"
         id="clipPath14">
        <path
           d="M 0,0 L 160,0 L 160,179 L 0,179 L 0,0 z"
           id="path48" />
      </clipPath>
    </defs>
    <g
       style="fill:#ffffff;stroke:#ffffff"
       id="g50">
      <rect
         x="0"
         y="0"
         width="426"
         style="stroke:none"
         height="409"
         id="rect52" />
    </g>
    <g
       transform="translate(60,70)"
       style="font-size:11px;fill:#c0c0c0;stroke:#c0c0c0;font-family:sans-serif"
       id="g54">
      <circle
         style="stroke:none"
         r="7.5"
         cx="14.5"
         cy="7.5"
         id="circle56"
         sodipodi:cx="14.5"
         sodipodi:cy="7.5"
         sodipodi:rx="7.5"
         sodipodi:ry="7.5" />
    </g>
    <g
       transform="translate(60,70)"
       style="font-size:11px;stroke-linecap:butt;stroke-linejoin:round;stroke-miterlimit:0;font-family:sans-serif"
       id="g58">
      <circle
         style="fill:none"
         r="7.5"
         cx="14.5"
         cy="7.5"
         id="circle60"
         sodipodi:cx="14.5"
         sodipodi:cy="7.5"
         sodipodi:rx="7.5"
         sodipodi:ry="7.5" />
      <line
         x1="15"
         x2="15"
         y1="15"
         style="fill:none"
         y2="40"
         id="line62" />
      <line
         x1="0"
         x2="30"
         y1="24"
         style="fill:none"
         y2="24"
         id="line64" />
      <line
         x1="15"
         x2="0"
         y1="40"
         style="fill:none"
         y2="60"
         id="line66" />
      <line
         x1="15"
         x2="30"
         y1="40"
         style="fill:none"
         y2="60"
         id="line68" />
    </g>
    <g
       transform="translate(200,70)"
       style="font-size:11px;fill:#c0c0c0;stroke:#c0c0c0;font-family:sans-serif"
       id="g70">
      <circle
         style="stroke:none"
         r="7.5"
         cx="14.5"
         cy="7.5"
         id="circle72"
         sodipodi:cx="14.5"
         sodipodi:cy="7.5"
         sodipodi:rx="7.5"
         sodipodi:ry="7.5" />
    </g>
    <g
       transform="translate(200,70)"
       style="font-size:11px;stroke-linecap:butt;stroke-linejoin:round;stroke-miterlimit:0;font-family:sans-serif"
       id="g74">
      <circle
         style="fill:none"
         r="7.5"
         cx="14.5"
         cy="7.5"
         id="circle76"
         sodipodi:cx="14.5"
         sodipodi:cy="7.5"
         sodipodi:rx="7.5"
         sodipodi:ry="7.5" />
      <line
         x1="15"
         x2="15"
         y1="15"
         style="fill:none"
         y2="40"
         id="line78" />
      <line
         x1="0"
         x2="30"
         y1="24"
         style="fill:none"
         y2="24"
         id="line80" />
      <line
         x1="15"
         x2="0"
         y1="40"
         style="fill:none"
         y2="60"
         id="line82" />
      <line
         x1="15"
         x2="30"
         y1="40"
         style="fill:none"
         y2="60"
         id="line84" />
    </g>
    <g
       transform="translate(340,70)"
       style="font-size:11px;fill:#c0c0c0;stroke:#c0c0c0;font-family:sans-serif"
       id="g86">
      <circle
         style="stroke:none"
         r="7.5"
         cx="14.5"
         cy="7.5"
         id="circle88"
         sodipodi:cx="14.5"
         sodipodi:cy="7.5"
         sodipodi:rx="7.5"
         sodipodi:ry="7.5" />
    </g>
    <g
       transform="translate(340,70)"
       style="font-size:11px;stroke-linecap:butt;stroke-linejoin:round;stroke-miterlimit:0;font-family:sans-serif"
       id="g90">
      <circle
         style="fill:none"
         r="7.5"
         cx="14.5"
         cy="7.5"
         id="circle92"
         sodipodi:cx="14.5"
         sodipodi:cy="7.5"
         sodipodi:rx="7.5"
         sodipodi:ry="7.5" />
      <line
         x1="15"
         x2="15"
         y1="15"
         style="fill:none"
         y2="40"
         id="line94" />
      <line
         x1="0"
         x2="30"
         y1="24"
         style="fill:none"
         y2="24"
         id="line96" />
      <line
         x1="15"
         x2="0"
         y1="40"
         style="fill:none"
         y2="60"
         id="line98" />
      <line
         x1="15"
         x2="30"
         y1="40"
         style="fill:none"
         y2="60"
         id="line100" />
    </g>
    <g
       transform="translate(250,180)"
       style="font-size:11px;fill:#c0c0c0;stroke:#c0c0c0;font-family:sans-serif"
       id="g102">
      <circle
         style="stroke:none"
         r="7.5"
         cx="14.5"
         cy="7.5"
         id="circle104"
         sodipodi:cx="14.5"
         sodipodi:cy="7.5"
         sodipodi:rx="7.5"
         sodipodi:ry="7.5" />
    </g>
    <g
       transform="translate(250,180)"
       style="font-size:11px;stroke-linecap:butt;stroke-linejoin:round;stroke-miterlimit:0;font-family:sans-serif"
       id="g106">
      <circle
         style="fill:none"
         r="7.5"
         cx="14.5"
         cy="7.5"
         id="circle108"
         sodipodi:cx="14.5"
         sodipodi:cy="7.5"
         sodipodi:rx="7.5"
         sodipodi:ry="7.5" />
      <line
         x1="15"
         x2="15"
         y1="15"
         style="fill:none"
         y2="40"
         id="line110" />
      <line
         x1="0"
         x2="30"
         y1="24"
         style="fill:none"
         y2="24"
         id="line112" />
      <line
         x1="15"
         x2="0"
         y1="40"
         style="fill:none"
         y2="60"
         id="line114" />
      <line
         x1="15"
         x2="30"
         y1="40"
         style="fill:none"
         y2="60"
         id="line116" />
    </g>
    <g
       transform="translate(130,180)"
       style="font-size:11px;fill:#c0c0c0;stroke:#c0c0c0;font-family:sans-serif"
       id="g118">
      <circle
         style="stroke:none"
         r="7.5"
         cx="14.5"
         cy="7.5"
         id="circle120"
         sodipodi:cx="14.5"
         sodipodi:cy="7.5"
         sodipodi:rx="7.5"
         sodipodi:ry="7.5" />
    </g>
    <g
       transform="translate(130,180)"
       style="font-size:11px;stroke-linecap:butt;stroke-linejoin:round;stroke-miterlimit:0;font-family:sans-serif"
       id="g122">
      <circle
         style="fill:none"
         r="7.5"
         cx="14.5"
         cy="7.5"
         id="circle124"
         sodipodi:cx="14.5"
         sodipodi:cy="7.5"
         sodipodi:rx="7.5"
         sodipodi:ry="7.5" />
      <line
         x1="15"
         x2="15"
         y1="15"
         style="fill:none"
         y2="40"
         id="line126" />
      <line
         x1="0"
         x2="30"
         y1="24"
         style="fill:none"
         y2="24"
         id="line128" />
      <line
         x1="15"
         x2="0"
         y1="40"
         style="fill:none"
         y2="60"
         id="line130" />
      <line
         x1="15"
         x2="30"
         y1="40"
         style="fill:none"
         y2="60"
         id="line132" />
    </g>
    <g
       transform="translate(130,330)"
       style="font-size:11px;fill:#c0c0c0;stroke:#c0c0c0;font-family:sans-serif"
       id="g134">
      <circle
         style="stroke:none"
         r="7.5"
         cx="14.5"
         cy="7.5"
         id="circle136"
         sodipodi:cx="14.5"
         sodipodi:cy="7.5"
         sodipodi:rx="7.5"
         sodipodi:ry="7.5" />
    </g>
    <g
       transform="translate(130,330)"
       style="font-size:11px;stroke-linecap:butt;stroke-linejoin:round;stroke-miterlimit:0;font-family:sans-serif"
       id="g138">
      <circle
         style="fill:none"
         r="7.5"
         cx="14.5"
         cy="7.5"
         id="circle140"
         sodipodi:cx="14.5"
         sodipodi:cy="7.5"
         sodipodi:rx="7.5"
         sodipodi:ry="7.5" />
      <line
         x1="15"
         x2="15"
         y1="15"
         style="fill:none"
         y2="40"
         id="line142" />
      <line
         x1="0"
         x2="30"
         y1="24"
         style="fill:none"
         y2="24"
         id="line144" />
      <line
         x1="15"
         x2="0"
         y1="40"
         style="fill:none"
         y2="60"
         id="line146" />
      <line
         x1="15"
         x2="30"
         y1="40"
         style="fill:none"
         y2="60"
         id="line148" />
    </g>
    <g
       style="font-size:11px;font-family:sans-serif"
       transform="translate(124,390)"
       id="g158">
      <text
         x="10"
         y="12"
         style="stroke:none"
         xml:space="preserve"
         id="text160">User</text>
    </g>
    <g
       style="font-size:11px;font-family:sans-serif"
       transform="translate(91,240)"
       id="g162">
      <text
         x="9"
         y="12"
         style="stroke:none"
         xml:space="preserve"
         id="text164">Unregistered User</text>
    </g>
    <g
       style="font-size:11px;font-family:sans-serif"
       transform="translate(216,240)"
       id="g166">
      <text
         x="10"
         y="12"
         style="stroke:none"
         xml:space="preserve"
         id="text168">Registered User</text>
    </g>
    <g
       style="font-size:11px;font-family:sans-serif"
       transform="translate(288,130)"
       id="g170">
      <text
         x="27"
         y="12"
         style="stroke:none"
         xml:space="preserve"
         id="text172">Workflow Admin</text>
    </g>
    <g
       style="font-size:11px;font-family:sans-serif"
       transform="translate(155,130)"
       id="g174">
      <text
         x="27"
         y="12"
         style="stroke:none"
         xml:space="preserve"
         id="text176">Tenant Admin</text>
    </g>
    <g
       style="font-size:11px;font-family:sans-serif"
       transform="translate(34,130)"
       id="g178">
      <text
         x="10"
         y="12"
         style="stroke:none"
         xml:space="preserve"
         id="text180">Super Admin</text>
    </g>
    <g
       transform="translate(40,30)"
       style="font-size:11px;stroke-linecap:butt;stroke-linejoin:round;font-family:sans-serif"
       id="g182">
      <line
         x1="159"
         x2="50"
         y1="50"
         style="fill:none"
         y2="50"
         id="line184" />
      <polygon
         style="fill:#ffffff;stroke:none"
         points="159,50 147,44 147,56 159,50 "
         id="polygon186" />
      <polygon
         style="fill:none"
         points="159,50 147,44 147,56 159,50 "
         id="polygon188" />
    </g>
    <g
       transform="translate(180,30)"
       style="font-size:11px;stroke-linecap:butt;stroke-linejoin:round;font-family:sans-serif"
       id="g190">
      <line
         x1="160"
         x2="50"
         y1="50"
         style="fill:none"
         y2="50"
         id="line192" />
      <polygon
         style="fill:#ffffff;stroke:none"
         points="160,50 148,44 148,56 160,50 "
         id="polygon194" />
      <polygon
         style="fill:none"
         points="160,50 148,44 148,56 160,50 "
         id="polygon196" />
    </g>
    <g
       transform="translate(230,95)"
       style="font-size:11px;stroke-linecap:butt;stroke-linejoin:round;font-family:sans-serif"
       id="g198">
      <line
         x1="50"
         x2="120"
         y1="85"
         style="fill:none"
         y2="55"
         id="line200" />
      <line
         x1="120"
         x2="120"
         y1="55"
         style="fill:none"
         y2="50"
         id="line202" />
      <polygon
         style="fill:#ffffff;stroke:none"
         points="50,85 62,86 57,75 50,85 "
         id="polygon204" />
      <polygon
         style="fill:none"
         points="50,85 62,86 57,75 50,85 "
         id="polygon206" />
    </g>
    <g
       transform="translate(90,205)"
       style="font-size:11px;stroke-linecap:butt;stroke-linejoin:round;font-family:sans-serif"
       id="g208">
      <line
         x1="50"
         x2="50"
         y1="124"
         style="fill:none"
         y2="50"
         id="line210" />
      <polygon
         style="fill:#ffffff;stroke:none"
         points="50,124 56,112 44,112 50,124 "
         id="polygon212" />
      <polygon
         style="fill:none"
         points="50,124 56,112 44,112 50,124 "
         id="polygon214" />
    </g>
    <g
       transform="translate(110,205)"
       style="font-size:11px;stroke-linecap:butt;stroke-linejoin:round;font-family:sans-serif"
       id="g216">
      <line
         x1="50"
         x2="106"
         y1="125"
         style="fill:none"
         y2="50"
         id="line218" />
      <polygon
         style="fill:#ffffff;stroke:none"
         points="50,125 61,119 51,112 50,125 "
         id="polygon220" />
      <polygon
         style="fill:none"
         points="50,125 61,119 51,112 50,125 "
         id="polygon222" />
    </g>
  </g>
</svg>
