<?xml version="1.0" encoding="UTF-8"?>

<!DOCTYPE svg PUBLIC '-//W3C//DTD SVG 1.0//EN' 'http://www.w3.org/TR/2001/REC-SVG-20010904/DTD/svg10.dtd'>
<svg style="fill-opacity:1; color-rendering:auto; color-interpolation:auto; text-rendering:auto; stroke:black; stroke-linecap:square; stroke-miterlimit:10; shape-rendering:auto; stroke-opacity:1; fill:black; stroke-dasharray:none; font-weight:normal; stroke-width:1; font-family:&apos;Dialog&apos;; font-style:normal; stroke-linejoin:miter; font-size:12; stroke-dashoffset:0; image-rendering:auto;" xmlns="http://www.w3.org/2000/svg" width="774" xmlns:xlink="http://www.w3.org/1999/xlink" height="874">
  <!--Generated by the Batik Graphics2D SVG Generator-->
  <defs id="genericDefs" />
  <g>
    <defs id="defs1">
      <clipPath clipPathUnits="userSpaceOnUse" id="clipPath1">
        <path d="M-3 -3 L677 -3 L677 807 L-3 807 L-3 -3 Z" />
      </clipPath>
      <clipPath clipPathUnits="userSpaceOnUse" id="clipPath2">
        <path d="M-3 -3 L607 -3 L607 747 L-3 747 L-3 -3 Z" />
      </clipPath>
      <clipPath clipPathUnits="userSpaceOnUse" id="clipPath3">
        <path d="M-3 -3 L547 -3 L547 687 L-3 687 L-3 -3 Z" />
      </clipPath>
      <clipPath clipPathUnits="userSpaceOnUse" id="clipPath4">
        <path d="M-3 -3 L37 -3 L37 67 L-3 67 L-3 -3 Z" />
      </clipPath>
      <clipPath clipPathUnits="userSpaceOnUse" id="clipPath5">
        <path d="M-3 -3 L87 -3 L87 47 L-3 47 L-3 -3 Z" />
      </clipPath>
      <clipPath clipPathUnits="userSpaceOnUse" id="clipPath6">
        <path d="M-3 -3 L127 -3 L127 47 L-3 47 L-3 -3 Z" />
      </clipPath>
      <clipPath clipPathUnits="userSpaceOnUse" id="clipPath7">
        <path d="M-3 -3 L177 -3 L177 47 L-3 47 L-3 -3 Z" />
      </clipPath>
      <clipPath clipPathUnits="userSpaceOnUse" id="clipPath8">
        <path d="M-3 -3 L97 -3 L97 47 L-3 47 L-3 -3 Z" />
      </clipPath>
      <clipPath clipPathUnits="userSpaceOnUse" id="clipPath9">
        <path d="M-3 -3 L107 -3 L107 47 L-3 47 L-3 -3 Z" />
      </clipPath>
      <clipPath clipPathUnits="userSpaceOnUse" id="clipPath10">
        <path d="M-3 -3 L217 -3 L217 47 L-3 47 L-3 -3 Z" />
      </clipPath>
      <clipPath clipPathUnits="userSpaceOnUse" id="clipPath11">
        <path d="M-3 -3 L117 -3 L117 47 L-3 47 L-3 -3 Z" />
      </clipPath>
      <clipPath clipPathUnits="userSpaceOnUse" id="clipPath12">
        <path d="M-3 -3 L277 -3 L277 47 L-3 47 L-3 -3 Z" />
      </clipPath>
      <clipPath clipPathUnits="userSpaceOnUse" id="clipPath13">
        <path d="M0 0 L0 40 L270 40 L270 0 Z" />
      </clipPath>
      <clipPath clipPathUnits="userSpaceOnUse" id="clipPath14">
        <path d="M0 0 L80 0 L80 40 L0 40 L0 0 Z" />
      </clipPath>
      <clipPath clipPathUnits="userSpaceOnUse" id="clipPath15">
        <path d="M0 0 L120 0 L120 40 L0 40 L0 0 Z" />
      </clipPath>
      <clipPath clipPathUnits="userSpaceOnUse" id="clipPath16">
        <path d="M0 0 L170 0 L170 40 L0 40 L0 0 Z" />
      </clipPath>
      <clipPath clipPathUnits="userSpaceOnUse" id="clipPath17">
        <path d="M0 0 L90 0 L90 40 L0 40 L0 0 Z" />
      </clipPath>
      <clipPath clipPathUnits="userSpaceOnUse" id="clipPath18">
        <path d="M0 0 L100 0 L100 40 L0 40 L0 0 Z" />
      </clipPath>
      <clipPath clipPathUnits="userSpaceOnUse" id="clipPath19">
        <path d="M0 0 L210 0 L210 40 L0 40 L0 0 Z" />
      </clipPath>
      <clipPath clipPathUnits="userSpaceOnUse" id="clipPath20">
        <path d="M0 0 L110 0 L110 40 L0 40 L0 0 Z" />
      </clipPath>
      <clipPath clipPathUnits="userSpaceOnUse" id="clipPath21">
        <path d="M0 0 L89 0 L89 19 L0 19 L0 0 Z" />
      </clipPath>
      <clipPath clipPathUnits="userSpaceOnUse" id="clipPath22">
        <path d="M0 0 L100 0 L100 19 L0 19 L0 0 Z" />
      </clipPath>
      <clipPath clipPathUnits="userSpaceOnUse" id="clipPath23">
        <path d="M0 0 L99 0 L99 19 L0 19 L0 0 Z" />
      </clipPath>
      <clipPath clipPathUnits="userSpaceOnUse" id="clipPath24">
        <path d="M0 0 L49 0 L49 19 L0 19 L0 0 Z" />
      </clipPath>
      <clipPath clipPathUnits="userSpaceOnUse" id="clipPath25">
        <path d="M0 0 L600 0 L600 21 L0 21 L0 0 Z" />
      </clipPath>
      <clipPath clipPathUnits="userSpaceOnUse" id="clipPath26">
        <path d="M0 0 L540 0 L540 21 L0 21 L0 0 Z" />
      </clipPath>
      <clipPath clipPathUnits="userSpaceOnUse" id="clipPath27">
        <path d="M0 0 L670 0 L670 21 L0 21 L0 0 Z" />
      </clipPath>
      <clipPath clipPathUnits="userSpaceOnUse" id="clipPath28">
        <path d="M0 0 L146 0 L146 189 L0 189 L0 0 Z" />
      </clipPath>
      <clipPath clipPathUnits="userSpaceOnUse" id="clipPath29">
        <path d="M0 0 L146 0 L146 196 L0 196 L0 0 Z" />
      </clipPath>
      <clipPath clipPathUnits="userSpaceOnUse" id="clipPath30">
        <path d="M0 0 L146 0 L146 216 L0 216 L0 0 Z" />
      </clipPath>
      <clipPath clipPathUnits="userSpaceOnUse" id="clipPath31">
        <path d="M0 0 L274 0 L274 246 L0 246 L0 0 Z" />
      </clipPath>
      <clipPath clipPathUnits="userSpaceOnUse" id="clipPath32">
        <path d="M0 0 L282 0 L282 143 L0 143 L0 0 Z" />
      </clipPath>
      <clipPath clipPathUnits="userSpaceOnUse" id="clipPath33">
        <path d="M0 0 L146 0 L146 218 L0 218 L0 0 Z" />
      </clipPath>
      <clipPath clipPathUnits="userSpaceOnUse" id="clipPath34">
        <path d="M0 0 L375 0 L375 454 L0 454 L0 0 Z" />
      </clipPath>
      <clipPath clipPathUnits="userSpaceOnUse" id="clipPath35">
        <path d="M0 0 L562 0 L562 454 L0 454 L0 0 Z" />
      </clipPath>
      <clipPath clipPathUnits="userSpaceOnUse" id="clipPath36">
        <path d="M0 0 L573 0 L573 104 L0 104 L0 0 Z" />
      </clipPath>
      <clipPath clipPathUnits="userSpaceOnUse" id="clipPath37">
        <path d="M0 0 L597 0 L597 146 L0 146 L0 0 Z" />
      </clipPath>
      <clipPath clipPathUnits="userSpaceOnUse" id="clipPath38">
        <path d="M0 0 L146 0 L146 211 L0 211 L0 0 Z" />
      </clipPath>
      <clipPath clipPathUnits="userSpaceOnUse" id="clipPath39">
        <path d="M0 0 L594 0 L594 242 L0 242 L0 0 Z" />
      </clipPath>
      <clipPath clipPathUnits="userSpaceOnUse" id="clipPath40">
        <path d="M0 0 L591 0 L591 141 L0 141 L0 0 Z" />
      </clipPath>
      <clipPath clipPathUnits="userSpaceOnUse" id="clipPath41">
        <path d="M0 0 L146 0 L146 206 L0 206 L0 0 Z" />
      </clipPath>
      <clipPath clipPathUnits="userSpaceOnUse" id="clipPath42">
        <path d="M0 0 L441 0 L441 127 L0 127 L0 0 Z" />
      </clipPath>
      <clipPath clipPathUnits="userSpaceOnUse" id="clipPath43">
        <path d="M0 0 L442 0 L442 147 L0 147 L0 0 Z" />
      </clipPath>
      <clipPath clipPathUnits="userSpaceOnUse" id="clipPath44">
        <path d="M0 0 L442 0 L442 243 L0 243 L0 0 Z" />
      </clipPath>
      <clipPath clipPathUnits="userSpaceOnUse" id="clipPath45">
        <path d="M0 0 L434 0 L434 142 L0 142 L0 0 Z" />
      </clipPath>
      <clipPath clipPathUnits="userSpaceOnUse" id="clipPath46">
        <path d="M0 0 L146 0 L146 212 L0 212 L0 0 Z" />
      </clipPath>
      <clipPath clipPathUnits="userSpaceOnUse" id="clipPath47">
        <path d="M0 0 L260 0 L260 104 L0 104 L0 0 Z" />
      </clipPath>
      <clipPath clipPathUnits="userSpaceOnUse" id="clipPath48">
        <path d="M0 0 L273 0 L273 149 L0 149 L0 0 Z" />
      </clipPath>
      <clipPath clipPathUnits="userSpaceOnUse" id="clipPath49">
        <path d="M0 0 L267 0 L267 224 L0 224 L0 0 Z" />
      </clipPath>
      <clipPath clipPathUnits="userSpaceOnUse" id="clipPath50">
        <path d="M0 0 L374 0 L374 353 L0 353 L0 0 Z" />
      </clipPath>
      <clipPath clipPathUnits="userSpaceOnUse" id="clipPath51">
        <path d="M0 0 L584 0 L584 384 L0 384 L0 0 Z" />
      </clipPath>
      <clipPath clipPathUnits="userSpaceOnUse" id="clipPath52">
        <path d="M0 0 L210 0 L210 461 L0 461 L0 0 Z" />
      </clipPath>
      <clipPath clipPathUnits="userSpaceOnUse" id="clipPath53">
        <path d="M0 0 L231 0 L231 359 L0 359 L0 0 Z" />
      </clipPath>
      <clipPath clipPathUnits="userSpaceOnUse" id="clipPath54">
        <path d="M0 0 L78 0 L78 15 L0 15 L0 0 Z" />
      </clipPath>
    </defs>
    <g style="fill:white; text-rendering:geometricPrecision; stroke:white;">
      <rect x="0" y="0" width="774" style="stroke:none;" height="874" />
    </g>
    <g transform="translate(100,70)" style="font-size:16; fill:white; text-rendering:geometricPrecision; font-family:sans-serif; stroke:white; font-weight:bold;">
      <rect x="0" y="0" width="669" style="clip-path:url(#clipPath1); stroke:none;" height="799" />
    </g>
    <g transform="translate(100,70)" style="stroke-linecap:butt; font-size:16; text-rendering:geometricPrecision; stroke-linejoin:round; font-family:sans-serif; font-weight:bold; stroke-miterlimit:0;">
      <rect x="0" y="0" width="669" style="clip-path:url(#clipPath1); fill:none;" height="799" />
    </g>
    <g transform="translate(140,100)" style="font-size:16; fill:white; text-rendering:geometricPrecision; font-family:sans-serif; stroke:white; font-weight:bold;">
      <rect x="0" y="0" width="599" style="clip-path:url(#clipPath2); stroke:none;" height="739" />
    </g>
    <g transform="translate(140,100)" style="stroke-linecap:butt; font-size:16; text-rendering:geometricPrecision; stroke-linejoin:round; font-family:sans-serif; font-weight:bold; stroke-miterlimit:0;">
      <rect x="0" y="0" width="599" style="clip-path:url(#clipPath2); fill:none;" height="739" />
    </g>
    <g transform="translate(170,130)" style="font-size:16; fill:white; text-rendering:geometricPrecision; font-family:sans-serif; stroke:white; font-weight:bold;">
      <rect x="0" y="0" width="539" style="clip-path:url(#clipPath3); stroke:none;" height="679" />
    </g>
    <g transform="translate(170,130)" style="stroke-linecap:butt; font-size:16; text-rendering:geometricPrecision; stroke-linejoin:round; font-family:sans-serif; font-weight:bold; stroke-miterlimit:0;">
      <rect x="0" y="0" width="539" style="clip-path:url(#clipPath3); fill:none;" height="679" />
    </g>
    <g transform="translate(30,710)" style="font-size:11; fill:white; text-rendering:geometricPrecision; font-family:sans-serif; stroke:white;">
      <circle style="clip-path:url(#clipPath4); stroke:none;" r="7.5" cx="14.5" cy="7.5" />
    </g>
    <g transform="translate(30,710)" style="stroke-linecap:butt; font-size:11; text-rendering:geometricPrecision; font-family:sans-serif; stroke-linejoin:round; stroke-miterlimit:0;">
      <circle style="fill:none; clip-path:url(#clipPath4);" r="7.5" cx="14.5" cy="7.5" />
      <line x1="15" x2="15" y1="15" style="clip-path:url(#clipPath4); fill:none;" y2="40" />
      <line x1="0" x2="30" y1="24" style="clip-path:url(#clipPath4); fill:none;" y2="24" />
      <line x1="15" x2="0" y1="40" style="clip-path:url(#clipPath4); fill:none;" y2="60" />
      <line x1="15" x2="30" y1="40" style="clip-path:url(#clipPath4); fill:none;" y2="60" />
    </g>
    <g transform="translate(30,590)" style="font-size:11; fill:white; text-rendering:geometricPrecision; font-family:sans-serif; stroke:white;">
      <circle style="clip-path:url(#clipPath4); stroke:none;" r="7.5" cx="14.5" cy="7.5" />
    </g>
    <g transform="translate(30,590)" style="stroke-linecap:butt; font-size:11; text-rendering:geometricPrecision; font-family:sans-serif; stroke-linejoin:round; stroke-miterlimit:0;">
      <circle style="fill:none; clip-path:url(#clipPath4);" r="7.5" cx="14.5" cy="7.5" />
      <line x1="15" x2="15" y1="15" style="clip-path:url(#clipPath4); fill:none;" y2="40" />
      <line x1="0" x2="30" y1="24" style="clip-path:url(#clipPath4); fill:none;" y2="24" />
      <line x1="15" x2="0" y1="40" style="clip-path:url(#clipPath4); fill:none;" y2="60" />
      <line x1="15" x2="30" y1="40" style="clip-path:url(#clipPath4); fill:none;" y2="60" />
    </g>
    <g transform="translate(30,460)" style="font-size:11; fill:white; text-rendering:geometricPrecision; font-family:sans-serif; stroke:white;">
      <circle style="clip-path:url(#clipPath4); stroke:none;" r="7.5" cx="14.5" cy="7.5" />
    </g>
    <g transform="translate(30,460)" style="stroke-linecap:butt; font-size:11; text-rendering:geometricPrecision; font-family:sans-serif; stroke-linejoin:round; stroke-miterlimit:0;">
      <circle style="fill:none; clip-path:url(#clipPath4);" r="7.5" cx="14.5" cy="7.5" />
      <line x1="15" x2="15" y1="15" style="clip-path:url(#clipPath4); fill:none;" y2="40" />
      <line x1="0" x2="30" y1="24" style="clip-path:url(#clipPath4); fill:none;" y2="24" />
      <line x1="15" x2="0" y1="40" style="clip-path:url(#clipPath4); fill:none;" y2="60" />
      <line x1="15" x2="30" y1="40" style="clip-path:url(#clipPath4); fill:none;" y2="60" />
    </g>
    <g transform="translate(30,310)" style="font-size:11; fill:white; text-rendering:geometricPrecision; font-family:sans-serif; stroke:white;">
      <circle style="clip-path:url(#clipPath4); stroke:none;" r="7.5" cx="14.5" cy="7.5" />
    </g>
    <g transform="translate(30,310)" style="stroke-linecap:butt; font-size:11; text-rendering:geometricPrecision; font-family:sans-serif; stroke-linejoin:round; stroke-miterlimit:0;">
      <circle style="fill:none; clip-path:url(#clipPath4);" r="7.5" cx="14.5" cy="7.5" />
      <line x1="15" x2="15" y1="15" style="clip-path:url(#clipPath4); fill:none;" y2="40" />
      <line x1="0" x2="30" y1="24" style="clip-path:url(#clipPath4); fill:none;" y2="24" />
      <line x1="15" x2="0" y1="40" style="clip-path:url(#clipPath4); fill:none;" y2="60" />
      <line x1="15" x2="30" y1="40" style="clip-path:url(#clipPath4); fill:none;" y2="60" />
    </g>
    <g transform="translate(250,520)" style="font-size:11; fill:white; text-rendering:geometricPrecision; font-family:sans-serif; stroke:white;">
      <ellipse style="clip-path:url(#clipPath5); stroke:none;" rx="40" cx="40" ry="20" cy="20" />
    </g>
    <g transform="translate(250,520)" style="stroke-linecap:butt; font-size:11; text-rendering:geometricPrecision; font-family:sans-serif; stroke-linejoin:round; stroke-miterlimit:0;">
      <ellipse style="clip-path:url(#clipPath5); fill:none;" rx="40" cx="40" ry="20" cy="20" />
    </g>
    <g transform="translate(250,420)" style="font-size:11; fill:white; text-rendering:geometricPrecision; font-family:sans-serif; stroke:white;">
      <ellipse style="clip-path:url(#clipPath5); stroke:none;" rx="40" cx="40" ry="20" cy="20" />
    </g>
    <g transform="translate(250,420)" style="stroke-linecap:butt; font-size:11; text-rendering:geometricPrecision; font-family:sans-serif; stroke-linejoin:round; stroke-miterlimit:0;">
      <ellipse style="clip-path:url(#clipPath5); fill:none;" rx="40" cx="40" ry="20" cy="20" />
    </g>
    <g transform="translate(340,730)" style="font-size:11; fill:white; text-rendering:geometricPrecision; font-family:sans-serif; stroke:white;">
      <ellipse style="clip-path:url(#clipPath6); stroke:none;" rx="60" cx="60" ry="20" cy="20" />
    </g>
    <g transform="translate(340,730)" style="stroke-linecap:butt; font-size:11; text-rendering:geometricPrecision; font-family:sans-serif; stroke-linejoin:round; stroke-miterlimit:0;">
      <ellipse style="clip-path:url(#clipPath6); fill:none;" rx="60" cx="60" ry="20" cy="20" />
    </g>
    <g transform="translate(520,730)" style="font-size:11; fill:white; text-rendering:geometricPrecision; font-family:sans-serif; stroke:white;">
      <ellipse style="clip-path:url(#clipPath7); stroke:none;" rx="85" cx="85" ry="20" cy="20" />
    </g>
    <g transform="translate(520,730)" style="stroke-linecap:butt; font-size:11; text-rendering:geometricPrecision; font-family:sans-serif; stroke-linejoin:round; stroke-miterlimit:0;">
      <ellipse style="clip-path:url(#clipPath7); fill:none;" rx="85" cx="85" ry="20" cy="20" />
    </g>
    <g transform="translate(530,330)" style="font-size:11; fill:white; text-rendering:geometricPrecision; font-family:sans-serif; stroke:white;">
      <ellipse style="clip-path:url(#clipPath5); stroke:none;" rx="40" cx="40" ry="20" cy="20" />
    </g>
    <g transform="translate(530,330)" style="stroke-linecap:butt; font-size:11; text-rendering:geometricPrecision; font-family:sans-serif; stroke-linejoin:round; stroke-miterlimit:0;">
      <ellipse style="clip-path:url(#clipPath5); fill:none;" rx="40" cx="40" ry="20" cy="20" />
    </g>
    <g transform="translate(530,230)" style="font-size:11; fill:white; text-rendering:geometricPrecision; font-family:sans-serif; stroke:white;">
      <ellipse style="clip-path:url(#clipPath8); stroke:none;" rx="45" cx="45" ry="20" cy="20" />
    </g>
    <g transform="translate(530,230)" style="stroke-linecap:butt; font-size:11; text-rendering:geometricPrecision; font-family:sans-serif; stroke-linejoin:round; stroke-miterlimit:0;">
      <ellipse style="clip-path:url(#clipPath8); fill:none;" rx="45" cx="45" ry="20" cy="20" />
    </g>
    <g transform="translate(560,520)" style="font-size:11; fill:white; text-rendering:geometricPrecision; font-family:sans-serif; stroke:white;">
      <ellipse style="clip-path:url(#clipPath5); stroke:none;" rx="40" cx="40" ry="20" cy="20" />
    </g>
    <g transform="translate(560,520)" style="stroke-linecap:butt; font-size:11; text-rendering:geometricPrecision; font-family:sans-serif; stroke-linejoin:round; stroke-miterlimit:0;">
      <ellipse style="clip-path:url(#clipPath5); fill:none;" rx="40" cx="40" ry="20" cy="20" />
    </g>
    <g transform="translate(550,420)" style="font-size:11; fill:white; text-rendering:geometricPrecision; font-family:sans-serif; stroke:white;">
      <ellipse style="clip-path:url(#clipPath8); stroke:none;" rx="45" cx="45" ry="20" cy="20" />
    </g>
    <g transform="translate(550,420)" style="stroke-linecap:butt; font-size:11; text-rendering:geometricPrecision; font-family:sans-serif; stroke-linejoin:round; stroke-miterlimit:0;">
      <ellipse style="clip-path:url(#clipPath8); fill:none;" rx="45" cx="45" ry="20" cy="20" />
    </g>
    <g transform="translate(380,330)" style="font-size:11; fill:white; text-rendering:geometricPrecision; font-family:sans-serif; stroke:white;">
      <ellipse style="clip-path:url(#clipPath5); stroke:none;" rx="40" cx="40" ry="20" cy="20" />
    </g>
    <g transform="translate(380,330)" style="stroke-linecap:butt; font-size:11; text-rendering:geometricPrecision; font-family:sans-serif; stroke-linejoin:round; stroke-miterlimit:0;">
      <ellipse style="clip-path:url(#clipPath5); fill:none;" rx="40" cx="40" ry="20" cy="20" />
    </g>
    <g transform="translate(380,230)" style="font-size:11; fill:white; text-rendering:geometricPrecision; font-family:sans-serif; stroke:white;">
      <ellipse style="clip-path:url(#clipPath5); stroke:none;" rx="40" cx="40" ry="20" cy="20" />
    </g>
    <g transform="translate(380,230)" style="stroke-linecap:butt; font-size:11; text-rendering:geometricPrecision; font-family:sans-serif; stroke-linejoin:round; stroke-miterlimit:0;">
      <ellipse style="clip-path:url(#clipPath5); fill:none;" rx="40" cx="40" ry="20" cy="20" />
    </g>
    <g transform="translate(410,520)" style="font-size:11; fill:white; text-rendering:geometricPrecision; font-family:sans-serif; stroke:white;">
      <ellipse style="clip-path:url(#clipPath5); stroke:none;" rx="40" cx="40" ry="20" cy="20" />
    </g>
    <g transform="translate(410,520)" style="stroke-linecap:butt; font-size:11; text-rendering:geometricPrecision; font-family:sans-serif; stroke-linejoin:round; stroke-miterlimit:0;">
      <ellipse style="clip-path:url(#clipPath5); fill:none;" rx="40" cx="40" ry="20" cy="20" />
    </g>
    <g transform="translate(400,420)" style="font-size:11; fill:white; text-rendering:geometricPrecision; font-family:sans-serif; stroke:white;">
      <ellipse style="clip-path:url(#clipPath5); stroke:none;" rx="40" cx="40" ry="20" cy="20" />
    </g>
    <g transform="translate(400,420)" style="stroke-linecap:butt; font-size:11; text-rendering:geometricPrecision; font-family:sans-serif; stroke-linejoin:round; stroke-miterlimit:0;">
      <ellipse style="clip-path:url(#clipPath5); fill:none;" rx="40" cx="40" ry="20" cy="20" />
    </g>
    <g transform="translate(210,330)" style="font-size:11; fill:white; text-rendering:geometricPrecision; font-family:sans-serif; stroke:white;">
      <ellipse style="clip-path:url(#clipPath9); stroke:none;" rx="50" cx="50" ry="20" cy="20" />
    </g>
    <g transform="translate(210,330)" style="stroke-linecap:butt; font-size:11; text-rendering:geometricPrecision; font-family:sans-serif; stroke-linejoin:round; stroke-miterlimit:0;">
      <ellipse style="clip-path:url(#clipPath9); fill:none;" rx="50" cx="50" ry="20" cy="20" />
    </g>
    <g transform="translate(210,230)" style="font-size:11; fill:white; text-rendering:geometricPrecision; font-family:sans-serif; stroke:white;">
      <ellipse style="clip-path:url(#clipPath6); stroke:none;" rx="60" cx="60" ry="20" cy="20" />
    </g>
    <g transform="translate(210,230)" style="stroke-linecap:butt; font-size:11; text-rendering:geometricPrecision; font-family:sans-serif; stroke-linejoin:round; stroke-miterlimit:0;">
      <ellipse style="clip-path:url(#clipPath6); fill:none;" rx="60" cx="60" ry="20" cy="20" />
    </g>
    <g transform="translate(210,160)" style="font-size:11; fill:white; text-rendering:geometricPrecision; font-family:sans-serif; stroke:white;">
      <ellipse style="clip-path:url(#clipPath10); stroke:none;" rx="105" cx="105" ry="20" cy="20" />
    </g>
    <g transform="translate(210,160)" style="stroke-linecap:butt; font-size:11; text-rendering:geometricPrecision; font-family:sans-serif; stroke-linejoin:round; stroke-miterlimit:0;">
      <ellipse style="clip-path:url(#clipPath10); fill:none;" rx="105" cx="105" ry="20" cy="20" />
    </g>
    <g transform="translate(340,630)" style="font-size:11; fill:white; text-rendering:geometricPrecision; font-family:sans-serif; stroke:white;">
      <ellipse style="clip-path:url(#clipPath8); stroke:none;" rx="45" cx="45" ry="20" cy="20" />
    </g>
    <g transform="translate(340,630)" style="stroke-linecap:butt; font-size:11; text-rendering:geometricPrecision; font-family:sans-serif; stroke-linejoin:round; stroke-miterlimit:0;">
      <ellipse style="clip-path:url(#clipPath8); fill:none;" rx="45" cx="45" ry="20" cy="20" />
    </g>
    <g transform="translate(550,660)" style="font-size:11; fill:white; text-rendering:geometricPrecision; font-family:sans-serif; stroke:white;">
      <ellipse style="clip-path:url(#clipPath11); stroke:none;" rx="55" cx="55" ry="20" cy="20" />
    </g>
    <g transform="translate(550,660)" style="stroke-linecap:butt; font-size:11; text-rendering:geometricPrecision; font-family:sans-serif; stroke-linejoin:round; stroke-miterlimit:0;">
      <ellipse style="clip-path:url(#clipPath11); fill:none;" rx="55" cx="55" ry="20" cy="20" />
    </g>
    <g transform="translate(190,730)" style="font-size:11; fill:white; text-rendering:geometricPrecision; font-family:sans-serif; stroke:white;">
      <ellipse style="clip-path:url(#clipPath6); stroke:none;" rx="60" cx="60" ry="20" cy="20" />
    </g>
    <g transform="translate(190,730)" style="stroke-linecap:butt; font-size:11; text-rendering:geometricPrecision; font-family:sans-serif; stroke-linejoin:round; stroke-miterlimit:0;">
      <ellipse style="clip-path:url(#clipPath6); fill:none;" rx="60" cx="60" ry="20" cy="20" />
    </g>
    <g transform="translate(210,630)" style="font-size:11; fill:white; text-rendering:geometricPrecision; font-family:sans-serif; stroke:white;">
      <ellipse style="clip-path:url(#clipPath8); stroke:none;" rx="45" cx="45" ry="20" cy="20" />
    </g>
    <g transform="translate(210,630)" style="stroke-linecap:butt; font-size:11; text-rendering:geometricPrecision; font-family:sans-serif; stroke-linejoin:round; stroke-miterlimit:0;">
      <ellipse style="clip-path:url(#clipPath8); fill:none;" rx="45" cx="45" ry="20" cy="20" />
    </g>
    <g style="fill:white; text-rendering:geometricPrecision; font-size:11; font-family:sans-serif; stroke:white;">
      <polygon style="clip-path:url(#clipPath12); stroke:none;" points=" 0 0 254 0 269 15 254 15 254 0 269 15 269 39 0 39" />
    </g>
    <g style="stroke-linecap:butt; font-size:11; text-rendering:geometricPrecision; font-family:sans-serif; stroke-linejoin:round; stroke-miterlimit:0;">
      <polygon style="fill:none; clip-path:url(#clipPath12);" points=" 0 0 254 0 269 15 254 15 254 0 269 15 269 39 0 39" />
    </g>
    <g style="text-rendering:geometricPrecision; font-size:11; font-family:sans-serif;" transform="translate(250,520)">
      <text x="20" y="24" style="clip-path:url(#clipPath14); stroke:none;" xml:space="preserve">Add role</text>
    </g>
    <g style="text-rendering:geometricPrecision; font-size:11; font-family:sans-serif;" transform="translate(250,420)">
      <text x="9" y="24" style="clip-path:url(#clipPath14); stroke:none;" xml:space="preserve">Add variable</text>
    </g>
    <g style="text-rendering:geometricPrecision; font-size:11; font-family:sans-serif;" transform="translate(340,730)">
      <text x="7" y="24" style="clip-path:url(#clipPath15); stroke:none;" xml:space="preserve">Clear workflow model</text>
    </g>
    <g style="text-rendering:geometricPrecision; font-size:11; font-family:sans-serif;" transform="translate(520,730)">
      <text x="9" y="24" style="clip-path:url(#clipPath16); stroke:none;" xml:space="preserve">Connect activities or containers</text>
    </g>
    <g style="text-rendering:geometricPrecision; font-size:11; font-family:sans-serif;" transform="translate(530,330)">
      <text x="6" y="24" style="clip-path:url(#clipPath14); stroke:none;" xml:space="preserve">Delete activity</text>
    </g>
    <g style="text-rendering:geometricPrecision; font-size:11; font-family:sans-serif;" transform="translate(530,230)">
      <text x="5" y="24" style="clip-path:url(#clipPath17); stroke:none;" xml:space="preserve">Delete container</text>
    </g>
    <g style="text-rendering:geometricPrecision; font-size:11; font-family:sans-serif;" transform="translate(560,520)">
      <text x="13" y="24" style="clip-path:url(#clipPath14); stroke:none;" xml:space="preserve">Delete role</text>
    </g>
    <g style="text-rendering:geometricPrecision; font-size:11; font-family:sans-serif;" transform="translate(550,420)">
      <text x="8" y="24" style="clip-path:url(#clipPath17); stroke:none;" xml:space="preserve">Delete variable</text>
    </g>
    <g style="text-rendering:geometricPrecision; font-size:11; font-family:sans-serif;" transform="translate(380,330)">
      <text x="12" y="24" style="clip-path:url(#clipPath14); stroke:none;" xml:space="preserve">Edit activity</text>
    </g>
    <g style="text-rendering:geometricPrecision; font-size:11; font-family:sans-serif;" transform="translate(380,230)">
      <text x="6" y="24" style="clip-path:url(#clipPath14); stroke:none;" xml:space="preserve">Edit container</text>
    </g>
    <g style="text-rendering:geometricPrecision; font-size:11; font-family:sans-serif;" transform="translate(410,520)">
      <text x="20" y="24" style="clip-path:url(#clipPath14); stroke:none;" xml:space="preserve">Edit role</text>
    </g>
    <g style="text-rendering:geometricPrecision; font-size:11; font-family:sans-serif;" transform="translate(400,420)">
      <text x="10" y="24" style="clip-path:url(#clipPath14); stroke:none;" xml:space="preserve">Edit variable</text>
    </g>
    <g style="text-rendering:geometricPrecision; font-size:11; font-family:sans-serif;" transform="translate(210,330)">
      <text x="6" y="24" style="clip-path:url(#clipPath18); stroke:none;" xml:space="preserve">Insert new activity</text>
    </g>
    <g style="text-rendering:geometricPrecision; font-size:11; font-family:sans-serif;" transform="translate(210,230)">
      <text x="10" y="24" style="clip-path:url(#clipPath15); stroke:none;" xml:space="preserve">Insert new container</text>
    </g>
    <g style="text-rendering:geometricPrecision; font-size:11; font-family:sans-serif;" transform="translate(210,160)">
      <text x="6" y="24" style="clip-path:url(#clipPath19); stroke:none;" xml:space="preserve">Open existing workflow model for editing</text>
    </g>
    <g style="text-rendering:geometricPrecision; font-size:11; font-family:sans-serif;" transform="translate(340,630)">
      <text x="5" y="24" style="clip-path:url(#clipPath17); stroke:none;" xml:space="preserve">Redo last action</text>
    </g>
    <g style="text-rendering:geometricPrecision; font-size:11; font-family:sans-serif;" transform="translate(550,660)">
      <text x="6" y="24" style="clip-path:url(#clipPath20); stroke:none;" xml:space="preserve">Remove connection</text>
    </g>
    <g style="text-rendering:geometricPrecision; font-size:11; font-family:sans-serif;" transform="translate(190,730)">
      <text x="8" y="24" style="clip-path:url(#clipPath15); stroke:none;" xml:space="preserve">Save workflow model</text>
    </g>
    <g style="text-rendering:geometricPrecision; font-size:11; font-family:sans-serif;" transform="translate(210,630)">
      <text x="5" y="24" style="clip-path:url(#clipPath17); stroke:none;" xml:space="preserve">Undo last action</text>
    </g>
    <g style="text-rendering:geometricPrecision; font-size:11; font-family:sans-serif;" transform="translate(1,370)">
      <text x="11" y="14" style="clip-path:url(#clipPath21); stroke:none;" xml:space="preserve">Tenant Admin</text>
    </g>
    <g style="text-rendering:geometricPrecision; font-size:11; font-family:sans-serif;" transform="translate(0,520)">
      <text x="10" y="14" style="clip-path:url(#clipPath22); stroke:none;" xml:space="preserve">Workflow Admin</text>
    </g>
    <g style="text-rendering:geometricPrecision; font-size:11; font-family:sans-serif;" transform="translate(0,650)">
      <text x="10" y="14" style="clip-path:url(#clipPath23); stroke:none;" xml:space="preserve">Registered User</text>
    </g>
    <g style="text-rendering:geometricPrecision; font-size:11; font-family:sans-serif;" transform="translate(21,770)">
      <text x="13" y="14" style="clip-path:url(#clipPath24); stroke:none;" xml:space="preserve">User</text>
    </g>
    <g transform="translate(140,100)" style="text-rendering:geometricPrecision; font-size:16; font-weight:bold; font-family:sans-serif;">
      <text x="226" y="17" style="clip-path:url(#clipPath25); stroke:none;" xml:space="preserve">Workflow modeling</text>
    </g>
    <g transform="translate(170,130)" style="text-rendering:geometricPrecision; font-size:16; font-weight:bold; font-family:sans-serif;">
      <text x="247" y="17" style="clip-path:url(#clipPath26); stroke:none;" xml:space="preserve">Editor</text>
    </g>
    <g transform="translate(100,70)" style="text-rendering:geometricPrecision; font-size:16; font-weight:bold; font-family:sans-serif;">
      <text x="307" y="17" style="clip-path:url(#clipPath27); stroke:none;" xml:space="preserve">DecidR</text>
    </g>
    <g transform="translate(-31,594)" style="font-size:11; stroke-linecap:butt; text-rendering:geometricPrecision; font-family:sans-serif; stroke-linejoin:round;">
      <line x1="70" x2="70" y1="114" style="clip-path:url(#clipPath28); fill:none;" y2="71" />
      <polygon style="fill:white; clip-path:url(#clipPath28); stroke:none;" points=" 70 114 76 102 64 102" />
      <polygon style="fill:none; clip-path:url(#clipPath28);" points=" 70 114 76 102 64 102" />
    </g>
    <g transform="translate(-31,467)" style="font-size:11; stroke-linecap:butt; text-rendering:geometricPrecision; font-family:sans-serif; stroke-linejoin:round;">
      <line x1="70" x2="70" y1="121" style="clip-path:url(#clipPath29); fill:none;" y2="71" />
      <polygon style="fill:white; clip-path:url(#clipPath29); stroke:none;" points=" 70 121 76 109 64 109" />
      <polygon style="fill:none; clip-path:url(#clipPath29);" points=" 70 121 76 109 64 109" />
    </g>
    <g transform="translate(-31,317)" style="font-size:11; stroke-linecap:butt; text-rendering:geometricPrecision; font-family:sans-serif; stroke-linejoin:round;">
      <line x1="70" x2="70" y1="141" style="clip-path:url(#clipPath30); fill:none;" y2="71" />
      <polygon style="fill:white; clip-path:url(#clipPath30); stroke:none;" points=" 70 141 76 129 64 129" />
      <polygon style="fill:none; clip-path:url(#clipPath30);" points=" 70 141 76 129 64 129" />
    </g>
    <g transform="translate(38,335)" style="font-size:11; stroke-linecap:butt; text-rendering:geometricPrecision; font-family:sans-serif; stroke-linejoin:round;">
      <line x1="220" x2="50" y1="192" style="clip-path:url(#clipPath31); fill:none;" y2="50" />
    </g>
    <g transform="translate(38,335)" style="font-size:11; stroke-linecap:butt; text-rendering:geometricPrecision; font-family:sans-serif; stroke-linejoin:round;">
      <line x1="50" x2="228" y1="50" style="clip-path:url(#clipPath32); fill:none;" y2="89" />
    </g>
    <g transform="translate(248,382)" style="font-size:11; stroke-linecap:butt; text-rendering:geometricPrecision; font-family:sans-serif; stroke-linejoin:round;">
      <line x1="71" x2="71" y1="71" style="clip-path:url(#clipPath33); fill:none;" y2="143" />
      <polygon style="fill:white; clip-path:url(#clipPath33); stroke:none;" points=" 71 71 65 83 77 83" />
      <polygon style="fill:none; clip-path:url(#clipPath33);" points=" 71 71 65 83 77 83" />
    </g>
    <g transform="translate(38,335)" style="font-size:11; stroke-linecap:butt; text-rendering:geometricPrecision; font-family:sans-serif; stroke-linejoin:round;">
      <line x1="50" x2="152" y1="50" style="clip-path:url(#clipPath34); fill:none;" y2="355" />
      <line x1="152" x2="321" y1="355" style="clip-path:url(#clipPath34); fill:none;" y2="400" />
    </g>
    <g transform="translate(38,335)" style="font-size:11; stroke-linecap:butt; text-rendering:geometricPrecision; font-family:sans-serif; stroke-linejoin:round;">
      <line x1="50" x2="162" y1="50" style="clip-path:url(#clipPath35); fill:none;" y2="335" />
      <line x1="162" x2="508" y1="335" style="clip-path:url(#clipPath35); fill:none;" y2="400" />
    </g>
    <g transform="translate(11,320)" style="font-size:11; stroke-linecap:butt; text-rendering:geometricPrecision; font-family:sans-serif; stroke-linejoin:round;">
      <line x1="50" x2="519" y1="50" style="clip-path:url(#clipPath36); fill:none;" y2="50" />
    </g>
    <g transform="translate(10,218)" style="font-size:11; stroke-linecap:butt; text-rendering:geometricPrecision; font-family:sans-serif; stroke-linejoin:round;">
      <line x1="50" x2="543" y1="92" style="clip-path:url(#clipPath37); fill:none;" y2="50" />
    </g>
    <g transform="translate(478,195)" style="stroke-linecap:butt; font-size:11; text-rendering:geometricPrecision; font-family:sans-serif; stroke-linejoin:round; stroke-dasharray:4;">
      <line x1="71" x2="71" y1="71" style="clip-path:url(#clipPath38); fill:none;" y2="136" />
      <line x1="71" x2="77" y1="136" style="clip-path:url(#clipPath38); fill:none; stroke-dasharray:none;" y2="124" />
      <line x1="71" x2="65" y1="136" style="clip-path:url(#clipPath38); fill:none; stroke-dasharray:none;" y2="124" />
    </g>
    <g transform="translate(38,335)" style="font-size:11; stroke-linecap:butt; text-rendering:geometricPrecision; font-family:sans-serif; stroke-linejoin:round;">
      <line x1="540" x2="212" y1="188" style="clip-path:url(#clipPath39); fill:none;" y2="135" />
      <line x1="212" x2="50" y1="135" style="clip-path:url(#clipPath39); fill:none;" y2="50" />
    </g>
    <g transform="translate(38,335)" style="font-size:11; stroke-linecap:butt; text-rendering:geometricPrecision; font-family:sans-serif; stroke-linejoin:round;">
      <line x1="50" x2="537" y1="50" style="clip-path:url(#clipPath40); fill:none;" y2="87" />
    </g>
    <g transform="translate(518,388)" style="font-size:11; stroke-linecap:butt; text-rendering:geometricPrecision; font-family:sans-serif; stroke-linejoin:round;">
      <line x1="71" x2="71" y1="71" style="clip-path:url(#clipPath41); fill:none;" y2="131" />
      <polygon style="fill:white; clip-path:url(#clipPath41); stroke:none;" points=" 71 71 65 83 77 83" />
      <polygon style="fill:none; clip-path:url(#clipPath41);" points=" 71 71 65 83 77 83" />
    </g>
    <g transform="translate(10,260)" style="font-size:11; stroke-linecap:butt; text-rendering:geometricPrecision; font-family:sans-serif; stroke-linejoin:round;">
      <line x1="50" x2="250" y1="50" style="clip-path:url(#clipPath42); fill:none;" y2="50" />
      <line x1="250" x2="387" y1="50" style="clip-path:url(#clipPath42); fill:none;" y2="73" />
    </g>
    <g transform="translate(10,217)" style="font-size:11; stroke-linecap:butt; text-rendering:geometricPrecision; font-family:sans-serif; stroke-linejoin:round;">
      <line x1="50" x2="388" y1="93" style="clip-path:url(#clipPath43); fill:none;" y2="50" />
    </g>
    <g transform="translate(38,335)" style="font-size:11; stroke-linecap:butt; text-rendering:geometricPrecision; font-family:sans-serif; stroke-linejoin:round;">
      <line x1="388" x2="212" y1="189" style="clip-path:url(#clipPath44); fill:none;" y2="155" />
      <line x1="212" x2="50" y1="155" style="clip-path:url(#clipPath44); fill:none;" y2="50" />
    </g>
    <g transform="translate(38,335)" style="font-size:11; stroke-linecap:butt; text-rendering:geometricPrecision; font-family:sans-serif; stroke-linejoin:round;">
      <line x1="50" x2="380" y1="50" style="clip-path:url(#clipPath45); fill:none;" y2="88" />
    </g>
    <g transform="translate(338,382)" style="font-size:11; stroke-linecap:butt; text-rendering:geometricPrecision; font-family:sans-serif; stroke-linejoin:round;">
      <line x1="71" x2="71" y1="71" style="clip-path:url(#clipPath46); fill:none;" y2="137" />
      <polygon style="fill:white; clip-path:url(#clipPath46); stroke:none;" points=" 71 71 65 83 77 83" />
      <polygon style="fill:none; clip-path:url(#clipPath46);" points=" 71 71 65 83 77 83" />
    </g>
    <g transform="translate(10,290)" style="font-size:11; stroke-linecap:butt; text-rendering:geometricPrecision; font-family:sans-serif; stroke-linejoin:round;">
      <line x1="50" x2="206" y1="50" style="clip-path:url(#clipPath47); fill:none;" y2="50" />
    </g>
    <g transform="translate(10,215)" style="font-size:11; stroke-linecap:butt; text-rendering:geometricPrecision; font-family:sans-serif; stroke-linejoin:round;">
      <line x1="50" x2="219" y1="95" style="clip-path:url(#clipPath48); fill:none;" y2="50" />
    </g>
    <g transform="translate(10,140)" style="font-size:11; stroke-linecap:butt; text-rendering:geometricPrecision; font-family:sans-serif; stroke-linejoin:round;">
      <line x1="50" x2="213" y1="170" style="clip-path:url(#clipPath49); fill:none;" y2="50" />
    </g>
    <g transform="translate(38,335)" style="font-size:11; stroke-linecap:butt; text-rendering:geometricPrecision; font-family:sans-serif; stroke-linejoin:round;">
      <line x1="50" x2="192" y1="50" style="clip-path:url(#clipPath50); fill:none;" y2="275" />
      <line x1="192" x2="320" y1="275" style="clip-path:url(#clipPath50); fill:none;" y2="299" />
    </g>
    <g transform="translate(38,335)" style="font-size:11; stroke-linecap:butt; text-rendering:geometricPrecision; font-family:sans-serif; stroke-linejoin:round;">
      <line x1="50" x2="202" y1="50" style="clip-path:url(#clipPath51); fill:none;" y2="255" />
      <line x1="202" x2="530" y1="255" style="clip-path:url(#clipPath51); fill:none;" y2="330" />
    </g>
    <g transform="translate(38,335)" style="font-size:11; stroke-linecap:butt; text-rendering:geometricPrecision; font-family:sans-serif; stroke-linejoin:round;">
      <line x1="50" x2="156" y1="50" style="clip-path:url(#clipPath52); fill:none;" y2="407" />
    </g>
    <g transform="translate(38,335)" style="font-size:11; stroke-linecap:butt; text-rendering:geometricPrecision; font-family:sans-serif; stroke-linejoin:round;">
      <line x1="50" x2="177" y1="50" style="clip-path:url(#clipPath53); fill:none;" y2="305" />
    </g>
    <g style="text-rendering:geometricPrecision; font-size:11; font-family:sans-serif;" transform="translate(530,310)">
      <text x="10" y="12" style="clip-path:url(#clipPath54); stroke:none;" xml:space="preserve">&lt;&lt;Include&gt;&gt;</text>
    </g>
    <g style="fill:rgb(120,120,120); text-rendering:geometricPrecision; font-size:8; stroke:rgb(120,120,120);">
      <text xml:space="preserve" x="0" y="10" style="stroke:none;">Visual Paradigm for UML Standard Edition(University of Stuttgart)</text>
      <text xml:space="preserve" x="0" y="10" style="stroke:none;">Visual Paradigm for UML Standard Edition(University of Stuttgart)</text>
    </g>
  </g>
</svg>
