<?xml version="1.0" encoding="UTF-8"?>

<!DOCTYPE svg PUBLIC '-//W3C//DTD SVG 1.0//EN' 'http://www.w3.org/TR/2001/REC-SVG-20010904/DTD/svg10.dtd'>
<svg style="fill-opacity:1; color-rendering:auto; color-interpolation:auto; text-rendering:auto; stroke:black; stroke-linecap:square; stroke-miterlimit:10; shape-rendering:auto; stroke-opacity:1; fill:black; stroke-dasharray:none; font-weight:normal; stroke-width:1; font-family:&apos;Dialog&apos;; font-style:normal; stroke-linejoin:miter; font-size:12; stroke-dashoffset:0; image-rendering:auto;" xmlns="http://www.w3.org/2000/svg" width="444" xmlns:xlink="http://www.w3.org/1999/xlink" height="214">
  <!--Generated by the Batik Graphics2D SVG Generator-->
  <defs id="genericDefs" />
  <g>
    <defs id="defs1">
      <clipPath clipPathUnits="userSpaceOnUse" id="clipPath1">
        <path d="M-3 -3 L267 -3 L267 137 L-3 137 L-3 -3 Z" />
      </clipPath>
      <clipPath clipPathUnits="userSpaceOnUse" id="clipPath2">
        <path d="M-3 -3 L147 -3 L147 67 L-3 67 L-3 -3 Z" />
      </clipPath>
      <clipPath clipPathUnits="userSpaceOnUse" id="clipPath3">
        <path d="M-3 -3 L127 -3 L127 47 L-3 47 L-3 -3 Z" />
      </clipPath>
      <clipPath clipPathUnits="userSpaceOnUse" id="clipPath4">
        <path d="M-3 -3 L277 -3 L277 47 L-3 47 L-3 -3 Z" />
      </clipPath>
      <clipPath clipPathUnits="userSpaceOnUse" id="clipPath5">
        <path d="M0 0 L0 40 L270 40 L270 0 Z" />
      </clipPath>
      <clipPath clipPathUnits="userSpaceOnUse" id="clipPath6">
        <path d="M0 0 L120 0 L120 40 L0 40 L0 0 Z" />
      </clipPath>
      <clipPath clipPathUnits="userSpaceOnUse" id="clipPath7">
        <path d="M0 0 L140 0 L140 60 L0 60 L0 0 Z" />
      </clipPath>
      <clipPath clipPathUnits="userSpaceOnUse" id="clipPath8">
        <path d="M0 0 L260 0 L260 21 L0 21 L0 0 Z" />
      </clipPath>
      <clipPath clipPathUnits="userSpaceOnUse" id="clipPath9">
        <path d="M0 0 L212 0 L212 104 L0 104 L0 0 Z" />
      </clipPath>
    </defs>
    <g style="fill:white; text-rendering:geometricPrecision; stroke:white;">
      <rect x="0" y="0" width="444" style="stroke:none;" height="214" />
    </g>
    <g transform="translate(180,80)" style="font-size:16; fill:white; text-rendering:geometricPrecision; font-family:sans-serif; stroke:white; font-weight:bold;">
      <rect x="0" y="0" width="259" style="clip-path:url(#clipPath1); stroke:none;" height="129" />
    </g>
    <g transform="translate(180,80)" style="stroke-linecap:butt; font-size:16; text-rendering:geometricPrecision; stroke-linejoin:round; font-family:sans-serif; font-weight:bold; stroke-miterlimit:0;">
      <rect x="0" y="0" width="259" style="clip-path:url(#clipPath1); fill:none;" height="129" />
    </g>
    <g transform="translate(10,110)" style="font-size:11; fill:white; text-rendering:geometricPrecision; font-family:sans-serif; stroke:white;">
      <rect x="0" y="0" width="140" style="clip-path:url(#clipPath2); stroke:none;" height="60" />
    </g>
    <g transform="translate(10,110)" style="stroke-linecap:butt; font-size:11; text-rendering:geometricPrecision; font-family:sans-serif; stroke-linejoin:round; stroke-miterlimit:0;">
      <rect x="0" y="0" width="140" style="clip-path:url(#clipPath2); fill:none;" height="60" />
      <circle style="fill:none; clip-path:url(#clipPath2);" r="2" cx="133" cy="5" />
      <line x1="130" x2="136" y1="9" style="clip-path:url(#clipPath2); fill:none;" y2="9" />
      <line x1="133" x2="133" y1="7" style="clip-path:url(#clipPath2); fill:none;" y2="12" />
      <line x1="133" x2="130" y1="12" style="clip-path:url(#clipPath2); fill:none;" y2="15" />
      <line x1="133" x2="136" y1="12" style="clip-path:url(#clipPath2); fill:none;" y2="15" />
    </g>
    <g transform="translate(250,130)" style="font-size:11; fill:white; text-rendering:geometricPrecision; font-family:sans-serif; stroke:white;">
      <ellipse style="clip-path:url(#clipPath3); stroke:none;" rx="60" cx="60" ry="20" cy="20" />
    </g>
    <g transform="translate(250,130)" style="stroke-linecap:butt; font-size:11; text-rendering:geometricPrecision; font-family:sans-serif; stroke-linejoin:round; stroke-miterlimit:0;">
      <ellipse style="clip-path:url(#clipPath3); fill:none;" rx="60" cx="60" ry="20" cy="20" />
    </g>
    <g style="fill:white; text-rendering:geometricPrecision; font-size:11; font-family:sans-serif; stroke:white;">
      <polygon style="clip-path:url(#clipPath4); stroke:none;" points=" 0 0 254 0 269 15 254 15 254 0 269 15 269 39 0 39" />
    </g>
    <g style="stroke-linecap:butt; font-size:11; text-rendering:geometricPrecision; font-family:sans-serif; stroke-linejoin:round; stroke-miterlimit:0;">
      <polygon style="fill:none; clip-path:url(#clipPath4);" points=" 0 0 254 0 269 15 254 15 254 0 269 15 269 39 0 39" />
    </g>
    <g style="text-rendering:geometricPrecision; font-size:11; font-family:sans-serif;" transform="translate(250,130)">
      <text x="8" y="24" style="clip-path:url(#clipPath6); stroke:none;" xml:space="preserve">Remove expired data</text>
    </g>
    <g style="text-rendering:geometricPrecision; font-size:11; font-family:sans-serif;" transform="translate(10,110)">
      <text x="7" y="34" style="clip-path:url(#clipPath7); stroke:none;" xml:space="preserve">System Maintenance Task</text>
    </g>
    <g transform="translate(180,80)" style="text-rendering:geometricPrecision; font-size:16; font-weight:bold; font-family:sans-serif;">
      <text x="56" y="17" style="clip-path:url(#clipPath8); stroke:none;" xml:space="preserve">System Maintenace</text>
    </g>
    <g transform="translate(100,90)" style="font-size:11; stroke-linecap:butt; text-rendering:geometricPrecision; font-family:sans-serif; stroke-linejoin:round;">
      <line x1="50" x2="158" y1="50" style="clip-path:url(#clipPath9); fill:none;" y2="50" />
    </g>
    <g style="fill:rgb(120,120,120); text-rendering:geometricPrecision; font-size:8; stroke:rgb(120,120,120);">
      <text xml:space="preserve" x="0" y="10" style="stroke:none;">Visual Paradigm for UML Standard Edition(University of Stuttgart)</text>
      <text xml:space="preserve" x="0" y="10" style="stroke:none;">Visual Paradigm for UML Standard Edition(University of Stuttgart)</text>
    </g>
  </g>
</svg>
