<?xml version="1.0" encoding="UTF-8" standalone="no"?>
<svg
   xmlns:dc="http://purl.org/dc/elements/1.1/"
   xmlns:cc="http://creativecommons.org/ns#"
   xmlns:rdf="http://www.w3.org/1999/02/22-rdf-syntax-ns#"
   xmlns:svg="http://www.w3.org/2000/svg"
   xmlns="http://www.w3.org/2000/svg"
   xmlns:sodipodi="http://sodipodi.sourceforge.net/DTD/sodipodi-0.dtd"
   xmlns:inkscape="http://www.inkscape.org/namespaces/inkscape"
   style="font-size:12px;font-style:normal;font-weight:normal;fill:#000000;fill-opacity:1;stroke:#000000;stroke-width:1;stroke-linecap:square;stroke-linejoin:miter;stroke-miterlimit:10;stroke-dasharray:none;stroke-dashoffset:0;stroke-opacity:1;font-family:Dialog"
   width="904.36572"
   height="750"
   id="svg2"
   sodipodi:version="0.32"
   inkscape:version="0.46"
   sodipodi:docname="Workflow instance management.svg"
   inkscape:output_extension="org.inkscape.output.svg.inkscape"
   version="1.0">
  <metadata
     id="metadata645">
    <rdf:RDF>
      <cc:Work
         rdf:about="">
        <dc:format>image/svg+xml</dc:format>
        <dc:type
           rdf:resource="http://purl.org/dc/dcmitype/StillImage" />
      </cc:Work>
    </rdf:RDF>
  </metadata>
  <sodipodi:namedview
     inkscape:window-height="675"
     inkscape:window-width="640"
     inkscape:pageshadow="2"
     inkscape:pageopacity="0.0"
     guidetolerance="10.0"
     gridtolerance="10.0"
     objecttolerance="10.0"
     borderopacity="1.0"
     bordercolor="#666666"
     pagecolor="#ffffff"
     id="base"
     showgrid="false"
     inkscape:zoom="0.54098361"
     inkscape:cx="462"
     inkscape:cy="427"
     inkscape:window-x="154"
     inkscape:window-y="154"
     inkscape:current-layer="g5" />
<!--Generated by the Batik Graphics2D SVG Generator-->  <defs
     id="genericDefs">
    <inkscape:perspective
       sodipodi:type="inkscape:persp3d"
       inkscape:vp_x="0 : 427 : 1"
       inkscape:vp_y="0 : 1000 : 0"
       inkscape:vp_z="924 : 427 : 1"
       inkscape:persp3d-origin="462 : 284.66667 : 1"
       id="perspective647" />
  </defs>
  <g
     id="g5"
     transform="translate(-15.134277,-99.5)">
    <defs
       id="defs1">
      <clipPath
         clipPathUnits="userSpaceOnUse"
         id="clipPath1">
        <path
           d="M -3,-3 L 807,-3 L 807,757 L -3,757 L -3,-3 z"
           id="path9" />
      </clipPath>
      <clipPath
         clipPathUnits="userSpaceOnUse"
         id="clipPath2">
        <path
           d="M -3,-3 L 597,-3 L 597,687 L -3,687 L -3,-3 z"
           id="path12" />
      </clipPath>
      <clipPath
         clipPathUnits="userSpaceOnUse"
         id="clipPath3">
        <path
           d="M -3,-3 L 37,-3 L 37,67 L -3,67 L -3,-3 z"
           id="path15" />
      </clipPath>
      <clipPath
         clipPathUnits="userSpaceOnUse"
         id="clipPath4">
        <path
           d="M -3,-3 L 197,-3 L 197,57 L -3,57 L -3,-3 z"
           id="path18" />
      </clipPath>
      <clipPath
         clipPathUnits="userSpaceOnUse"
         id="clipPath5">
        <path
           d="M -3,-3 L 147,-3 L 147,47 L -3,47 L -3,-3 z"
           id="path21" />
      </clipPath>
      <clipPath
         clipPathUnits="userSpaceOnUse"
         id="clipPath6">
        <path
           d="M -3,-3 L 247,-3 L 247,47 L -3,47 L -3,-3 z"
           id="path24" />
      </clipPath>
      <clipPath
         clipPathUnits="userSpaceOnUse"
         id="clipPath7">
        <path
           d="M -3,-3 L 197,-3 L 197,47 L -3,47 L -3,-3 z"
           id="path27" />
      </clipPath>
      <clipPath
         clipPathUnits="userSpaceOnUse"
         id="clipPath8">
        <path
           d="M -3,-3 L 187,-3 L 187,47 L -3,47 L -3,-3 z"
           id="path30" />
      </clipPath>
      <clipPath
         clipPathUnits="userSpaceOnUse"
         id="clipPath9">
        <path
           d="M -3,-3 L 157,-3 L 157,47 L -3,47 L -3,-3 z"
           id="path33" />
      </clipPath>
      <clipPath
         clipPathUnits="userSpaceOnUse"
         id="clipPath10">
        <path
           d="M -3,-3 L 137,-3 L 137,47 L -3,47 L -3,-3 z"
           id="path36" />
      </clipPath>
      <clipPath
         clipPathUnits="userSpaceOnUse"
         id="clipPath11">
        <path
           d="M -3,-3 L 227,-3 L 227,97 L -3,97 L -3,-3 z"
           id="path39" />
      </clipPath>
      <clipPath
         clipPathUnits="userSpaceOnUse"
         id="clipPath12">
        <path
           d="M 0,0 L 0,55 L 220,55 L 220,0 L 0,0 z"
           id="path42" />
      </clipPath>
      <clipPath
         clipPathUnits="userSpaceOnUse"
         id="clipPath13">
        <path
           d="M 0,0 L 0,15 L 146,15 L 146,0 L 0,0 z"
           id="path45" />
      </clipPath>
      <clipPath
         clipPathUnits="userSpaceOnUse"
         id="clipPath14">
        <path
           d="M 0,0 L 0,19 L 146,19 L 146,0 L 0,0 z"
           id="path48" />
      </clipPath>
      <clipPath
         clipPathUnits="userSpaceOnUse"
         id="clipPath15">
        <path
           d="M -3,-3 L 207,-3 L 207,97 L -3,97 L -3,-3 z"
           id="path51" />
      </clipPath>
      <clipPath
         clipPathUnits="userSpaceOnUse"
         id="clipPath16">
        <path
           d="M 0,0 L 0,55 L 200,55 L 200,0 L 0,0 z"
           id="path54" />
      </clipPath>
      <clipPath
         clipPathUnits="userSpaceOnUse"
         id="clipPath17">
        <path
           d="M -3,-3 L 87,-3 L 87,47 L -3,47 L -3,-3 z"
           id="path57" />
      </clipPath>
      <clipPath
         clipPathUnits="userSpaceOnUse"
         id="clipPath18">
        <path
           d="M -3,-3 L 277,-3 L 277,47 L -3,47 L -3,-3 z"
           id="path60" />
      </clipPath>
      <clipPath
         clipPathUnits="userSpaceOnUse"
         id="clipPath19">
        <path
           d="M 0,0 L 0,40 L 270,40 L 270,0 L 0,0 z"
           id="path63" />
      </clipPath>
      <clipPath
         clipPathUnits="userSpaceOnUse"
         id="clipPath20">
        <path
           d="M -3,-3 L 177,-3 L 177,47 L -3,47 L -3,-3 z"
           id="path66" />
      </clipPath>
      <clipPath
         clipPathUnits="userSpaceOnUse"
         id="clipPath21">
        <path
           d="M 0,0 L 170,0 L 170,40 L 0,40 L 0,0 z"
           id="path69" />
      </clipPath>
      <clipPath
         clipPathUnits="userSpaceOnUse"
         id="clipPath22">
        <path
           d="M 0,0 L 80,0 L 80,40 L 0,40 L 0,0 z"
           id="path72" />
      </clipPath>
      <clipPath
         clipPathUnits="userSpaceOnUse"
         id="clipPath23">
        <path
           d="M 0,0 L 140,0 L 140,40 L 0,40 L 0,0 z"
           id="path75" />
      </clipPath>
      <clipPath
         clipPathUnits="userSpaceOnUse"
         id="clipPath24">
        <path
           d="M 0,0 L 100,0 L 100,18 L 0,18 L 0,0 z"
           id="path78" />
      </clipPath>
      <clipPath
         clipPathUnits="userSpaceOnUse"
         id="clipPath25">
        <path
           d="M 0,0 L 98,0 L 98,18 L 0,18 L 0,0 z"
           id="path81" />
      </clipPath>
      <clipPath
         clipPathUnits="userSpaceOnUse"
         id="clipPath26">
        <path
           d="M 0,0 L 41,0 L 41,18 L 0,18 L 0,0 z"
           id="path84" />
      </clipPath>
      <clipPath
         clipPathUnits="userSpaceOnUse"
         id="clipPath27">
        <path
           d="M 0,0 L 190,0 L 190,50 L 0,50 L 0,0 z"
           id="path87" />
      </clipPath>
      <clipPath
         clipPathUnits="userSpaceOnUse"
         id="clipPath28">
        <path
           d="M 0,0 L 240,0 L 240,40 L 0,40 L 0,0 z"
           id="path90" />
      </clipPath>
      <clipPath
         clipPathUnits="userSpaceOnUse"
         id="clipPath29">
        <path
           d="M 0,0 L 190,0 L 190,40 L 0,40 L 0,0 z"
           id="path93" />
      </clipPath>
      <clipPath
         clipPathUnits="userSpaceOnUse"
         id="clipPath30">
        <path
           d="M 0,0 L 180,0 L 180,40 L 0,40 L 0,0 z"
           id="path96" />
      </clipPath>
      <clipPath
         clipPathUnits="userSpaceOnUse"
         id="clipPath31">
        <path
           d="M 0,0 L 150,0 L 150,40 L 0,40 L 0,0 z"
           id="path99" />
      </clipPath>
      <clipPath
         clipPathUnits="userSpaceOnUse"
         id="clipPath32">
        <path
           d="M 0,0 L 130,0 L 130,40 L 0,40 L 0,0 z"
           id="path102" />
      </clipPath>
      <clipPath
         clipPathUnits="userSpaceOnUse"
         id="clipPath33">
        <path
           d="M 0,0 L 220,0 L 220,35 L 0,35 L 0,0 z"
           id="path105" />
      </clipPath>
      <clipPath
         clipPathUnits="userSpaceOnUse"
         id="clipPath34">
        <path
           d="M 0,0 L 200,0 L 200,35 L 0,35 L 0,0 z"
           id="path108" />
      </clipPath>
      <clipPath
         clipPathUnits="userSpaceOnUse"
         id="clipPath35">
        <path
           d="M 0,0 L 800,0 L 800,21 L 0,21 L 0,0 z"
           id="path111" />
      </clipPath>
      <clipPath
         clipPathUnits="userSpaceOnUse"
         id="clipPath36">
        <path
           d="M 0,0 L 590,0 L 590,21 L 0,21 L 0,0 z"
           id="path114" />
      </clipPath>
      <clipPath
         clipPathUnits="userSpaceOnUse"
         id="clipPath37">
        <path
           d="M 0,0 L 219,0 L 219,129 L 0,129 L 0,0 z"
           id="path117" />
      </clipPath>
      <clipPath
         clipPathUnits="userSpaceOnUse"
         id="clipPath38">
        <path
           d="M 0,0 L 298,0 L 298,129 L 0,129 L 0,0 z"
           id="path120" />
      </clipPath>
      <clipPath
         clipPathUnits="userSpaceOnUse"
         id="clipPath39">
        <path
           d="M 0,0 L 370,0 L 370,159 L 0,159 L 0,0 z"
           id="path123" />
      </clipPath>
      <clipPath
         clipPathUnits="userSpaceOnUse"
         id="clipPath40">
        <path
           d="M 0,0 L 369,0 L 369,169 L 0,169 L 0,0 z"
           id="path126" />
      </clipPath>
      <clipPath
         clipPathUnits="userSpaceOnUse"
         id="clipPath41">
        <path
           d="M 0,0 L 129,0 L 129,249 L 0,249 L 0,0 z"
           id="path129" />
      </clipPath>
      <clipPath
         clipPathUnits="userSpaceOnUse"
         id="clipPath42">
        <path
           d="M 0,0 L 129,0 L 129,219 L 0,219 L 0,0 z"
           id="path132" />
      </clipPath>
      <clipPath
         clipPathUnits="userSpaceOnUse"
         id="clipPath43">
        <path
           d="M 0,0 L 228,0 L 228,189 L 0,189 L 0,0 z"
           id="path135" />
      </clipPath>
      <clipPath
         clipPathUnits="userSpaceOnUse"
         id="clipPath44">
        <path
           d="M 0,0 L 579,0 L 579,153 L 0,153 L 0,0 z"
           id="path138" />
      </clipPath>
      <clipPath
         clipPathUnits="userSpaceOnUse"
         id="clipPath45">
        <path
           d="M 0,0 L 293,0 L 293,158 L 0,158 L 0,0 z"
           id="path141" />
      </clipPath>
      <clipPath
         clipPathUnits="userSpaceOnUse"
         id="clipPath46">
        <path
           d="M 0,0 L 212,0 L 212,283 L 0,283 L 0,0 z"
           id="path144" />
      </clipPath>
      <clipPath
         clipPathUnits="userSpaceOnUse"
         id="clipPath47">
        <path
           d="M 0,0 L 264,0 L 264,129 L 0,129 L 0,0 z"
           id="path147" />
      </clipPath>
      <clipPath
         clipPathUnits="userSpaceOnUse"
         id="clipPath48">
        <path
           d="M 0,0 L 199,0 L 199,374 L 0,374 L 0,0 z"
           id="path150" />
      </clipPath>
      <clipPath
         clipPathUnits="userSpaceOnUse"
         id="clipPath49">
        <path
           d="M 0,0 L 574,0 L 574,153 L 0,153 L 0,0 z"
           id="path153" />
      </clipPath>
      <clipPath
         clipPathUnits="userSpaceOnUse"
         id="clipPath50">
        <path
           d="M 0,0 L 544,0 L 544,350 L 0,350 L 0,0 z"
           id="path156" />
      </clipPath>
      <clipPath
         clipPathUnits="userSpaceOnUse"
         id="clipPath51">
        <path
           d="M 0,0 L 550,0 L 550,288 L 0,288 L 0,0 z"
           id="path159" />
      </clipPath>
      <clipPath
         clipPathUnits="userSpaceOnUse"
         id="clipPath52">
        <path
           d="M 0,0 L 544,0 L 544,452 L 0,452 L 0,0 z"
           id="path162" />
      </clipPath>
      <clipPath
         clipPathUnits="userSpaceOnUse"
         id="clipPath53">
        <path
           d="M 0,0 L 329,0 L 329,149 L 0,149 L 0,0 z"
           id="path165" />
      </clipPath>
      <clipPath
         clipPathUnits="userSpaceOnUse"
         id="clipPath54">
        <path
           d="M 0,0 L 549,0 L 549,172 L 0,172 L 0,0 z"
           id="path168" />
      </clipPath>
      <clipPath
         clipPathUnits="userSpaceOnUse"
         id="clipPath55">
        <path
           d="M 0,0 L 275,0 L 275,129 L 0,129 L 0,0 z"
           id="path171" />
      </clipPath>
      <clipPath
         clipPathUnits="userSpaceOnUse"
         id="clipPath56">
        <path
           d="M 0,0 L 589,0 L 589,192 L 0,192 L 0,0 z"
           id="path174" />
      </clipPath>
      <clipPath
         clipPathUnits="userSpaceOnUse"
         id="clipPath57">
        <path
           d="M 0,0 L 563,0 L 563,186 L 0,186 L 0,0 z"
           id="path177" />
      </clipPath>
      <clipPath
         clipPathUnits="userSpaceOnUse"
         id="clipPath58">
        <path
           d="M 0,0 L 78,0 L 78,15 L 0,15 L 0,0 z"
           id="path180" />
      </clipPath>
    </defs>
    <g
       transform="translate(120,100)"
       style="font-size:16px;font-weight:bold;fill:#ffffff;stroke:#ffffff;font-family:sans-serif"
       id="g186">
      <rect
         x="0"
         y="0"
         width="799"
         style="stroke:none"
         height="749"
         id="rect188" />
    </g>
    <g
       transform="translate(120,100)"
       style="font-size:16px;font-weight:bold;stroke-linecap:butt;stroke-linejoin:round;stroke-miterlimit:0;font-family:sans-serif"
       id="g190">
      <rect
         x="0"
         y="0"
         width="799"
         style="fill:none"
         height="749"
         id="rect192" />
    </g>
    <g
       transform="translate(150,140)"
       style="font-size:16px;font-weight:bold;fill:#ffffff;stroke:#ffffff;font-family:sans-serif"
       id="g194">
      <rect
         x="0"
         y="0"
         width="589"
         style="stroke:none"
         height="679"
         id="rect196" />
    </g>
    <g
       transform="translate(150,140)"
       style="font-size:16px;font-weight:bold;stroke-linecap:butt;stroke-linejoin:round;stroke-miterlimit:0;font-family:sans-serif"
       id="g198">
      <rect
         x="0"
         y="0"
         width="589"
         style="fill:none"
         height="679"
         id="rect200" />
    </g>
    <g
       transform="translate(40,720)"
       style="font-size:11px;fill:#ffffff;stroke:#ffffff;font-family:sans-serif"
       id="g202">
      <circle
         style="stroke:none"
         r="7.5"
         cx="14.5"
         cy="7.5"
         id="circle204"
         sodipodi:cx="14.5"
         sodipodi:cy="7.5"
         sodipodi:rx="7.5"
         sodipodi:ry="7.5" />
    </g>
    <g
       transform="translate(40,720)"
       style="font-size:11px;stroke-linecap:butt;stroke-linejoin:round;stroke-miterlimit:0;font-family:sans-serif"
       id="g206">
      <circle
         style="fill:none"
         r="7.5"
         cx="14.5"
         cy="7.5"
         id="circle208"
         sodipodi:cx="14.5"
         sodipodi:cy="7.5"
         sodipodi:rx="7.5"
         sodipodi:ry="7.5" />
      <line
         x1="15"
         x2="15"
         y1="15"
         style="fill:none"
         y2="40"
         id="line210" />
      <line
         x1="0"
         x2="30"
         y1="24"
         style="fill:none"
         y2="24"
         id="line212" />
      <line
         x1="15"
         x2="0"
         y1="40"
         style="fill:none"
         y2="60"
         id="line214" />
      <line
         x1="15"
         x2="30"
         y1="40"
         style="fill:none"
         y2="60"
         id="line216" />
    </g>
    <g
       transform="translate(40,520)"
       style="font-size:11px;fill:#ffffff;stroke:#ffffff;font-family:sans-serif"
       id="g218">
      <circle
         style="stroke:none"
         r="7.5"
         cx="14.5"
         cy="7.5"
         id="circle220"
         sodipodi:cx="14.5"
         sodipodi:cy="7.5"
         sodipodi:rx="7.5"
         sodipodi:ry="7.5" />
    </g>
    <g
       transform="translate(40,520)"
       style="font-size:11px;stroke-linecap:butt;stroke-linejoin:round;stroke-miterlimit:0;font-family:sans-serif"
       id="g222">
      <circle
         style="fill:none"
         r="7.5"
         cx="14.5"
         cy="7.5"
         id="circle224"
         sodipodi:cx="14.5"
         sodipodi:cy="7.5"
         sodipodi:rx="7.5"
         sodipodi:ry="7.5" />
      <line
         x1="15"
         x2="15"
         y1="15"
         style="fill:none"
         y2="40"
         id="line226" />
      <line
         x1="0"
         x2="30"
         y1="24"
         style="fill:none"
         y2="24"
         id="line228" />
      <line
         x1="15"
         x2="0"
         y1="40"
         style="fill:none"
         y2="60"
         id="line230" />
      <line
         x1="15"
         x2="30"
         y1="40"
         style="fill:none"
         y2="60"
         id="line232" />
    </g>
    <g
       transform="translate(40,350)"
       style="font-size:11px;fill:#ffffff;stroke:#ffffff;font-family:sans-serif"
       id="g234">
      <circle
         style="stroke:none"
         r="7.5"
         cx="14.5"
         cy="7.5"
         id="circle236"
         sodipodi:cx="14.5"
         sodipodi:cy="7.5"
         sodipodi:rx="7.5"
         sodipodi:ry="7.5" />
    </g>
    <g
       transform="translate(40,350)"
       style="font-size:11px;stroke-linecap:butt;stroke-linejoin:round;stroke-miterlimit:0;font-family:sans-serif"
       id="g238">
      <circle
         style="fill:none"
         r="7.5"
         cx="14.5"
         cy="7.5"
         id="circle240"
         sodipodi:cx="14.5"
         sodipodi:cy="7.5"
         sodipodi:rx="7.5"
         sodipodi:ry="7.5" />
      <line
         x1="15"
         x2="15"
         y1="15"
         style="fill:none"
         y2="40"
         id="line242" />
      <line
         x1="0"
         x2="30"
         y1="24"
         style="fill:none"
         y2="24"
         id="line244" />
      <line
         x1="15"
         x2="0"
         y1="40"
         style="fill:none"
         y2="60"
         id="line246" />
      <line
         x1="15"
         x2="30"
         y1="40"
         style="fill:none"
         y2="60"
         id="line248" />
    </g>
    <g
       transform="translate(500,710)"
       style="font-size:11px;fill:#ffffff;stroke:#ffffff;font-family:sans-serif"
       id="g250">
      <ellipse
         style="stroke:none"
         rx="95"
         cx="95"
         ry="25"
         cy="25"
         id="ellipse252"
         sodipodi:cx="95"
         sodipodi:cy="25"
         sodipodi:rx="95"
         sodipodi:ry="25" />
    </g>
    <g
       transform="translate(500,710)"
       style="font-size:11px;stroke-linecap:butt;stroke-linejoin:round;stroke-miterlimit:0;font-family:sans-serif"
       id="g254">
      <ellipse
         style="fill:none"
         rx="95"
         cx="95"
         ry="25"
         cy="25"
         id="ellipse256"
         sodipodi:cx="95"
         sodipodi:cy="25"
         sodipodi:rx="95"
         sodipodi:ry="25" />
    </g>
    <g
       transform="translate(500,640)"
       style="font-size:11px;fill:#ffffff;stroke:#ffffff;font-family:sans-serif"
       id="g258">
      <ellipse
         style="stroke:none"
         rx="95"
         cx="95"
         ry="25"
         cy="25"
         id="ellipse260"
         sodipodi:cx="95"
         sodipodi:cy="25"
         sodipodi:rx="95"
         sodipodi:ry="25" />
    </g>
    <g
       transform="translate(500,640)"
       style="font-size:11px;stroke-linecap:butt;stroke-linejoin:round;stroke-miterlimit:0;font-family:sans-serif"
       id="g262">
      <ellipse
         style="fill:none"
         rx="95"
         cx="95"
         ry="25"
         cy="25"
         id="ellipse264"
         sodipodi:cx="95"
         sodipodi:cy="25"
         sodipodi:rx="95"
         sodipodi:ry="25" />
    </g>
    <g
       transform="translate(240,400)"
       style="font-size:11px;fill:#ffffff;stroke:#ffffff;font-family:sans-serif"
       id="g266">
      <ellipse
         style="stroke:none"
         rx="70"
         cx="70"
         ry="20"
         cy="20"
         id="ellipse268"
         sodipodi:cx="70"
         sodipodi:cy="20"
         sodipodi:rx="70"
         sodipodi:ry="20" />
    </g>
    <g
       transform="translate(240,400)"
       style="font-size:11px;stroke-linecap:butt;stroke-linejoin:round;stroke-miterlimit:0;font-family:sans-serif"
       id="g270">
      <ellipse
         style="fill:none"
         rx="70"
         cx="70"
         ry="20"
         cy="20"
         id="ellipse272"
         sodipodi:cx="70"
         sodipodi:cy="20"
         sodipodi:rx="70"
         sodipodi:ry="20" />
    </g>
    <g
       transform="translate(470,400)"
       style="font-size:11px;fill:#ffffff;stroke:#ffffff;font-family:sans-serif"
       id="g274">
      <ellipse
         style="stroke:none"
         rx="120"
         cx="120"
         ry="20"
         cy="20"
         id="ellipse276"
         sodipodi:cx="120"
         sodipodi:cy="20"
         sodipodi:rx="120"
         sodipodi:ry="20" />
    </g>
    <g
       transform="translate(470,400)"
       style="font-size:11px;stroke-linecap:butt;stroke-linejoin:round;stroke-miterlimit:0;font-family:sans-serif"
       id="g278">
      <ellipse
         style="fill:none"
         rx="120"
         cx="120"
         ry="20"
         cy="20"
         id="ellipse280"
         sodipodi:cx="120"
         sodipodi:cy="20"
         sodipodi:rx="120"
         sodipodi:ry="20" />
    </g>
    <g
       transform="translate(500,580)"
       style="font-size:11px;fill:#ffffff;stroke:#ffffff;font-family:sans-serif"
       id="g282">
      <ellipse
         style="stroke:none"
         rx="95"
         cx="95"
         ry="20"
         cy="20"
         id="ellipse284"
         sodipodi:cx="95"
         sodipodi:cy="20"
         sodipodi:rx="95"
         sodipodi:ry="20" />
    </g>
    <g
       transform="translate(500,580)"
       style="font-size:11px;stroke-linecap:butt;stroke-linejoin:round;stroke-miterlimit:0;font-family:sans-serif"
       id="g286">
      <ellipse
         style="fill:none"
         rx="95"
         cx="95"
         ry="20"
         cy="20"
         id="ellipse288"
         sodipodi:cx="95"
         sodipodi:cy="20"
         sodipodi:rx="95"
         sodipodi:ry="20" />
    </g>
    <g
       transform="translate(170,660)"
       style="font-size:11px;fill:#ffffff;stroke:#ffffff;font-family:sans-serif"
       id="g290">
      <ellipse
         style="stroke:none"
         rx="90"
         cx="90"
         ry="20"
         cy="20"
         id="ellipse292"
         sodipodi:cx="90"
         sodipodi:cy="20"
         sodipodi:rx="90"
         sodipodi:ry="20" />
    </g>
    <g
       transform="translate(170,660)"
       style="font-size:11px;stroke-linecap:butt;stroke-linejoin:round;stroke-miterlimit:0;font-family:sans-serif"
       id="g294">
      <ellipse
         style="fill:none"
         rx="90"
         cx="90"
         ry="20"
         cy="20"
         id="ellipse296"
         sodipodi:cx="90"
         sodipodi:cy="20"
         sodipodi:rx="90"
         sodipodi:ry="20" />
    </g>
    <g
       transform="translate(180,570)"
       style="font-size:11px;fill:#ffffff;stroke:#ffffff;font-family:sans-serif"
       id="g298">
      <ellipse
         style="stroke:none"
         rx="75"
         cx="75"
         ry="20"
         cy="20"
         id="ellipse300"
         sodipodi:cx="75"
         sodipodi:cy="20"
         sodipodi:rx="75"
         sodipodi:ry="20" />
    </g>
    <g
       transform="translate(180,570)"
       style="font-size:11px;stroke-linecap:butt;stroke-linejoin:round;stroke-miterlimit:0;font-family:sans-serif"
       id="g302">
      <ellipse
         style="fill:none"
         rx="75"
         cx="75"
         ry="20"
         cy="20"
         id="ellipse304"
         sodipodi:cx="75"
         sodipodi:cy="20"
         sodipodi:rx="75"
         sodipodi:ry="20" />
    </g>
    <g
       transform="translate(190,480)"
       style="font-size:11px;fill:#ffffff;stroke:#ffffff;font-family:sans-serif"
       id="g306">
      <ellipse
         style="stroke:none"
         rx="65"
         cx="65"
         ry="20"
         cy="20"
         id="ellipse308"
         sodipodi:cx="65"
         sodipodi:cy="20"
         sodipodi:rx="65"
         sodipodi:ry="20" />
    </g>
    <g
       transform="translate(190,480)"
       style="font-size:11px;stroke-linecap:butt;stroke-linejoin:round;stroke-miterlimit:0;font-family:sans-serif"
       id="g310">
      <ellipse
         style="fill:none"
         rx="65"
         cx="65"
         ry="20"
         cy="20"
         id="ellipse312"
         sodipodi:cx="65"
         sodipodi:cy="20"
         sodipodi:rx="65"
         sodipodi:ry="20" />
    </g>
    <g
       transform="translate(190,240)"
       style="font-size:11px;fill:#ffffff;stroke:#ffffff;font-family:sans-serif"
       id="g314">
      <ellipse
         style="stroke:none"
         rx="110"
         cx="110"
         ry="45"
         cy="45"
         id="ellipse316"
         sodipodi:cx="110"
         sodipodi:cy="45"
         sodipodi:rx="110"
         sodipodi:ry="45" />
    </g>
    <g
       transform="translate(190,240)"
       style="font-size:11px;stroke-linecap:butt;stroke-linejoin:round;stroke-miterlimit:0;font-family:sans-serif"
       id="g318">
      <ellipse
         style="fill:none"
         rx="110"
         cx="110"
         ry="45"
         cy="45"
         id="ellipse320"
         sodipodi:cx="110"
         sodipodi:cy="45"
         sodipodi:rx="110"
         sodipodi:ry="45" />
    </g>
    <g
       style="font-size:11px;font-family:sans-serif"
       transform="translate(190,275)"
       id="g322">
      <line
         x1="2"
         x2="217"
         y1="0"
         style="fill:none"
         y2="0"
         id="line324" />
    </g>
    <g
       style="font-size:11px;font-family:sans-serif"
       transform="translate(247,309)"
       id="g326">
      <text
         x="4"
         y="12"
         style="stroke:none"
         xml:space="preserve"
         id="text328">Click on list column</text>
    </g>
    <g
       style="font-size:11px;font-family:sans-serif"
       transform="translate(247,294)"
       id="g330">
      <text
         x="4"
         y="12"
         style="stroke:none"
         xml:space="preserve"
         id="text332">Search for keyword</text>
    </g>
    <g
       transform="translate(247,275)"
       style="font-size:11px;font-weight:bold;font-family:sans-serif"
       id="g334">
      <text
         x="4"
         y="16"
         style="stroke:none"
         xml:space="preserve"
         id="text336">Extension Points</text>
    </g>
    <g
       transform="translate(460,240)"
       style="font-size:11px;fill:#ffffff;stroke:#ffffff;font-family:sans-serif"
       id="g338">
      <ellipse
         style="stroke:none"
         rx="100"
         cx="100"
         ry="45"
         cy="45"
         id="ellipse340"
         sodipodi:cx="100"
         sodipodi:cy="45"
         sodipodi:rx="100"
         sodipodi:ry="45" />
    </g>
    <g
       transform="translate(460,240)"
       style="font-size:11px;stroke-linecap:butt;stroke-linejoin:round;stroke-miterlimit:0;font-family:sans-serif"
       id="g342">
      <ellipse
         style="fill:none"
         rx="100"
         cx="100"
         ry="45"
         cy="45"
         id="ellipse344"
         sodipodi:cx="100"
         sodipodi:cy="45"
         sodipodi:rx="100"
         sodipodi:ry="45" />
    </g>
    <g
       style="font-size:11px;font-family:sans-serif"
       transform="translate(460,275)"
       id="g346">
      <line
         x1="2"
         x2="197"
         y1="0"
         style="fill:none"
         y2="0"
         id="line348" />
    </g>
    <g
       style="font-size:11px;font-family:sans-serif"
       transform="translate(507,309)"
       id="g350">
      <text
         x="4"
         y="12"
         style="stroke:none"
         xml:space="preserve"
         id="text352">Click on list column</text>
    </g>
    <g
       style="font-size:11px;font-family:sans-serif"
       transform="translate(507,294)"
       id="g354">
      <text
         x="4"
         y="12"
         style="stroke:none"
         xml:space="preserve"
         id="text356">Search for keyword</text>
    </g>
    <g
       transform="translate(507,275)"
       style="font-size:11px;font-weight:bold;font-family:sans-serif"
       id="g358">
      <text
         x="4"
         y="16"
         style="stroke:none"
         xml:space="preserve"
         id="text360">Extension Points</text>
    </g>
    <g
       transform="translate(760,180)"
       style="font-size:11px;fill:#ffffff;stroke:#ffffff;font-family:sans-serif"
       id="g362">
      <ellipse
         style="stroke:none"
         rx="70"
         cx="70"
         ry="20"
         cy="20"
         id="ellipse364"
         sodipodi:cx="70"
         sodipodi:cy="20"
         sodipodi:rx="70"
         sodipodi:ry="20" />
    </g>
    <g
       transform="translate(760,180)"
       style="font-size:11px;stroke-linecap:butt;stroke-linejoin:round;stroke-miterlimit:0;font-family:sans-serif"
       id="g366">
      <ellipse
         style="fill:none"
         rx="70"
         cx="70"
         ry="20"
         cy="20"
         id="ellipse368"
         sodipodi:cx="70"
         sodipodi:cy="20"
         sodipodi:rx="70"
         sodipodi:ry="20" />
    </g>
    <g
       transform="translate(790,260)"
       style="font-size:11px;fill:#ffffff;stroke:#ffffff;font-family:sans-serif"
       id="g370">
      <ellipse
         style="stroke:none"
         rx="40"
         cx="40"
         ry="20"
         cy="20"
         id="ellipse372"
         sodipodi:cx="40"
         sodipodi:cy="20"
         sodipodi:rx="40"
         sodipodi:ry="20" />
    </g>
    <g
       transform="translate(790,260)"
       style="font-size:11px;stroke-linecap:butt;stroke-linejoin:round;stroke-miterlimit:0;font-family:sans-serif"
       id="g374">
      <ellipse
         style="fill:none"
         rx="40"
         cx="40"
         ry="20"
         cy="20"
         id="ellipse376"
         sodipodi:cx="40"
         sodipodi:cy="20"
         sodipodi:rx="40"
         sodipodi:ry="20" />
    </g>
    <g
       transform="translate(500,480)"
       style="font-size:11px;fill:#ffffff;stroke:#ffffff;font-family:sans-serif"
       id="g386">
      <ellipse
         style="stroke:none"
         rx="85"
         cx="85"
         ry="20"
         cy="20"
         id="ellipse388"
         sodipodi:cx="85"
         sodipodi:cy="20"
         sodipodi:rx="85"
         sodipodi:ry="20" />
    </g>
    <g
       transform="translate(500,480)"
       style="font-size:11px;stroke-linecap:butt;stroke-linejoin:round;stroke-miterlimit:0;font-family:sans-serif"
       id="g390">
      <ellipse
         style="fill:none"
         rx="85"
         cx="85"
         ry="20"
         cy="20"
         id="ellipse392"
         sodipodi:cx="85"
         sodipodi:cy="20"
         sodipodi:rx="85"
         sodipodi:ry="20" />
    </g>
    <g
       style="font-size:11px;font-family:sans-serif"
       transform="translate(500,480)"
       id="g394">
      <text
         x="16"
         y="24"
         style="stroke:none"
         xml:space="preserve"
         id="text396">Complete work item for user</text>
    </g>
    <g
       style="font-size:11px;font-family:sans-serif"
       transform="translate(790,260)"
       id="g398">
      <text
         x="7"
         y="24"
         style="stroke:none"
         xml:space="preserve"
         id="text400">Filter list view</text>
    </g>
    <g
       style="font-size:11px;font-family:sans-serif"
       transform="translate(760,180)"
       id="g402">
      <text
         x="8"
         y="24"
         style="stroke:none"
         xml:space="preserve"
         id="text404">Change list view ordering</text>
    </g>
    <g
       style="font-size:11px;font-family:sans-serif"
       transform="translate(5,410)"
       id="g406">
      <text
         x="10"
         y="13"
         style="stroke:none"
         xml:space="preserve"
         id="text408">Workflow Admin</text>
    </g>
    <g
       style="font-size:11px;font-family:sans-serif"
       transform="translate(6,580)"
       id="g410">
      <text
         x="10"
         y="13"
         style="stroke:none"
         xml:space="preserve"
         id="text412">Registered User</text>
    </g>
    <g
       style="font-size:11px;font-family:sans-serif"
       transform="translate(35,780)"
       id="g414">
      <text
         x="9"
         y="13"
         style="stroke:none"
         xml:space="preserve"
         id="text416">User</text>
    </g>
    <g
       style="font-size:11px;font-family:sans-serif"
       transform="translate(500,710)"
       id="g418">
      <text
         x="16"
         y="22"
         style="stroke:none"
         xml:space="preserve"
         id="text420">Add user to a prepared workflow</text>
      <text
         x="41"
         y="37"
         style="stroke:none"
         xml:space="preserve"
         id="text422">instance configuration</text>
    </g>
    <g
       style="font-size:11px;font-family:sans-serif"
       transform="translate(500,640)"
       id="g424">
      <text
         x="16"
         y="22"
         style="stroke:none"
         xml:space="preserve"
         id="text426">Change user roles of a prepared</text>
      <text
         x="19"
         y="37"
         style="stroke:none"
         xml:space="preserve"
         id="text428">workflow instance configuration</text>
    </g>
    <g
       style="font-size:11px;font-family:sans-serif"
       transform="translate(240,400)"
       id="g430">
      <text
         x="9"
         y="24"
         style="stroke:none"
         xml:space="preserve"
         id="text432">Create workflow instance</text>
    </g>
    <g
       style="font-size:11px;font-family:sans-serif"
       transform="translate(470,400)"
       id="g434">
      <text
         x="20"
         y="17"
         style="stroke:none"
         xml:space="preserve"
         id="text436">Start workflow instance (from a prepared</text>
      <text
         x="41"
         y="32"
         style="stroke:none"
         xml:space="preserve"
         id="text438">workflow instance configuration)</text>
    </g>
    <g
       style="font-size:11px;font-family:sans-serif"
       transform="translate(500,580)"
       id="g440">
      <text
         x="22"
         y="17"
         style="stroke:none"
         xml:space="preserve"
         id="text442">Remove user from a prepared</text>
      <text
         x="19"
         y="32"
         style="stroke:none"
         xml:space="preserve"
         id="text444">workflow instance configuration</text>
    </g>
    <g
       style="font-size:11px;font-family:sans-serif"
       transform="translate(170,660)"
       id="g446">
      <text
         x="9"
         y="24"
         style="stroke:none"
         xml:space="preserve"
         id="text448">Edit prepared workflow instances</text>
    </g>
    <g
       style="font-size:11px;font-family:sans-serif"
       transform="translate(180,570)"
       id="g450">
      <text
         x="10"
         y="24"
         style="stroke:none"
         xml:space="preserve"
         id="text452">Prepare workflow instance</text>
    </g>
    <g
       style="font-size:11px;font-family:sans-serif"
       transform="translate(190,480)"
       id="g454">
      <text
         x="17"
         y="17"
         style="stroke:none"
         xml:space="preserve"
         id="text456">Terminate workflow</text>
      <text
         x="45"
         y="32"
         style="stroke:none"
         xml:space="preserve"
         id="text458">instance</text>
    </g>
    <g
       style="font-size:11px;font-family:sans-serif"
       transform="translate(190,240)"
       id="g460">
      <text
         x="39"
         y="22"
         style="stroke:none"
         xml:space="preserve"
         id="text462">View own workflow instances</text>
    </g>
    <g
       style="font-size:11px;font-family:sans-serif"
       transform="translate(460,240)"
       id="g464">
      <text
         x="46"
         y="22"
         style="stroke:none"
         xml:space="preserve"
         id="text466">View workflow models</text>
    </g>
    <g
       transform="translate(120,100)"
       style="font-size:16px;font-weight:bold;font-family:sans-serif"
       id="g468">
      <text
         x="372"
         y="17"
         style="stroke:none"
         xml:space="preserve"
         id="text470">DecidR</text>
    </g>
    <g
       transform="translate(150,140)"
       style="font-size:16px;font-weight:bold;font-family:sans-serif"
       id="g472">
      <text
         x="173"
         y="17"
         style="stroke:none"
         xml:space="preserve"
         id="text474">Workflow instance management</text>
    </g>
    <g
       transform="translate(318,358)"
       style="font-size:11px;stroke-linecap:butt;stroke-linejoin:round;font-family:sans-serif"
       id="g476">
      <line
         x1="63"
         x2="153"
         y1="63"
         style="fill:none"
         y2="63"
         id="line478" />
      <polygon
         style="fill:#ffffff;stroke:none"
         points="63,63 75,69 75,57 63,63 "
         id="polygon480" />
      <polygon
         style="fill:none"
         points="63,63 75,69 75,57 63,63 "
         id="polygon482" />
    </g>
    <g
       transform="translate(288,618)"
       style="font-size:11px;stroke-linecap:butt;stroke-linejoin:round;font-family:sans-serif"
       id="g484">
      <line
         x1="63"
         x2="231"
         y1="63"
         style="fill:none"
         y2="63"
         id="line486" />
      <polygon
         style="fill:#ffffff;stroke:none"
         points="63,63 75,69 75,57 63,63 "
         id="polygon488" />
      <polygon
         style="fill:none"
         points="63,63 75,69 75,57 63,63 "
         id="polygon490" />
    </g>
    <g
       transform="translate(198,638)"
       style="font-size:11px;stroke-linecap:butt;stroke-linejoin:round;font-family:sans-serif"
       id="g492">
      <line
         x1="63"
         x2="63"
         y1="63"
         style="fill:none"
         y2="93"
         id="line494" />
      <line
         x1="63"
         x2="304"
         y1="93"
         style="fill:none"
         y2="93"
         id="line496" />
      <polygon
         style="fill:#ffffff;stroke:none"
         points="63,63 57,75 69,75 63,63 "
         id="polygon498" />
      <polygon
         style="fill:none"
         points="63,63 57,75 69,75 63,63 "
         id="polygon500" />
    </g>
    <g
       transform="translate(198,558)"
       style="font-size:11px;stroke-linecap:butt;stroke-linejoin:round;font-family:sans-serif"
       id="g502">
      <line
         x1="63"
         x2="63"
         y1="103"
         style="fill:none"
         y2="63"
         id="line504" />
      <line
         x1="63"
         x2="303"
         y1="63"
         style="fill:none"
         y2="63"
         id="line506" />
      <polygon
         style="fill:#ffffff;stroke:none"
         points="63,103 69,91 57,91 63,103 "
         id="polygon508" />
      <polygon
         style="fill:none"
         points="63,103 69,91 57,91 63,103 "
         id="polygon510" />
    </g>
    <g
       transform="translate(-2,536)"
       style="font-size:11px;stroke-linecap:butt;stroke-linejoin:round;font-family:sans-serif"
       id="g512">
      <line
         x1="62"
         x2="62"
         y1="183"
         style="fill:none"
         y2="63"
         id="line514" />
      <polygon
         style="fill:#ffffff;stroke:none"
         points="62,183 68,171 56,171 62,183 "
         id="polygon516" />
      <polygon
         style="fill:none"
         points="62,183 68,171 56,171 62,183 "
         id="polygon518" />
    </g>
    <g
       transform="translate(-2,366)"
       style="font-size:11px;stroke-linecap:butt;stroke-linejoin:round;font-family:sans-serif"
       id="g520">
      <line
         x1="62"
         x2="62"
         y1="153"
         style="fill:none"
         y2="63"
         id="line522" />
      <polygon
         style="fill:#ffffff;stroke:none"
         points="62,153 68,141 56,141 62,153 "
         id="polygon524" />
      <polygon
         style="fill:none"
         points="62,153 68,141 56,141 62,153 "
         id="polygon526" />
    </g>
    <g
       transform="translate(41,365)"
       style="font-size:11px;stroke-linecap:butt;stroke-linejoin:round;font-family:sans-serif"
       id="g528">
      <line
         x1="63"
         x2="161"
         y1="63"
         style="fill:none"
         y2="123"
         id="line530" />
    </g>
    <g
       transform="translate(8,264)"
       style="font-size:11px;stroke-linecap:butt;stroke-linejoin:round;font-family:sans-serif"
       id="g532">
      <line
         x1="63"
         x2="513"
         y1="86"
         style="fill:none"
         y2="63"
         id="line534" />
    </g>
    <g
       transform="translate(8,259)"
       style="font-size:11px;stroke-linecap:butt;stroke-linejoin:round;font-family:sans-serif"
       id="g536">
      <line
         x1="63"
         x2="226"
         y1="91"
         style="fill:none"
         y2="63"
         id="line538" />
    </g>
    <g
       transform="translate(41,365)"
       style="font-size:11px;stroke-linecap:butt;stroke-linejoin:round;font-family:sans-serif"
       id="g540">
      <line
         x1="63"
         x2="145"
         y1="63"
         style="fill:none"
         y2="216"
         id="line542" />
    </g>
    <g
       transform="translate(42,358)"
       style="font-size:11px;stroke-linecap:butt;stroke-linejoin:round;font-family:sans-serif"
       id="g544">
      <line
         x1="63"
         x2="198"
         y1="63"
         style="fill:none"
         y2="63"
         id="line546" />
    </g>
    <g
       transform="translate(41,365)"
       style="font-size:11px;stroke-linecap:butt;stroke-linejoin:round;font-family:sans-serif"
       id="g548">
      <line
         x1="63"
         x2="133"
         y1="63"
         style="fill:none"
         y2="308"
         id="line550" />
    </g>
    <g
       transform="translate(8,318)"
       style="font-size:11px;stroke-linecap:butt;stroke-linejoin:round;font-family:sans-serif"
       id="g552">
      <line
         x1="508"
         x2="63"
         y1="86"
         style="fill:none"
         y2="63"
         id="line554" />
    </g>
    <g
       transform="translate(41,365)"
       style="font-size:11px;stroke-linecap:butt;stroke-linejoin:round;font-family:sans-serif"
       id="g556">
      <line
         x1="478"
         x2="259"
         y1="284"
         style="fill:none"
         y2="185"
         id="line558" />
      <line
         x1="259"
         x2="149"
         y1="185"
         style="fill:none"
         y2="185"
         id="line560" />
      <line
         x1="149"
         x2="63"
         y1="185"
         style="fill:none"
         y2="63"
         id="line562" />
    </g>
    <g
       transform="translate(41,365)"
       style="font-size:11px;stroke-linecap:butt;stroke-linejoin:round;font-family:sans-serif"
       id="g564">
      <line
         x1="484"
         x2="279"
         y1="221"
         style="fill:none"
         y2="175"
         id="line566" />
      <line
         x1="279"
         x2="149"
         y1="175"
         style="fill:none"
         y2="175"
         id="line568" />
      <line
         x1="149"
         x2="63"
         y1="175"
         style="fill:none"
         y2="63"
         id="line570" />
    </g>
    <g
       transform="translate(41,365)"
       style="font-size:11px;stroke-linecap:butt;stroke-linejoin:round;font-family:sans-serif"
       id="g572">
      <line
         x1="478"
         x2="139"
         y1="385"
         style="fill:none"
         y2="385"
         id="line574" />
      <line
         x1="139"
         x2="63"
         y1="385"
         style="fill:none"
         y2="63"
         id="line576" />
    </g>
    <g
       transform="translate(498,158)"
       style="font-size:11px;stroke-linecap:butt;stroke-linejoin:round;stroke-dasharray:4;font-family:sans-serif"
       id="g578">
      <line
         x1="63"
         x2="63"
         y1="83"
         style="fill:none"
         y2="63"
         id="line580" />
      <line
         x1="63"
         x2="263"
         y1="63"
         style="fill:none"
         y2="63"
         id="line582" />
      <line
         x1="63"
         x2="69"
         y1="83"
         style="fill:none;stroke-dasharray:none"
         y2="71"
         id="line584" />
      <line
         x1="63"
         x2="57"
         y1="83"
         style="fill:none;stroke-dasharray:none"
         y2="71"
         id="line586" />
    </g>
    <g
       transform="translate(278,138)"
       style="font-size:11px;stroke-linecap:butt;stroke-linejoin:round;stroke-dasharray:4;font-family:sans-serif"
       id="g588">
      <line
         x1="63"
         x2="63"
         y1="105"
         style="fill:none"
         y2="63"
         id="line590" />
      <line
         x1="63"
         x2="483"
         y1="63"
         style="fill:none"
         y2="63"
         id="line592" />
      <line
         x1="63"
         x2="69"
         y1="105"
         style="fill:none;stroke-dasharray:none"
         y2="93"
         id="line594" />
      <line
         x1="63"
         x2="57"
         y1="105"
         style="fill:none;stroke-dasharray:none"
         y2="93"
         id="line596" />
    </g>
    <g
       transform="translate(581,198)"
       style="font-size:11px;stroke-linecap:butt;stroke-linejoin:round;stroke-dasharray:4;font-family:sans-serif"
       id="g598">
      <line
         x1="63"
         x2="209"
         y1="63"
         style="fill:none"
         y2="63"
         id="line600" />
      <line
         x1="63"
         x2="75"
         y1="63"
         style="fill:none;stroke-dasharray:none"
         y2="69"
         id="line602" />
      <line
         x1="63"
         x2="75"
         y1="63"
         style="fill:none;stroke-dasharray:none"
         y2="57"
         id="line604" />
    </g>
    <g
       transform="translate(288,235)"
       style="font-size:11px;stroke-linecap:butt;stroke-linejoin:round;stroke-dasharray:4;font-family:sans-serif"
       id="g606">
      <line
         x1="63"
         x2="63"
         y1="91"
         style="fill:none"
         y2="125"
         id="line608" />
      <line
         x1="63"
         x2="523"
         y1="125"
         style="fill:none"
         y2="125"
         id="line610" />
      <line
         x1="523"
         x2="523"
         y1="125"
         style="fill:none"
         y2="63"
         id="line612" />
      <line
         x1="63"
         x2="57"
         y1="91"
         style="fill:none;stroke-dasharray:none"
         y2="103"
         id="line614" />
      <line
         x1="63"
         x2="69"
         y1="91"
         style="fill:none;stroke-dasharray:none"
         y2="103"
         id="line616" />
    </g>
    <g
       transform="translate(32,365)"
       style="font-size:11px;stroke-linecap:butt;stroke-linejoin:round;font-family:sans-serif"
       id="g618">
      <line
         x1="63"
         x2="496"
         y1="63"
         style="fill:none"
         y2="120"
         id="line620" />
    </g>
    <g
       style="font-size:11px;font-family:sans-serif"
       transform="translate(561,340)"
       id="g622">
      <text
         x="10"
         y="12"
         style="stroke:none"
         xml:space="preserve"
         id="text624">&lt;&lt;Extend&gt;&gt;</text>
    </g>
    <g
       style="font-size:11px;font-family:sans-serif"
       transform="translate(698,272)"
       id="g626">
      <text
         x="10"
         y="12"
         style="stroke:none"
         xml:space="preserve"
         id="text628">&lt;&lt;Extend&gt;&gt;</text>
    </g>
    <g
       style="font-size:11px;font-family:sans-serif"
       transform="translate(510,180)"
       id="g630">
      <text
         x="10"
         y="12"
         style="stroke:none"
         xml:space="preserve"
         id="text632">&lt;&lt;Extend&gt;&gt;</text>
    </g>
    <g
       style="font-size:11px;font-family:sans-serif"
       transform="translate(641,242)"
       id="g634">
      <text
         x="10"
         y="12"
         style="stroke:none"
         xml:space="preserve"
         id="text636">&lt;&lt;Extend&gt;&gt;</text>
    </g>
  </g>
</svg>
