<?xml version="1.0" encoding="UTF-8"?>

<!DOCTYPE svg PUBLIC '-//W3C//DTD SVG 1.0//EN' 'http://www.w3.org/TR/2001/REC-SVG-20010904/DTD/svg10.dtd'>
<svg style="fill-opacity:1; color-rendering:auto; color-interpolation:auto; text-rendering:auto; stroke:black; stroke-linecap:square; stroke-miterlimit:10; shape-rendering:auto; stroke-opacity:1; fill:black; stroke-dasharray:none; font-weight:normal; stroke-width:1; font-family:&apos;Dialog&apos;; font-style:normal; stroke-linejoin:miter; font-size:12; stroke-dashoffset:0; image-rendering:auto;" xmlns="http://www.w3.org/2000/svg" width="636" xmlns:xlink="http://www.w3.org/1999/xlink" height="456">
  <!--Generated by the Batik Graphics2D SVG Generator-->
  <defs id="genericDefs" />
  <g>
    <defs id="defs1">
      <clipPath clipPathUnits="userSpaceOnUse" id="clipPath1">
        <path d="M-3 -3 L637 -3 L637 47 L-3 47 L-3 -3 Z" />
      </clipPath>
      <clipPath clipPathUnits="userSpaceOnUse" id="clipPath2">
        <path d="M0 0 L0 31 L630 31 L630 0 Z" />
      </clipPath>
      <clipPath clipPathUnits="userSpaceOnUse" id="clipPath3">
        <path d="M-3 -3 L257 -3 L257 47 L-3 47 L-3 -3 Z" />
      </clipPath>
      <clipPath clipPathUnits="userSpaceOnUse" id="clipPath4">
        <path d="M0 0 L0 31 L250 31 L250 0 Z" />
      </clipPath>
      <clipPath clipPathUnits="userSpaceOnUse" id="clipPath5">
        <path d="M-3 -3 L157 -3 L157 47 L-3 47 L-3 -3 Z" />
      </clipPath>
      <clipPath clipPathUnits="userSpaceOnUse" id="clipPath6">
        <path d="M0 0 L0 31 L150 31 L150 0 Z" />
      </clipPath>
      <clipPath clipPathUnits="userSpaceOnUse" id="clipPath7">
        <path d="M0 0 L104 0 L104 153 L0 153 L0 0 Z" />
      </clipPath>
      <clipPath clipPathUnits="userSpaceOnUse" id="clipPath8">
        <path d="M0 0 L433 0 L433 224 L0 224 L0 0 Z" />
      </clipPath>
      <clipPath clipPathUnits="userSpaceOnUse" id="clipPath9">
        <path d="M0 0 L433 0 L433 424 L0 424 L0 0 Z" />
      </clipPath>
      <clipPath clipPathUnits="userSpaceOnUse" id="clipPath10">
        <path d="M0 0 L433 0 L433 324 L0 324 L0 0 Z" />
      </clipPath>
      <clipPath clipPathUnits="userSpaceOnUse" id="clipPath11">
        <path d="M0 0 L104 0 L104 173 L0 173 L0 0 Z" />
      </clipPath>
      <clipPath clipPathUnits="userSpaceOnUse" id="clipPath12">
        <path d="M0 0 L104 0 L104 163 L0 163 L0 0 Z" />
      </clipPath>
      <clipPath clipPathUnits="userSpaceOnUse" id="clipPath13">
        <path d="M0 0 L243 0 L243 104 L0 104 L0 0 Z" />
      </clipPath>
      <clipPath clipPathUnits="userSpaceOnUse" id="clipPath14">
        <path d="M0 0 L243 0 L243 214 L0 214 L0 0 Z" />
      </clipPath>
      <clipPath clipPathUnits="userSpaceOnUse" id="clipPath15">
        <path d="M0 0 L243 0 L243 314 L0 314 L0 0 Z" />
      </clipPath>
    </defs>
    <g style="fill:white; text-rendering:geometricPrecision; stroke:white;">
      <rect x="0" y="0" width="636" style="stroke:none;" height="456" />
    </g>
    <g transform="translate(2,2)" style="font-size:11; fill:rgb(122,207,245); text-rendering:geometricPrecision; font-family:sans-serif; stroke:rgb(122,207,245); font-weight:bold;">
      <rect x="0" y="0" width="630" style="clip-path:url(#clipPath1); stroke:none;" height="40" />
    </g>
    <g transform="translate(2,2)" style="stroke-linecap:butt; font-size:11; text-rendering:geometricPrecision; stroke-linejoin:round; font-family:sans-serif; font-weight:bold; stroke-miterlimit:0;">
      <rect x="0" y="0" width="629" style="clip-path:url(#clipPath1); fill:none;" height="39" />
      <line x1="614" x2="624" y1="5" style="stroke-linecap:square; clip-path:url(#clipPath1); fill:none; stroke-linejoin:miter; stroke-miterlimit:10;" y2="5" />
      <line x1="624" x2="624" y1="5" style="stroke-linecap:square; clip-path:url(#clipPath1); fill:none; stroke-linejoin:miter; stroke-miterlimit:10;" y2="21" />
      <line x1="614" x2="624" y1="21" style="stroke-linecap:square; clip-path:url(#clipPath1); fill:none; stroke-linejoin:miter; stroke-miterlimit:10;" y2="21" />
      <line x1="614" x2="614" y1="5" style="stroke-linecap:square; clip-path:url(#clipPath1); fill:none; stroke-linejoin:miter; stroke-miterlimit:10;" y2="8" />
      <rect x="611" y="8" width="7" style="stroke-linecap:square; clip-path:url(#clipPath1); fill:none; stroke-linejoin:miter; stroke-miterlimit:10;" height="4" />
      <line x1="614" x2="614" y1="12" style="stroke-linecap:square; clip-path:url(#clipPath1); fill:none; stroke-linejoin:miter; stroke-miterlimit:10;" y2="14" />
      <rect x="611" y="14" width="7" style="stroke-linecap:square; clip-path:url(#clipPath1); fill:none; stroke-linejoin:miter; stroke-miterlimit:10;" height="4" />
      <line x1="614" x2="614" y1="18" style="stroke-linecap:square; clip-path:url(#clipPath1); fill:none; stroke-linejoin:miter; stroke-miterlimit:10;" y2="21" />
    </g>
    <g style="text-rendering:geometricPrecision; font-size:11; font-family:sans-serif;" transform="translate(2,2)">
      <text x="266" y="14" style="clip-path:url(#clipPath2); stroke:none;" xml:space="preserve">&lt;&lt;component&gt;&gt;</text>
      <text x="305" y="28" style="clip-path:url(#clipPath2); stroke:none; font-weight:bold;" xml:space="preserve">GUI</text>
    </g>
    <g transform="translate(362,92)" style="font-size:11; fill:rgb(122,207,245); text-rendering:geometricPrecision; font-family:sans-serif; stroke:rgb(122,207,245); font-weight:bold;">
      <rect x="0" y="0" width="250" style="clip-path:url(#clipPath3); stroke:none;" height="40" />
    </g>
    <g transform="translate(362,92)" style="stroke-linecap:butt; font-size:11; text-rendering:geometricPrecision; stroke-linejoin:round; font-family:sans-serif; font-weight:bold; stroke-miterlimit:0;">
      <rect x="0" y="0" width="249" style="clip-path:url(#clipPath3); fill:none;" height="39" />
      <line x1="234" x2="244" y1="5" style="stroke-linecap:square; clip-path:url(#clipPath3); fill:none; stroke-linejoin:miter; stroke-miterlimit:10;" y2="5" />
      <line x1="244" x2="244" y1="5" style="stroke-linecap:square; clip-path:url(#clipPath3); fill:none; stroke-linejoin:miter; stroke-miterlimit:10;" y2="21" />
      <line x1="234" x2="244" y1="21" style="stroke-linecap:square; clip-path:url(#clipPath3); fill:none; stroke-linejoin:miter; stroke-miterlimit:10;" y2="21" />
      <line x1="234" x2="234" y1="5" style="stroke-linecap:square; clip-path:url(#clipPath3); fill:none; stroke-linejoin:miter; stroke-miterlimit:10;" y2="8" />
      <rect x="231" y="8" width="7" style="stroke-linecap:square; clip-path:url(#clipPath3); fill:none; stroke-linejoin:miter; stroke-miterlimit:10;" height="4" />
      <line x1="234" x2="234" y1="12" style="stroke-linecap:square; clip-path:url(#clipPath3); fill:none; stroke-linejoin:miter; stroke-miterlimit:10;" y2="14" />
      <rect x="231" y="14" width="7" style="stroke-linecap:square; clip-path:url(#clipPath3); fill:none; stroke-linejoin:miter; stroke-miterlimit:10;" height="4" />
      <line x1="234" x2="234" y1="18" style="stroke-linecap:square; clip-path:url(#clipPath3); fill:none; stroke-linejoin:miter; stroke-miterlimit:10;" y2="21" />
    </g>
    <g style="text-rendering:geometricPrecision; font-size:11; font-family:sans-serif;" transform="translate(362,92)">
      <text x="76" y="14" style="clip-path:url(#clipPath4); stroke:none;" xml:space="preserve">&lt;&lt;component&gt;&gt;</text>
      <text x="48" y="28" style="clip-path:url(#clipPath4); stroke:none; font-weight:bold;" xml:space="preserve">DecidR Control Component</text>
    </g>
    <g transform="translate(72,312)" style="font-size:11; fill:rgb(122,207,245); text-rendering:geometricPrecision; font-family:sans-serif; stroke:rgb(122,207,245); font-weight:bold;">
      <rect x="0" y="0" width="150" style="clip-path:url(#clipPath5); stroke:none;" height="40" />
    </g>
    <g transform="translate(72,312)" style="stroke-linecap:butt; font-size:11; text-rendering:geometricPrecision; stroke-linejoin:round; font-family:sans-serif; font-weight:bold; stroke-miterlimit:0;">
      <rect x="0" y="0" width="149" style="clip-path:url(#clipPath5); fill:none;" height="39" />
      <line x1="134" x2="144" y1="5" style="stroke-linecap:square; clip-path:url(#clipPath5); fill:none; stroke-linejoin:miter; stroke-miterlimit:10;" y2="5" />
      <line x1="144" x2="144" y1="5" style="stroke-linecap:square; clip-path:url(#clipPath5); fill:none; stroke-linejoin:miter; stroke-miterlimit:10;" y2="21" />
      <line x1="134" x2="144" y1="21" style="stroke-linecap:square; clip-path:url(#clipPath5); fill:none; stroke-linejoin:miter; stroke-miterlimit:10;" y2="21" />
      <line x1="134" x2="134" y1="5" style="stroke-linecap:square; clip-path:url(#clipPath5); fill:none; stroke-linejoin:miter; stroke-miterlimit:10;" y2="8" />
      <rect x="131" y="8" width="7" style="stroke-linecap:square; clip-path:url(#clipPath5); fill:none; stroke-linejoin:miter; stroke-miterlimit:10;" height="4" />
      <line x1="134" x2="134" y1="12" style="stroke-linecap:square; clip-path:url(#clipPath5); fill:none; stroke-linejoin:miter; stroke-miterlimit:10;" y2="14" />
      <rect x="131" y="14" width="7" style="stroke-linecap:square; clip-path:url(#clipPath5); fill:none; stroke-linejoin:miter; stroke-miterlimit:10;" height="4" />
      <line x1="134" x2="134" y1="18" style="stroke-linecap:square; clip-path:url(#clipPath5); fill:none; stroke-linejoin:miter; stroke-miterlimit:10;" y2="21" />
    </g>
    <g style="text-rendering:geometricPrecision; font-size:11; font-family:sans-serif;" transform="translate(72,312)">
      <text x="26" y="14" style="clip-path:url(#clipPath6); stroke:none;" xml:space="preserve">&lt;&lt;component&gt;&gt;</text>
      <text x="29" y="28" style="clip-path:url(#clipPath6); stroke:none; font-weight:bold;" xml:space="preserve">Human Task WS</text>
    </g>
    <g transform="translate(72,412)" style="font-size:11; fill:rgb(122,207,245); text-rendering:geometricPrecision; font-family:sans-serif; stroke:rgb(122,207,245); font-weight:bold;">
      <rect x="0" y="0" width="150" style="clip-path:url(#clipPath5); stroke:none;" height="40" />
    </g>
    <g transform="translate(72,412)" style="stroke-linecap:butt; font-size:11; text-rendering:geometricPrecision; stroke-linejoin:round; font-family:sans-serif; font-weight:bold; stroke-miterlimit:0;">
      <rect x="0" y="0" width="149" style="clip-path:url(#clipPath5); fill:none;" height="39" />
      <line x1="134" x2="144" y1="5" style="stroke-linecap:square; clip-path:url(#clipPath5); fill:none; stroke-linejoin:miter; stroke-miterlimit:10;" y2="5" />
      <line x1="144" x2="144" y1="5" style="stroke-linecap:square; clip-path:url(#clipPath5); fill:none; stroke-linejoin:miter; stroke-miterlimit:10;" y2="21" />
      <line x1="134" x2="144" y1="21" style="stroke-linecap:square; clip-path:url(#clipPath5); fill:none; stroke-linejoin:miter; stroke-miterlimit:10;" y2="21" />
      <line x1="134" x2="134" y1="5" style="stroke-linecap:square; clip-path:url(#clipPath5); fill:none; stroke-linejoin:miter; stroke-miterlimit:10;" y2="8" />
      <rect x="131" y="8" width="7" style="stroke-linecap:square; clip-path:url(#clipPath5); fill:none; stroke-linejoin:miter; stroke-miterlimit:10;" height="4" />
      <line x1="134" x2="134" y1="12" style="stroke-linecap:square; clip-path:url(#clipPath5); fill:none; stroke-linejoin:miter; stroke-miterlimit:10;" y2="14" />
      <rect x="131" y="14" width="7" style="stroke-linecap:square; clip-path:url(#clipPath5); fill:none; stroke-linejoin:miter; stroke-miterlimit:10;" height="4" />
      <line x1="134" x2="134" y1="18" style="stroke-linecap:square; clip-path:url(#clipPath5); fill:none; stroke-linejoin:miter; stroke-miterlimit:10;" y2="21" />
    </g>
    <g style="text-rendering:geometricPrecision; font-size:11; font-family:sans-serif;" transform="translate(72,412)">
      <text x="26" y="14" style="clip-path:url(#clipPath6); stroke:none;" xml:space="preserve">&lt;&lt;component&gt;&gt;</text>
      <text x="42" y="28" style="clip-path:url(#clipPath6); stroke:none; font-weight:bold;" xml:space="preserve">SendMailWS</text>
    </g>
    <g transform="translate(72,202)" style="font-size:11; fill:rgb(122,207,245); text-rendering:geometricPrecision; font-family:sans-serif; stroke:rgb(122,207,245); font-weight:bold;">
      <rect x="0" y="0" width="150" style="clip-path:url(#clipPath5); stroke:none;" height="40" />
    </g>
    <g transform="translate(72,202)" style="stroke-linecap:butt; font-size:11; text-rendering:geometricPrecision; stroke-linejoin:round; font-family:sans-serif; font-weight:bold; stroke-miterlimit:0;">
      <rect x="0" y="0" width="149" style="clip-path:url(#clipPath5); fill:none;" height="39" />
      <line x1="134" x2="144" y1="5" style="stroke-linecap:square; clip-path:url(#clipPath5); fill:none; stroke-linejoin:miter; stroke-miterlimit:10;" y2="5" />
      <line x1="144" x2="144" y1="5" style="stroke-linecap:square; clip-path:url(#clipPath5); fill:none; stroke-linejoin:miter; stroke-miterlimit:10;" y2="21" />
      <line x1="134" x2="144" y1="21" style="stroke-linecap:square; clip-path:url(#clipPath5); fill:none; stroke-linejoin:miter; stroke-miterlimit:10;" y2="21" />
      <line x1="134" x2="134" y1="5" style="stroke-linecap:square; clip-path:url(#clipPath5); fill:none; stroke-linejoin:miter; stroke-miterlimit:10;" y2="8" />
      <rect x="131" y="8" width="7" style="stroke-linecap:square; clip-path:url(#clipPath5); fill:none; stroke-linejoin:miter; stroke-miterlimit:10;" height="4" />
      <line x1="134" x2="134" y1="12" style="stroke-linecap:square; clip-path:url(#clipPath5); fill:none; stroke-linejoin:miter; stroke-miterlimit:10;" y2="14" />
      <rect x="131" y="14" width="7" style="stroke-linecap:square; clip-path:url(#clipPath5); fill:none; stroke-linejoin:miter; stroke-miterlimit:10;" height="4" />
      <line x1="134" x2="134" y1="18" style="stroke-linecap:square; clip-path:url(#clipPath5); fill:none; stroke-linejoin:miter; stroke-miterlimit:10;" y2="21" />
    </g>
    <g style="text-rendering:geometricPrecision; font-size:11; font-family:sans-serif;" transform="translate(72,202)">
      <text x="26" y="14" style="clip-path:url(#clipPath6); stroke:none;" xml:space="preserve">&lt;&lt;component&gt;&gt;</text>
      <text x="46" y="28" style="clip-path:url(#clipPath6); stroke:none; font-weight:bold;" xml:space="preserve">StorageWS</text>
    </g>
    <g transform="translate(362,202)" style="font-size:11; fill:rgb(122,207,245); text-rendering:geometricPrecision; font-family:sans-serif; stroke:rgb(122,207,245); font-weight:bold;">
      <rect x="0" y="0" width="250" style="clip-path:url(#clipPath3); stroke:none;" height="40" />
    </g>
    <g transform="translate(362,202)" style="stroke-linecap:butt; font-size:11; text-rendering:geometricPrecision; stroke-linejoin:round; font-family:sans-serif; font-weight:bold; stroke-miterlimit:0;">
      <rect x="0" y="0" width="249" style="clip-path:url(#clipPath3); fill:none;" height="39" />
      <line x1="234" x2="244" y1="5" style="stroke-linecap:square; clip-path:url(#clipPath3); fill:none; stroke-linejoin:miter; stroke-miterlimit:10;" y2="5" />
      <line x1="244" x2="244" y1="5" style="stroke-linecap:square; clip-path:url(#clipPath3); fill:none; stroke-linejoin:miter; stroke-miterlimit:10;" y2="21" />
      <line x1="234" x2="244" y1="21" style="stroke-linecap:square; clip-path:url(#clipPath3); fill:none; stroke-linejoin:miter; stroke-miterlimit:10;" y2="21" />
      <line x1="234" x2="234" y1="5" style="stroke-linecap:square; clip-path:url(#clipPath3); fill:none; stroke-linejoin:miter; stroke-miterlimit:10;" y2="8" />
      <rect x="231" y="8" width="7" style="stroke-linecap:square; clip-path:url(#clipPath3); fill:none; stroke-linejoin:miter; stroke-miterlimit:10;" height="4" />
      <line x1="234" x2="234" y1="12" style="stroke-linecap:square; clip-path:url(#clipPath3); fill:none; stroke-linejoin:miter; stroke-miterlimit:10;" y2="14" />
      <rect x="231" y="14" width="7" style="stroke-linecap:square; clip-path:url(#clipPath3); fill:none; stroke-linejoin:miter; stroke-miterlimit:10;" height="4" />
      <line x1="234" x2="234" y1="18" style="stroke-linecap:square; clip-path:url(#clipPath3); fill:none; stroke-linejoin:miter; stroke-miterlimit:10;" y2="21" />
    </g>
    <g style="text-rendering:geometricPrecision; font-size:11; font-family:sans-serif;" transform="translate(362,202)">
      <text x="76" y="14" style="clip-path:url(#clipPath4); stroke:none;" xml:space="preserve">&lt;&lt;component&gt;&gt;</text>
      <text x="24" y="28" style="clip-path:url(#clipPath4); stroke:none; font-weight:bold;" xml:space="preserve">WorkflowInstanceExcecutionService</text>
    </g>
    <g transform="translate(432,-8)" style="stroke-linecap:butt; font-size:11; stroke-dashoffset:1; text-rendering:geometricPrecision; stroke-linejoin:round; font-family:sans-serif; stroke-dasharray:5;">
      <line x1="50" x2="50" y1="50" style="clip-path:url(#clipPath7); fill:none;" y2="99" />
      <line x1="50" x2="56" y1="99" style="clip-path:url(#clipPath7); stroke-dashoffset:0; fill:none; stroke-dasharray:none;" y2="87" />
      <line x1="50" x2="44" y1="99" style="clip-path:url(#clipPath7); stroke-dashoffset:0; fill:none; stroke-dasharray:none;" y2="87" />
    </g>
    <g transform="translate(-18,62)" style="stroke-linecap:butt; font-size:11; stroke-dashoffset:1; text-rendering:geometricPrecision; stroke-linejoin:round; font-family:sans-serif; stroke-dasharray:5;">
      <line x1="379" x2="50" y1="50" style="clip-path:url(#clipPath8); fill:none;" y2="50" />
      <line x1="50" x2="50" y1="50" style="clip-path:url(#clipPath8); fill:none;" y2="170" />
      <line x1="50" x2="89" y1="170" style="clip-path:url(#clipPath8); fill:none;" y2="170" />
      <line x1="89" x2="77" y1="170" style="clip-path:url(#clipPath8); stroke-dashoffset:0; fill:none; stroke-dasharray:none;" y2="164" />
      <line x1="89" x2="77" y1="170" style="clip-path:url(#clipPath8); stroke-dashoffset:0; fill:none; stroke-dasharray:none;" y2="176" />
    </g>
    <g transform="translate(-18,62)" style="stroke-linecap:butt; font-size:11; stroke-dashoffset:1; text-rendering:geometricPrecision; stroke-linejoin:round; font-family:sans-serif; stroke-dasharray:5;">
      <line x1="379" x2="50" y1="50" style="clip-path:url(#clipPath9); fill:none;" y2="50" />
      <line x1="50" x2="50" y1="50" style="clip-path:url(#clipPath9); fill:none;" y2="370" />
      <line x1="50" x2="89" y1="370" style="clip-path:url(#clipPath9); fill:none;" y2="370" />
      <line x1="89" x2="77" y1="370" style="clip-path:url(#clipPath9); stroke-dashoffset:0; fill:none; stroke-dasharray:none;" y2="364" />
      <line x1="89" x2="77" y1="370" style="clip-path:url(#clipPath9); stroke-dashoffset:0; fill:none; stroke-dasharray:none;" y2="376" />
    </g>
    <g transform="translate(-18,62)" style="stroke-linecap:butt; font-size:11; stroke-dashoffset:1; text-rendering:geometricPrecision; stroke-linejoin:round; font-family:sans-serif; stroke-dasharray:5;">
      <line x1="379" x2="50" y1="50" style="clip-path:url(#clipPath10); fill:none;" y2="50" />
      <line x1="50" x2="50" y1="50" style="clip-path:url(#clipPath10); fill:none;" y2="270" />
      <line x1="50" x2="89" y1="270" style="clip-path:url(#clipPath10); fill:none;" y2="270" />
      <line x1="89" x2="77" y1="270" style="clip-path:url(#clipPath10); stroke-dashoffset:0; fill:none; stroke-dasharray:none;" y2="264" />
      <line x1="89" x2="77" y1="270" style="clip-path:url(#clipPath10); stroke-dashoffset:0; fill:none; stroke-dasharray:none;" y2="276" />
    </g>
    <g transform="translate(97,192)" style="stroke-linecap:butt; font-size:11; stroke-dashoffset:1; text-rendering:geometricPrecision; stroke-linejoin:round; font-family:sans-serif; stroke-dasharray:5;">
      <line x1="50" x2="50" y1="119" style="clip-path:url(#clipPath11); fill:none;" y2="50" />
      <line x1="50" x2="44" y1="50" style="clip-path:url(#clipPath11); stroke-dashoffset:0; fill:none; stroke-dasharray:none;" y2="62" />
      <line x1="50" x2="56" y1="50" style="clip-path:url(#clipPath11); stroke-dashoffset:0; fill:none; stroke-dasharray:none;" y2="62" />
    </g>
    <g transform="translate(97,302)" style="stroke-linecap:butt; font-size:11; stroke-dashoffset:1; text-rendering:geometricPrecision; stroke-linejoin:round; font-family:sans-serif; stroke-dasharray:5;">
      <line x1="50" x2="50" y1="50" style="clip-path:url(#clipPath12); fill:none;" y2="109" />
      <line x1="50" x2="56" y1="109" style="clip-path:url(#clipPath12); stroke-dashoffset:0; fill:none; stroke-dasharray:none;" y2="97" />
      <line x1="50" x2="44" y1="109" style="clip-path:url(#clipPath12); stroke-dashoffset:0; fill:none; stroke-dasharray:none;" y2="97" />
    </g>
    <g transform="translate(392,82)" style="stroke-linecap:butt; font-size:11; stroke-dashoffset:1; text-rendering:geometricPrecision; stroke-linejoin:round; font-family:sans-serif; stroke-dasharray:5;">
      <line x1="50" x2="50" y1="50" style="clip-path:url(#clipPath11); fill:none;" y2="119" />
      <line x1="50" x2="56" y1="119" style="clip-path:url(#clipPath11); stroke-dashoffset:0; fill:none; stroke-dasharray:none;" y2="107" />
      <line x1="50" x2="44" y1="119" style="clip-path:url(#clipPath11); stroke-dashoffset:0; fill:none; stroke-dasharray:none;" y2="107" />
    </g>
    <g transform="translate(172,172)" style="stroke-linecap:butt; font-size:11; stroke-dashoffset:1; text-rendering:geometricPrecision; stroke-linejoin:round; font-family:sans-serif; stroke-dasharray:5;">
      <line x1="189" x2="50" y1="50" style="clip-path:url(#clipPath13); fill:none;" y2="50" />
      <line x1="50" x2="62" y1="50" style="clip-path:url(#clipPath13); stroke-dashoffset:0; fill:none; stroke-dasharray:none;" y2="56" />
      <line x1="50" x2="62" y1="50" style="clip-path:url(#clipPath13); stroke-dashoffset:0; fill:none; stroke-dasharray:none;" y2="44" />
    </g>
    <g transform="translate(172,172)" style="stroke-linecap:butt; font-size:11; stroke-dashoffset:1; text-rendering:geometricPrecision; stroke-linejoin:round; font-family:sans-serif; stroke-dasharray:5;">
      <line x1="189" x2="120" y1="50" style="clip-path:url(#clipPath14); fill:none;" y2="50" />
      <line x1="120" x2="120" y1="50" style="clip-path:url(#clipPath14); fill:none;" y2="160" />
      <line x1="120" x2="50" y1="160" style="clip-path:url(#clipPath14); fill:none;" y2="160" />
      <line x1="50" x2="62" y1="160" style="clip-path:url(#clipPath14); stroke-dashoffset:0; fill:none; stroke-dasharray:none;" y2="166" />
      <line x1="50" x2="62" y1="160" style="clip-path:url(#clipPath14); stroke-dashoffset:0; fill:none; stroke-dasharray:none;" y2="154" />
    </g>
    <g transform="translate(172,172)" style="stroke-linecap:butt; font-size:11; stroke-dashoffset:1; text-rendering:geometricPrecision; stroke-linejoin:round; font-family:sans-serif; stroke-dasharray:5;">
      <line x1="189" x2="120" y1="50" style="clip-path:url(#clipPath15); fill:none;" y2="50" />
      <line x1="120" x2="120" y1="50" style="clip-path:url(#clipPath15); fill:none;" y2="260" />
      <line x1="120" x2="50" y1="260" style="clip-path:url(#clipPath15); fill:none;" y2="260" />
      <line x1="50" x2="62" y1="260" style="clip-path:url(#clipPath15); stroke-dashoffset:0; fill:none; stroke-dasharray:none;" y2="266" />
      <line x1="50" x2="62" y1="260" style="clip-path:url(#clipPath15); stroke-dashoffset:0; fill:none; stroke-dasharray:none;" y2="254" />
    </g>
    <g transform="translate(472,82)" style="stroke-linecap:butt; font-size:11; stroke-dashoffset:1; text-rendering:geometricPrecision; stroke-linejoin:round; font-family:sans-serif; stroke-dasharray:5;">
      <line x1="50" x2="50" y1="119" style="clip-path:url(#clipPath11); fill:none;" y2="50" />
      <line x1="50" x2="44" y1="50" style="clip-path:url(#clipPath11); stroke-dashoffset:0; fill:none; stroke-dasharray:none;" y2="62" />
      <line x1="50" x2="56" y1="50" style="clip-path:url(#clipPath11); stroke-dashoffset:0; fill:none; stroke-dasharray:none;" y2="62" />
    </g>
    <g style="fill:rgb(120,120,120); text-rendering:geometricPrecision; font-size:8; stroke:rgb(120,120,120);">
      <text xml:space="preserve" x="0" y="10" style="stroke:none;">Visual Paradigm for UML Standard Edition(University of Stuttgart)</text>
      <text xml:space="preserve" x="0" y="10" style="stroke:none;">Visual Paradigm for UML Standard Edition(University of Stuttgart)</text>
    </g>
  </g>
</svg>
